M48
; DRILL file {KiCad (6.0.8)} date Thu Oct 20 20:28:10 2022
; FORMAT={-:-/ absolute / metric / decimal}
; #@! TF.CreationDate,2022-10-20T20:28:10+05:30
; #@! TF.GenerationSoftware,Kicad,Pcbnew,(6.0.8)
; #@! TF.FileFunction,Plated,1,2,PTH
FMAT,2
METRIC
; #@! TA.AperFunction,Plated,PTH,ViaDrill
T1C0.400
; #@! TA.AperFunction,Plated,PTH,ComponentDrill
T2C0.500
; #@! TA.AperFunction,Plated,PTH,ComponentDrill
T3C0.750
; #@! TA.AperFunction,Plated,PTH,ComponentDrill
T4C0.800
; #@! TA.AperFunction,Plated,PTH,ComponentDrill
T5C0.900
; #@! TA.AperFunction,Plated,PTH,ComponentDrill
T6C1.000
; #@! TA.AperFunction,Plated,PTH,ComponentDrill
T7C1.100
%
G90
G05
T1
X135.89Y-111.825
T2
X163.83Y-133.35
X165.33Y-133.35
T3
X86.995Y-60.325
X88.265Y-59.055
X88.265Y-61.595
T4
X30.48Y-66.423
X30.48Y-76.583
X31.75Y-83.82
X31.75Y-86.32
X34.29Y-66.423
X34.29Y-76.583
X37.465Y-83.82
X37.465Y-91.44
X37.465Y-95.885
X37.465Y-100.33
X37.465Y-107.95
X38.1Y-66.423
X38.1Y-76.583
X39.965Y-95.885
X40.005Y-83.82
X40.005Y-91.44
X40.005Y-100.33
X40.005Y-107.95
X41.91Y-66.423
X41.91Y-76.583
X42.545Y-83.82
X42.545Y-91.44
X42.545Y-100.33
X42.545Y-107.95
X45.085Y-83.82
X45.085Y-91.44
X45.085Y-100.33
X45.085Y-107.95
X45.085Y-127.675
X45.085Y-130.175
X45.72Y-66.423
X45.72Y-76.583
X47.625Y-83.82
X47.625Y-91.44
X47.625Y-100.33
X47.625Y-107.95
X49.53Y-66.423
X49.53Y-76.583
X50.165Y-83.82
X50.165Y-91.44
X50.165Y-100.33
X50.165Y-107.95
X52.705Y-83.82
X52.705Y-91.44
X52.705Y-100.33
X52.705Y-107.95
X53.34Y-66.423
X53.34Y-76.583
X55.245Y-83.82
X55.245Y-91.44
X57.785Y-66.423
X57.785Y-76.583
X59.69Y-83.82
X59.69Y-86.32
X61.595Y-66.423
X61.595Y-76.583
X63.5Y-83.82
X63.5Y-91.44
X63.5Y-100.33
X63.5Y-107.95
X65.405Y-37.465
X65.405Y-52.705
X65.405Y-66.423
X65.405Y-76.583
X66.04Y-83.82
X66.04Y-91.44
X66.04Y-100.33
X66.04Y-107.95
X66.04Y-132.08
X66.04Y-142.24
X66.06Y-95.885
X67.945Y-37.465
X67.945Y-52.705
X68.56Y-95.885
X68.58Y-83.82
X68.58Y-91.44
X68.58Y-100.33
X68.58Y-107.95
X69.215Y-66.423
X69.215Y-76.583
X70.485Y-37.465
X70.485Y-52.705
X71.12Y-83.82
X71.12Y-91.44
X71.12Y-100.33
X71.12Y-107.95
X71.755Y-132.08
X71.755Y-142.24
X73.025Y-37.465
X73.025Y-52.705
X73.025Y-66.423
X73.025Y-76.583
X73.66Y-83.82
X73.66Y-91.44
X73.66Y-100.33
X73.66Y-107.95
X75.565Y-37.465
X75.565Y-52.705
X76.2Y-83.82
X76.2Y-91.44
X76.2Y-100.33
X76.2Y-107.95
X76.835Y-66.423
X76.835Y-76.583
X78.105Y-134.62
X78.105Y-142.24
X78.74Y-37.465
X78.74Y-52.705
X78.74Y-83.82
X78.74Y-91.44
X78.74Y-100.33
X78.74Y-107.95
X80.645Y-66.423
X80.645Y-76.583
X81.28Y-37.465
X81.28Y-52.705
X81.28Y-83.82
X81.28Y-91.44
X83.82Y-37.465
X83.82Y-52.705
X85.09Y-66.675
X85.09Y-76.835
X85.725Y-134.62
X85.725Y-137.12
X86.36Y-37.465
X86.36Y-52.705
X86.995Y-83.82
X86.995Y-86.32
X87.884Y-114.848
X87.884Y-117.348
X88.9Y-37.465
X88.9Y-52.705
X88.9Y-66.675
X88.9Y-76.835
X92.075Y-60.325
X92.075Y-83.82
X92.075Y-91.44
X92.71Y-66.675
X92.71Y-76.835
X93.98Y-95.885
X93.98Y-100.33
X93.98Y-107.95
X93.98Y-115.0
X93.98Y-122.62
X94.615Y-83.82
X94.615Y-91.44
X94.615Y-134.62
X94.615Y-137.12
X96.48Y-95.885
X96.52Y-66.675
X96.52Y-76.835
X96.52Y-100.33
X96.52Y-107.95
X96.52Y-115.0
X96.52Y-122.62
X97.155Y-83.82
X97.155Y-91.44
X99.06Y-100.33
X99.06Y-107.95
X99.06Y-115.0
X99.06Y-122.62
X99.695Y-83.82
X99.695Y-91.44
X100.33Y-66.675
X100.33Y-76.835
X101.6Y-100.33
X101.6Y-107.95
X101.6Y-115.0
X101.6Y-122.62
X102.235Y-60.325
X102.235Y-83.82
X102.235Y-91.44
X102.235Y-134.62
X102.235Y-142.24
X104.14Y-37.465
X104.14Y-52.705
X104.14Y-66.675
X104.14Y-76.835
X104.14Y-100.33
X104.14Y-107.95
X104.14Y-115.0
X104.14Y-122.62
X104.775Y-83.82
X104.775Y-91.44
X106.68Y-37.465
X106.68Y-52.705
X106.68Y-100.33
X106.68Y-107.95
X106.68Y-115.0
X106.68Y-122.62
X107.315Y-83.82
X107.315Y-91.44
X107.95Y-66.675
X107.95Y-76.835
X109.22Y-37.465
X109.22Y-52.705
X109.22Y-100.33
X109.22Y-107.95
X109.22Y-115.0
X109.22Y-122.62
X109.22Y-132.08
X109.22Y-142.24
X109.855Y-83.82
X109.855Y-91.44
X111.76Y-37.465
X111.76Y-52.705
X113.665Y-66.675
X113.665Y-76.835
X114.3Y-37.465
X114.3Y-52.705
X114.935Y-83.82
X114.935Y-86.32
X114.935Y-132.08
X114.935Y-142.24
X116.84Y-114.848
X116.84Y-117.348
X117.475Y-37.465
X117.475Y-52.705
X117.475Y-66.675
X117.475Y-76.835
X120.015Y-37.465
X120.015Y-52.705
X120.65Y-83.82
X120.65Y-91.44
X121.285Y-66.675
X121.285Y-76.835
X122.555Y-37.465
X122.555Y-52.705
X122.555Y-100.33
X122.555Y-107.95
X122.555Y-115.0
X122.555Y-122.62
X122.575Y-95.885
X123.19Y-83.82
X123.19Y-91.44
X123.19Y-127.635
X123.19Y-130.135
X125.075Y-95.885
X125.095Y-37.465
X125.095Y-52.705
X125.095Y-66.675
X125.095Y-76.835
X125.095Y-100.33
X125.095Y-107.95
X125.095Y-115.0
X125.095Y-122.62
X125.73Y-83.82
X125.73Y-91.44
X127.635Y-37.465
X127.635Y-52.705
X127.635Y-100.33
X127.635Y-107.95
X127.635Y-115.0
X127.635Y-122.62
X128.016Y-130.048
X128.016Y-137.668
X128.27Y-83.82
X128.27Y-91.44
X128.905Y-66.675
X128.905Y-76.835
X130.175Y-100.33
X130.175Y-107.95
X130.175Y-115.0
X130.175Y-122.62
X130.556Y-130.048
X130.556Y-137.668
X130.81Y-83.82
X130.81Y-91.44
X132.715Y-66.675
X132.715Y-76.835
X132.715Y-100.33
X132.715Y-107.95
X132.715Y-115.0
X132.715Y-122.62
X133.096Y-130.048
X133.096Y-137.668
X133.35Y-83.82
X133.35Y-91.44
X135.255Y-37.465
X135.255Y-52.705
X135.255Y-100.33
X135.255Y-107.95
X135.255Y-115.0
X135.255Y-122.62
X135.636Y-130.048
X135.636Y-137.668
X135.89Y-83.82
X135.89Y-91.44
X136.525Y-66.675
X136.525Y-76.835
X137.795Y-37.465
X137.795Y-52.705
X137.795Y-100.33
X137.795Y-107.95
X137.795Y-115.0
X137.795Y-122.62
X138.176Y-130.048
X138.176Y-137.668
X138.43Y-83.82
X138.43Y-91.44
X140.335Y-37.465
X140.335Y-52.705
X140.716Y-130.048
X140.716Y-137.668
X140.97Y-66.675
X140.97Y-76.835
X142.875Y-37.465
X142.875Y-52.705
X143.256Y-130.048
X143.256Y-137.668
X143.51Y-83.82
X143.51Y-86.32
X144.78Y-66.675
X144.78Y-76.835
X145.415Y-37.465
X145.415Y-52.705
X147.955Y-83.82
X147.955Y-91.44
X148.59Y-37.465
X148.59Y-52.705
X148.59Y-66.675
X148.59Y-76.835
X148.59Y-100.33
X148.59Y-107.95
X148.61Y-95.885
X150.495Y-83.82
X150.495Y-91.44
X150.495Y-115.0
X150.495Y-122.62
X151.11Y-95.885
X151.13Y-37.465
X151.13Y-52.705
X151.13Y-100.33
X151.13Y-107.95
X152.4Y-66.675
X152.4Y-76.835
X153.035Y-83.82
X153.035Y-91.44
X153.035Y-115.0
X153.035Y-122.62
X153.67Y-37.465
X153.67Y-52.705
X153.67Y-100.33
X153.67Y-107.95
X155.575Y-83.82
X155.575Y-91.44
X155.575Y-115.0
X155.575Y-122.62
X155.575Y-127.635
X155.575Y-137.795
X156.21Y-37.465
X156.21Y-52.705
X156.21Y-66.675
X156.21Y-76.835
X156.21Y-100.33
X156.21Y-107.95
X158.115Y-83.82
X158.115Y-91.44
X158.115Y-115.0
X158.115Y-122.62
X158.75Y-37.465
X158.75Y-52.705
X158.75Y-100.33
X158.75Y-107.95
X160.02Y-66.675
X160.02Y-76.835
X160.655Y-83.82
X160.655Y-91.44
X160.655Y-115.0
X160.655Y-122.62
X160.655Y-130.85
X160.655Y-133.35
X161.29Y-100.33
X161.29Y-107.95
X163.195Y-83.82
X163.195Y-91.44
X163.195Y-115.0
X163.195Y-122.62
X163.83Y-66.675
X163.83Y-76.835
X163.83Y-100.33
X163.83Y-107.95
X165.735Y-83.82
X165.735Y-91.44
X165.735Y-115.0
X165.735Y-122.62
X168.275Y-66.675
X168.275Y-76.835
X168.275Y-115.0
X168.275Y-122.62
X168.91Y-130.85
X168.91Y-133.35
X170.815Y-83.82
X170.815Y-86.32
X172.085Y-66.675
X172.085Y-76.835
X173.355Y-120.035
X173.355Y-122.535
X173.99Y-127.635
X173.99Y-137.795
X175.26Y-83.82
X175.26Y-91.44
X175.895Y-66.675
X175.895Y-76.835
X177.8Y-83.82
X177.8Y-91.44
X177.8Y-100.33
X177.8Y-107.95
X177.8Y-115.0
X177.8Y-122.62
X179.705Y-66.675
X179.705Y-76.835
X180.34Y-83.82
X180.34Y-91.44
X180.34Y-100.33
X180.34Y-107.95
X180.34Y-115.0
X180.34Y-122.62
X180.36Y-95.885
X182.86Y-95.885
X182.88Y-83.82
X182.88Y-91.44
X182.88Y-100.33
X182.88Y-107.95
X182.88Y-115.0
X182.88Y-122.62
X183.515Y-66.675
X183.515Y-76.835
X185.42Y-83.82
X185.42Y-91.44
X185.42Y-100.33
X185.42Y-107.95
X185.42Y-115.0
X185.42Y-122.62
X187.325Y-66.675
X187.325Y-76.835
X187.96Y-83.82
X187.96Y-91.44
X187.96Y-100.33
X187.96Y-107.95
X187.96Y-115.0
X187.96Y-122.62
X190.5Y-83.82
X190.5Y-91.44
X190.5Y-100.33
X190.5Y-107.95
X190.5Y-115.0
X190.5Y-122.62
X191.135Y-66.675
X191.135Y-76.835
X193.04Y-83.82
X193.04Y-91.44
X193.04Y-100.33
X193.04Y-107.95
X193.04Y-115.0
X193.04Y-122.62
X197.485Y-120.015
X197.485Y-122.515
T5
X95.25Y-40.005
X95.25Y-50.165
X97.79Y-40.005
X97.79Y-50.165
T7
X41.2Y-142.08
X41.2Y-146.58
X47.7Y-142.08
X47.7Y-146.58
X52.705Y-142.08
X52.705Y-146.58
X59.205Y-142.08
X59.205Y-146.58
T6
G00X28.675Y-123.135
M15
G01X27.175Y-123.135
M16
G05
G00X28.675Y-132.135
M15
G01X27.175Y-132.135
M16
G05
G00X28.925Y-126.985
M15
G01X28.925Y-128.285
M16
G05
G00X34.925Y-126.635
M15
G01X34.925Y-128.635
M16
G05
T0
M30
