G04 #@! TF.GenerationSoftware,KiCad,Pcbnew,(6.0.8)*
G04 #@! TF.CreationDate,2022-10-20T20:27:48+05:30*
G04 #@! TF.ProjectId,Digital-Clock,44696769-7461-46c2-9d43-6c6f636b2e6b,rev?*
G04 #@! TF.SameCoordinates,Original*
G04 #@! TF.FileFunction,Soldermask,Bot*
G04 #@! TF.FilePolarity,Negative*
%FSLAX46Y46*%
G04 Gerber Fmt 4.6, Leading zero omitted, Abs format (unit mm)*
G04 Created by KiCad (PCBNEW (6.0.8)) date 2022-10-20 20:27:48*
%MOMM*%
%LPD*%
G01*
G04 APERTURE LIST*
G04 Aperture macros list*
%AMRoundRect*
0 Rectangle with rounded corners*
0 $1 Rounding radius*
0 $2 $3 $4 $5 $6 $7 $8 $9 X,Y pos of 4 corners*
0 Add a 4 corners polygon primitive as box body*
4,1,4,$2,$3,$4,$5,$6,$7,$8,$9,$2,$3,0*
0 Add four circle primitives for the rounded corners*
1,1,$1+$1,$2,$3*
1,1,$1+$1,$4,$5*
1,1,$1+$1,$6,$7*
1,1,$1+$1,$8,$9*
0 Add four rect primitives between the rounded corners*
20,1,$1+$1,$2,$3,$4,$5,0*
20,1,$1+$1,$4,$5,$6,$7,0*
20,1,$1+$1,$6,$7,$8,$9,0*
20,1,$1+$1,$8,$9,$2,$3,0*%
G04 Aperture macros list end*
%ADD10C,0.100000*%
%ADD11C,0.150000*%
%ADD12C,0.300000*%
%ADD13C,0.400000*%
G04 #@! TA.AperFunction,Profile*
%ADD14C,0.050000*%
G04 #@! TD*
%ADD15RoundRect,0.051000X-0.762000X-1.262000X0.762000X-1.262000X0.762000X1.262000X-0.762000X1.262000X0*%
%ADD16O,1.626000X2.626000*%
%ADD17RoundRect,0.051000X-0.800000X0.800000X-0.800000X-0.800000X0.800000X-0.800000X0.800000X0.800000X0*%
%ADD18C,1.702000*%
%ADD19O,1.702000X1.702000*%
%ADD20RoundRect,0.051000X-0.900000X-0.900000X0.900000X-0.900000X0.900000X0.900000X-0.900000X0.900000X0*%
%ADD21C,1.902000*%
%ADD22RoundRect,0.051000X0.900000X0.900000X-0.900000X0.900000X-0.900000X-0.900000X0.900000X-0.900000X0*%
%ADD23RoundRect,0.051000X0.650000X-0.650000X0.650000X0.650000X-0.650000X0.650000X-0.650000X-0.650000X0*%
%ADD24C,1.402000*%
%ADD25RoundRect,0.051000X0.800000X-0.800000X0.800000X0.800000X-0.800000X0.800000X-0.800000X-0.800000X0*%
%ADD26C,2.102000*%
%ADD27RoundRect,0.051000X-1.000000X2.000000X-1.000000X-2.000000X1.000000X-2.000000X1.000000X2.000000X0*%
%ADD28O,2.102000X3.402000*%
%ADD29O,3.602000X2.102000*%
%ADD30C,1.102000*%
%ADD31C,3.302000*%
G04 APERTURE END LIST*
D10*
D11*
X177002200Y-166007200D02*
X177002200Y-198007200D01*
X285002200Y-198007200D01*
X285002200Y-166007200D01*
X177002200Y-166007200D01*
D10*
D11*
X10000000Y-10000000D02*
X10000000Y-200007200D01*
X287002200Y-200007200D01*
X287002200Y-10000000D01*
X10000000Y-10000000D01*
D10*
D11*
X12000000Y-12000000D02*
X12000000Y-198007200D01*
X285002200Y-198007200D01*
X285002200Y-12000000D01*
X12000000Y-12000000D01*
D10*
D11*
X60000000Y-12000000D02*
X60000000Y-10000000D01*
D10*
D11*
X110000000Y-12000000D02*
X110000000Y-10000000D01*
D10*
D11*
X160000000Y-12000000D02*
X160000000Y-10000000D01*
D10*
D11*
X210000000Y-12000000D02*
X210000000Y-10000000D01*
D10*
D11*
X260000000Y-12000000D02*
X260000000Y-10000000D01*
D10*
D11*
X36065476Y-11588095D02*
X35322619Y-11588095D01*
X35694047Y-11588095D02*
X35694047Y-10288095D01*
X35570238Y-10473809D01*
X35446428Y-10597619D01*
X35322619Y-10659523D01*
D10*
D11*
X85322619Y-10411904D02*
X85384523Y-10350000D01*
X85508333Y-10288095D01*
X85817857Y-10288095D01*
X85941666Y-10350000D01*
X86003571Y-10411904D01*
X86065476Y-10535714D01*
X86065476Y-10659523D01*
X86003571Y-10845238D01*
X85260714Y-11588095D01*
X86065476Y-11588095D01*
D10*
D11*
X135260714Y-10288095D02*
X136065476Y-10288095D01*
X135632142Y-10783333D01*
X135817857Y-10783333D01*
X135941666Y-10845238D01*
X136003571Y-10907142D01*
X136065476Y-11030952D01*
X136065476Y-11340476D01*
X136003571Y-11464285D01*
X135941666Y-11526190D01*
X135817857Y-11588095D01*
X135446428Y-11588095D01*
X135322619Y-11526190D01*
X135260714Y-11464285D01*
D10*
D11*
X185941666Y-10721428D02*
X185941666Y-11588095D01*
X185632142Y-10226190D02*
X185322619Y-11154761D01*
X186127380Y-11154761D01*
D10*
D11*
X236003571Y-10288095D02*
X235384523Y-10288095D01*
X235322619Y-10907142D01*
X235384523Y-10845238D01*
X235508333Y-10783333D01*
X235817857Y-10783333D01*
X235941666Y-10845238D01*
X236003571Y-10907142D01*
X236065476Y-11030952D01*
X236065476Y-11340476D01*
X236003571Y-11464285D01*
X235941666Y-11526190D01*
X235817857Y-11588095D01*
X235508333Y-11588095D01*
X235384523Y-11526190D01*
X235322619Y-11464285D01*
D10*
D11*
X285941666Y-10288095D02*
X285694047Y-10288095D01*
X285570238Y-10350000D01*
X285508333Y-10411904D01*
X285384523Y-10597619D01*
X285322619Y-10845238D01*
X285322619Y-11340476D01*
X285384523Y-11464285D01*
X285446428Y-11526190D01*
X285570238Y-11588095D01*
X285817857Y-11588095D01*
X285941666Y-11526190D01*
X286003571Y-11464285D01*
X286065476Y-11340476D01*
X286065476Y-11030952D01*
X286003571Y-10907142D01*
X285941666Y-10845238D01*
X285817857Y-10783333D01*
X285570238Y-10783333D01*
X285446428Y-10845238D01*
X285384523Y-10907142D01*
X285322619Y-11030952D01*
D10*
D11*
X60000000Y-198007200D02*
X60000000Y-200007200D01*
D10*
D11*
X110000000Y-198007200D02*
X110000000Y-200007200D01*
D10*
D11*
X160000000Y-198007200D02*
X160000000Y-200007200D01*
D10*
D11*
X210000000Y-198007200D02*
X210000000Y-200007200D01*
D10*
D11*
X260000000Y-198007200D02*
X260000000Y-200007200D01*
D10*
D11*
X36065476Y-199595295D02*
X35322619Y-199595295D01*
X35694047Y-199595295D02*
X35694047Y-198295295D01*
X35570238Y-198481009D01*
X35446428Y-198604819D01*
X35322619Y-198666723D01*
D10*
D11*
X85322619Y-198419104D02*
X85384523Y-198357200D01*
X85508333Y-198295295D01*
X85817857Y-198295295D01*
X85941666Y-198357200D01*
X86003571Y-198419104D01*
X86065476Y-198542914D01*
X86065476Y-198666723D01*
X86003571Y-198852438D01*
X85260714Y-199595295D01*
X86065476Y-199595295D01*
D10*
D11*
X135260714Y-198295295D02*
X136065476Y-198295295D01*
X135632142Y-198790533D01*
X135817857Y-198790533D01*
X135941666Y-198852438D01*
X136003571Y-198914342D01*
X136065476Y-199038152D01*
X136065476Y-199347676D01*
X136003571Y-199471485D01*
X135941666Y-199533390D01*
X135817857Y-199595295D01*
X135446428Y-199595295D01*
X135322619Y-199533390D01*
X135260714Y-199471485D01*
D10*
D11*
X185941666Y-198728628D02*
X185941666Y-199595295D01*
X185632142Y-198233390D02*
X185322619Y-199161961D01*
X186127380Y-199161961D01*
D10*
D11*
X236003571Y-198295295D02*
X235384523Y-198295295D01*
X235322619Y-198914342D01*
X235384523Y-198852438D01*
X235508333Y-198790533D01*
X235817857Y-198790533D01*
X235941666Y-198852438D01*
X236003571Y-198914342D01*
X236065476Y-199038152D01*
X236065476Y-199347676D01*
X236003571Y-199471485D01*
X235941666Y-199533390D01*
X235817857Y-199595295D01*
X235508333Y-199595295D01*
X235384523Y-199533390D01*
X235322619Y-199471485D01*
D10*
D11*
X285941666Y-198295295D02*
X285694047Y-198295295D01*
X285570238Y-198357200D01*
X285508333Y-198419104D01*
X285384523Y-198604819D01*
X285322619Y-198852438D01*
X285322619Y-199347676D01*
X285384523Y-199471485D01*
X285446428Y-199533390D01*
X285570238Y-199595295D01*
X285817857Y-199595295D01*
X285941666Y-199533390D01*
X286003571Y-199471485D01*
X286065476Y-199347676D01*
X286065476Y-199038152D01*
X286003571Y-198914342D01*
X285941666Y-198852438D01*
X285817857Y-198790533D01*
X285570238Y-198790533D01*
X285446428Y-198852438D01*
X285384523Y-198914342D01*
X285322619Y-199038152D01*
D10*
D11*
X10000000Y-60000000D02*
X12000000Y-60000000D01*
D10*
D11*
X10000000Y-110000000D02*
X12000000Y-110000000D01*
D10*
D11*
X10000000Y-160000000D02*
X12000000Y-160000000D01*
D10*
D11*
X10690476Y-35216666D02*
X11309523Y-35216666D01*
X10566666Y-35588095D02*
X11000000Y-34288095D01*
X11433333Y-35588095D01*
D10*
D11*
X11092857Y-84907142D02*
X11278571Y-84969047D01*
X11340476Y-85030952D01*
X11402380Y-85154761D01*
X11402380Y-85340476D01*
X11340476Y-85464285D01*
X11278571Y-85526190D01*
X11154761Y-85588095D01*
X10659523Y-85588095D01*
X10659523Y-84288095D01*
X11092857Y-84288095D01*
X11216666Y-84350000D01*
X11278571Y-84411904D01*
X11340476Y-84535714D01*
X11340476Y-84659523D01*
X11278571Y-84783333D01*
X11216666Y-84845238D01*
X11092857Y-84907142D01*
X10659523Y-84907142D01*
D10*
D11*
X11402380Y-135464285D02*
X11340476Y-135526190D01*
X11154761Y-135588095D01*
X11030952Y-135588095D01*
X10845238Y-135526190D01*
X10721428Y-135402380D01*
X10659523Y-135278571D01*
X10597619Y-135030952D01*
X10597619Y-134845238D01*
X10659523Y-134597619D01*
X10721428Y-134473809D01*
X10845238Y-134350000D01*
X11030952Y-134288095D01*
X11154761Y-134288095D01*
X11340476Y-134350000D01*
X11402380Y-134411904D01*
D10*
D11*
X10659523Y-185588095D02*
X10659523Y-184288095D01*
X10969047Y-184288095D01*
X11154761Y-184350000D01*
X11278571Y-184473809D01*
X11340476Y-184597619D01*
X11402380Y-184845238D01*
X11402380Y-185030952D01*
X11340476Y-185278571D01*
X11278571Y-185402380D01*
X11154761Y-185526190D01*
X10969047Y-185588095D01*
X10659523Y-185588095D01*
D10*
D11*
X287002200Y-60000000D02*
X285002200Y-60000000D01*
D10*
D11*
X287002200Y-110000000D02*
X285002200Y-110000000D01*
D10*
D11*
X287002200Y-160000000D02*
X285002200Y-160000000D01*
D10*
D11*
X285692676Y-35216666D02*
X286311723Y-35216666D01*
X285568866Y-35588095D02*
X286002200Y-34288095D01*
X286435533Y-35588095D01*
D10*
D11*
X286095057Y-84907142D02*
X286280771Y-84969047D01*
X286342676Y-85030952D01*
X286404580Y-85154761D01*
X286404580Y-85340476D01*
X286342676Y-85464285D01*
X286280771Y-85526190D01*
X286156961Y-85588095D01*
X285661723Y-85588095D01*
X285661723Y-84288095D01*
X286095057Y-84288095D01*
X286218866Y-84350000D01*
X286280771Y-84411904D01*
X286342676Y-84535714D01*
X286342676Y-84659523D01*
X286280771Y-84783333D01*
X286218866Y-84845238D01*
X286095057Y-84907142D01*
X285661723Y-84907142D01*
D10*
D11*
X286404580Y-135464285D02*
X286342676Y-135526190D01*
X286156961Y-135588095D01*
X286033152Y-135588095D01*
X285847438Y-135526190D01*
X285723628Y-135402380D01*
X285661723Y-135278571D01*
X285599819Y-135030952D01*
X285599819Y-134845238D01*
X285661723Y-134597619D01*
X285723628Y-134473809D01*
X285847438Y-134350000D01*
X286033152Y-134288095D01*
X286156961Y-134288095D01*
X286342676Y-134350000D01*
X286404580Y-134411904D01*
D10*
D11*
X285661723Y-185588095D02*
X285661723Y-184288095D01*
X285971247Y-184288095D01*
X286156961Y-184350000D01*
X286280771Y-184473809D01*
X286342676Y-184597619D01*
X286404580Y-184845238D01*
X286404580Y-185030952D01*
X286342676Y-185278571D01*
X286280771Y-185402380D01*
X286156961Y-185526190D01*
X285971247Y-185588095D01*
X285661723Y-185588095D01*
D10*
D11*
X200434342Y-193785771D02*
X200434342Y-192285771D01*
X200791485Y-192285771D01*
X201005771Y-192357200D01*
X201148628Y-192500057D01*
X201220057Y-192642914D01*
X201291485Y-192928628D01*
X201291485Y-193142914D01*
X201220057Y-193428628D01*
X201148628Y-193571485D01*
X201005771Y-193714342D01*
X200791485Y-193785771D01*
X200434342Y-193785771D01*
X202577200Y-193785771D02*
X202577200Y-193000057D01*
X202505771Y-192857200D01*
X202362914Y-192785771D01*
X202077200Y-192785771D01*
X201934342Y-192857200D01*
X202577200Y-193714342D02*
X202434342Y-193785771D01*
X202077200Y-193785771D01*
X201934342Y-193714342D01*
X201862914Y-193571485D01*
X201862914Y-193428628D01*
X201934342Y-193285771D01*
X202077200Y-193214342D01*
X202434342Y-193214342D01*
X202577200Y-193142914D01*
X203077200Y-192785771D02*
X203648628Y-192785771D01*
X203291485Y-192285771D02*
X203291485Y-193571485D01*
X203362914Y-193714342D01*
X203505771Y-193785771D01*
X203648628Y-193785771D01*
X204720057Y-193714342D02*
X204577200Y-193785771D01*
X204291485Y-193785771D01*
X204148628Y-193714342D01*
X204077200Y-193571485D01*
X204077200Y-193000057D01*
X204148628Y-192857200D01*
X204291485Y-192785771D01*
X204577200Y-192785771D01*
X204720057Y-192857200D01*
X204791485Y-193000057D01*
X204791485Y-193142914D01*
X204077200Y-193285771D01*
X205434342Y-193642914D02*
X205505771Y-193714342D01*
X205434342Y-193785771D01*
X205362914Y-193714342D01*
X205434342Y-193642914D01*
X205434342Y-193785771D01*
X205434342Y-192857200D02*
X205505771Y-192928628D01*
X205434342Y-193000057D01*
X205362914Y-192928628D01*
X205434342Y-192857200D01*
X205434342Y-193000057D01*
D10*
D11*
X177002200Y-194507200D02*
X285002200Y-194507200D01*
D10*
D11*
X178434342Y-196585771D02*
X178434342Y-195085771D01*
X179291485Y-196585771D02*
X178648628Y-195728628D01*
X179291485Y-195085771D02*
X178434342Y-195942914D01*
X179934342Y-196585771D02*
X179934342Y-195585771D01*
X179934342Y-195085771D02*
X179862914Y-195157200D01*
X179934342Y-195228628D01*
X180005771Y-195157200D01*
X179934342Y-195085771D01*
X179934342Y-195228628D01*
X181505771Y-196442914D02*
X181434342Y-196514342D01*
X181220057Y-196585771D01*
X181077200Y-196585771D01*
X180862914Y-196514342D01*
X180720057Y-196371485D01*
X180648628Y-196228628D01*
X180577200Y-195942914D01*
X180577200Y-195728628D01*
X180648628Y-195442914D01*
X180720057Y-195300057D01*
X180862914Y-195157200D01*
X181077200Y-195085771D01*
X181220057Y-195085771D01*
X181434342Y-195157200D01*
X181505771Y-195228628D01*
X182791485Y-196585771D02*
X182791485Y-195800057D01*
X182720057Y-195657200D01*
X182577200Y-195585771D01*
X182291485Y-195585771D01*
X182148628Y-195657200D01*
X182791485Y-196514342D02*
X182648628Y-196585771D01*
X182291485Y-196585771D01*
X182148628Y-196514342D01*
X182077200Y-196371485D01*
X182077200Y-196228628D01*
X182148628Y-196085771D01*
X182291485Y-196014342D01*
X182648628Y-196014342D01*
X182791485Y-195942914D01*
X184148628Y-196585771D02*
X184148628Y-195085771D01*
X184148628Y-196514342D02*
X184005771Y-196585771D01*
X183720057Y-196585771D01*
X183577200Y-196514342D01*
X183505771Y-196442914D01*
X183434342Y-196300057D01*
X183434342Y-195871485D01*
X183505771Y-195728628D01*
X183577200Y-195657200D01*
X183720057Y-195585771D01*
X184005771Y-195585771D01*
X184148628Y-195657200D01*
X186005771Y-195800057D02*
X186505771Y-195800057D01*
X186720057Y-196585771D02*
X186005771Y-196585771D01*
X186005771Y-195085771D01*
X186720057Y-195085771D01*
X187362914Y-196442914D02*
X187434342Y-196514342D01*
X187362914Y-196585771D01*
X187291485Y-196514342D01*
X187362914Y-196442914D01*
X187362914Y-196585771D01*
X188077200Y-196585771D02*
X188077200Y-195085771D01*
X188434342Y-195085771D01*
X188648628Y-195157200D01*
X188791485Y-195300057D01*
X188862914Y-195442914D01*
X188934342Y-195728628D01*
X188934342Y-195942914D01*
X188862914Y-196228628D01*
X188791485Y-196371485D01*
X188648628Y-196514342D01*
X188434342Y-196585771D01*
X188077200Y-196585771D01*
X189577200Y-196442914D02*
X189648628Y-196514342D01*
X189577200Y-196585771D01*
X189505771Y-196514342D01*
X189577200Y-196442914D01*
X189577200Y-196585771D01*
X190220057Y-196157200D02*
X190934342Y-196157200D01*
X190077200Y-196585771D02*
X190577200Y-195085771D01*
X191077200Y-196585771D01*
X191577200Y-196442914D02*
X191648628Y-196514342D01*
X191577200Y-196585771D01*
X191505771Y-196514342D01*
X191577200Y-196442914D01*
X191577200Y-196585771D01*
X194577200Y-196585771D02*
X194577200Y-195085771D01*
X194720057Y-196014342D02*
X195148628Y-196585771D01*
X195148628Y-195585771D02*
X194577200Y-196157200D01*
X195791485Y-196585771D02*
X195791485Y-195585771D01*
X195791485Y-195085771D02*
X195720057Y-195157200D01*
X195791485Y-195228628D01*
X195862914Y-195157200D01*
X195791485Y-195085771D01*
X195791485Y-195228628D01*
X197148628Y-196514342D02*
X197005771Y-196585771D01*
X196720057Y-196585771D01*
X196577200Y-196514342D01*
X196505771Y-196442914D01*
X196434342Y-196300057D01*
X196434342Y-195871485D01*
X196505771Y-195728628D01*
X196577200Y-195657200D01*
X196720057Y-195585771D01*
X197005771Y-195585771D01*
X197148628Y-195657200D01*
X198434342Y-196585771D02*
X198434342Y-195800057D01*
X198362914Y-195657200D01*
X198220057Y-195585771D01*
X197934342Y-195585771D01*
X197791485Y-195657200D01*
X198434342Y-196514342D02*
X198291485Y-196585771D01*
X197934342Y-196585771D01*
X197791485Y-196514342D01*
X197720057Y-196371485D01*
X197720057Y-196228628D01*
X197791485Y-196085771D01*
X197934342Y-196014342D01*
X198291485Y-196014342D01*
X198434342Y-195942914D01*
X199791485Y-196585771D02*
X199791485Y-195085771D01*
X199791485Y-196514342D02*
X199648628Y-196585771D01*
X199362914Y-196585771D01*
X199220057Y-196514342D01*
X199148628Y-196442914D01*
X199077200Y-196300057D01*
X199077200Y-195871485D01*
X199148628Y-195728628D01*
X199220057Y-195657200D01*
X199362914Y-195585771D01*
X199648628Y-195585771D01*
X199791485Y-195657200D01*
X202077200Y-197157200D02*
X202005771Y-197085771D01*
X201862914Y-196871485D01*
X201791485Y-196728628D01*
X201720057Y-196514342D01*
X201648628Y-196157200D01*
X201648628Y-195871485D01*
X201720057Y-195514342D01*
X201791485Y-195300057D01*
X201862914Y-195157200D01*
X202005771Y-194942914D01*
X202077200Y-194871485D01*
X203291485Y-195085771D02*
X203005771Y-195085771D01*
X202862914Y-195157200D01*
X202791485Y-195228628D01*
X202648628Y-195442914D01*
X202577200Y-195728628D01*
X202577200Y-196300057D01*
X202648628Y-196442914D01*
X202720057Y-196514342D01*
X202862914Y-196585771D01*
X203148628Y-196585771D01*
X203291485Y-196514342D01*
X203362914Y-196442914D01*
X203434342Y-196300057D01*
X203434342Y-195942914D01*
X203362914Y-195800057D01*
X203291485Y-195728628D01*
X203148628Y-195657200D01*
X202862914Y-195657200D01*
X202720057Y-195728628D01*
X202648628Y-195800057D01*
X202577200Y-195942914D01*
X204077200Y-196442914D02*
X204148628Y-196514342D01*
X204077200Y-196585771D01*
X204005771Y-196514342D01*
X204077200Y-196442914D01*
X204077200Y-196585771D01*
X205077200Y-195085771D02*
X205220057Y-195085771D01*
X205362914Y-195157200D01*
X205434342Y-195228628D01*
X205505771Y-195371485D01*
X205577200Y-195657200D01*
X205577200Y-196014342D01*
X205505771Y-196300057D01*
X205434342Y-196442914D01*
X205362914Y-196514342D01*
X205220057Y-196585771D01*
X205077200Y-196585771D01*
X204934342Y-196514342D01*
X204862914Y-196442914D01*
X204791485Y-196300057D01*
X204720057Y-196014342D01*
X204720057Y-195657200D01*
X204791485Y-195371485D01*
X204862914Y-195228628D01*
X204934342Y-195157200D01*
X205077200Y-195085771D01*
X206220057Y-196442914D02*
X206291485Y-196514342D01*
X206220057Y-196585771D01*
X206148628Y-196514342D01*
X206220057Y-196442914D01*
X206220057Y-196585771D01*
X207148628Y-195728628D02*
X207005771Y-195657200D01*
X206934342Y-195585771D01*
X206862914Y-195442914D01*
X206862914Y-195371485D01*
X206934342Y-195228628D01*
X207005771Y-195157200D01*
X207148628Y-195085771D01*
X207434342Y-195085771D01*
X207577200Y-195157200D01*
X207648628Y-195228628D01*
X207720057Y-195371485D01*
X207720057Y-195442914D01*
X207648628Y-195585771D01*
X207577200Y-195657200D01*
X207434342Y-195728628D01*
X207148628Y-195728628D01*
X207005771Y-195800057D01*
X206934342Y-195871485D01*
X206862914Y-196014342D01*
X206862914Y-196300057D01*
X206934342Y-196442914D01*
X207005771Y-196514342D01*
X207148628Y-196585771D01*
X207434342Y-196585771D01*
X207577200Y-196514342D01*
X207648628Y-196442914D01*
X207720057Y-196300057D01*
X207720057Y-196014342D01*
X207648628Y-195871485D01*
X207577200Y-195800057D01*
X207434342Y-195728628D01*
X208220057Y-197157200D02*
X208291485Y-197085771D01*
X208434342Y-196871485D01*
X208505771Y-196728628D01*
X208577200Y-196514342D01*
X208648628Y-196157200D01*
X208648628Y-195871485D01*
X208577200Y-195514342D01*
X208505771Y-195300057D01*
X208434342Y-195157200D01*
X208291485Y-194942914D01*
X208220057Y-194871485D01*
D10*
D11*
X177002200Y-191507200D02*
X285002200Y-191507200D01*
D10*
D12*
X264411485Y-193785771D02*
X263911485Y-193071485D01*
X263554342Y-193785771D02*
X263554342Y-192285771D01*
X264125771Y-192285771D01*
X264268628Y-192357200D01*
X264340057Y-192428628D01*
X264411485Y-192571485D01*
X264411485Y-192785771D01*
X264340057Y-192928628D01*
X264268628Y-193000057D01*
X264125771Y-193071485D01*
X263554342Y-193071485D01*
X265625771Y-193714342D02*
X265482914Y-193785771D01*
X265197200Y-193785771D01*
X265054342Y-193714342D01*
X264982914Y-193571485D01*
X264982914Y-193000057D01*
X265054342Y-192857200D01*
X265197200Y-192785771D01*
X265482914Y-192785771D01*
X265625771Y-192857200D01*
X265697200Y-193000057D01*
X265697200Y-193142914D01*
X264982914Y-193285771D01*
X266197200Y-192785771D02*
X266554342Y-193785771D01*
X266911485Y-192785771D01*
X267482914Y-193642914D02*
X267554342Y-193714342D01*
X267482914Y-193785771D01*
X267411485Y-193714342D01*
X267482914Y-193642914D01*
X267482914Y-193785771D01*
X267482914Y-192857200D02*
X267554342Y-192928628D01*
X267482914Y-193000057D01*
X267411485Y-192928628D01*
X267482914Y-192857200D01*
X267482914Y-193000057D01*
D10*
D11*
X178362914Y-193714342D02*
X178577200Y-193785771D01*
X178934342Y-193785771D01*
X179077200Y-193714342D01*
X179148628Y-193642914D01*
X179220057Y-193500057D01*
X179220057Y-193357200D01*
X179148628Y-193214342D01*
X179077200Y-193142914D01*
X178934342Y-193071485D01*
X178648628Y-193000057D01*
X178505771Y-192928628D01*
X178434342Y-192857200D01*
X178362914Y-192714342D01*
X178362914Y-192571485D01*
X178434342Y-192428628D01*
X178505771Y-192357200D01*
X178648628Y-192285771D01*
X179005771Y-192285771D01*
X179220057Y-192357200D01*
X179862914Y-193785771D02*
X179862914Y-192785771D01*
X179862914Y-192285771D02*
X179791485Y-192357200D01*
X179862914Y-192428628D01*
X179934342Y-192357200D01*
X179862914Y-192285771D01*
X179862914Y-192428628D01*
X180434342Y-192785771D02*
X181220057Y-192785771D01*
X180434342Y-193785771D01*
X181220057Y-193785771D01*
X182362914Y-193714342D02*
X182220057Y-193785771D01*
X181934342Y-193785771D01*
X181791485Y-193714342D01*
X181720057Y-193571485D01*
X181720057Y-193000057D01*
X181791485Y-192857200D01*
X181934342Y-192785771D01*
X182220057Y-192785771D01*
X182362914Y-192857200D01*
X182434342Y-193000057D01*
X182434342Y-193142914D01*
X181720057Y-193285771D01*
X183077200Y-193642914D02*
X183148628Y-193714342D01*
X183077200Y-193785771D01*
X183005771Y-193714342D01*
X183077200Y-193642914D01*
X183077200Y-193785771D01*
X183077200Y-192857200D02*
X183148628Y-192928628D01*
X183077200Y-193000057D01*
X183005771Y-192928628D01*
X183077200Y-192857200D01*
X183077200Y-193000057D01*
X184862914Y-193357200D02*
X185577200Y-193357200D01*
X184720057Y-193785771D02*
X185220057Y-192285771D01*
X185720057Y-193785771D01*
X186862914Y-192785771D02*
X186862914Y-193785771D01*
X186505771Y-192214342D02*
X186148628Y-193285771D01*
X187077200Y-193285771D01*
D10*
D11*
X263434342Y-196585771D02*
X263434342Y-195085771D01*
X264791485Y-196585771D02*
X264791485Y-195085771D01*
X264791485Y-196514342D02*
X264648628Y-196585771D01*
X264362914Y-196585771D01*
X264220057Y-196514342D01*
X264148628Y-196442914D01*
X264077200Y-196300057D01*
X264077200Y-195871485D01*
X264148628Y-195728628D01*
X264220057Y-195657200D01*
X264362914Y-195585771D01*
X264648628Y-195585771D01*
X264791485Y-195657200D01*
X265505771Y-196442914D02*
X265577200Y-196514342D01*
X265505771Y-196585771D01*
X265434342Y-196514342D01*
X265505771Y-196442914D01*
X265505771Y-196585771D01*
X265505771Y-195657200D02*
X265577200Y-195728628D01*
X265505771Y-195800057D01*
X265434342Y-195728628D01*
X265505771Y-195657200D01*
X265505771Y-195800057D01*
X268148628Y-196585771D02*
X267291485Y-196585771D01*
X267720057Y-196585771D02*
X267720057Y-195085771D01*
X267577200Y-195300057D01*
X267434342Y-195442914D01*
X267291485Y-195514342D01*
X269862914Y-195014342D02*
X268577200Y-196942914D01*
X271148628Y-196585771D02*
X270291485Y-196585771D01*
X270720057Y-196585771D02*
X270720057Y-195085771D01*
X270577200Y-195300057D01*
X270434342Y-195442914D01*
X270291485Y-195514342D01*
D10*
D11*
X177002200Y-187507200D02*
X285002200Y-187507200D01*
D10*
D13*
X178714580Y-188211961D02*
X179857438Y-188211961D01*
X179036009Y-190211961D02*
X179286009Y-188211961D01*
X180274104Y-190211961D02*
X180440771Y-188878628D01*
X180524104Y-188211961D02*
X180416961Y-188307200D01*
X180500295Y-188402438D01*
X180607438Y-188307200D01*
X180524104Y-188211961D01*
X180500295Y-188402438D01*
X181107438Y-188878628D02*
X181869342Y-188878628D01*
X181476485Y-188211961D02*
X181262200Y-189926247D01*
X181333628Y-190116723D01*
X181512200Y-190211961D01*
X181702676Y-190211961D01*
X182655057Y-190211961D02*
X182476485Y-190116723D01*
X182405057Y-189926247D01*
X182619342Y-188211961D01*
X184190771Y-190116723D02*
X183988390Y-190211961D01*
X183607438Y-190211961D01*
X183428866Y-190116723D01*
X183357438Y-189926247D01*
X183452676Y-189164342D01*
X183571723Y-188973866D01*
X183774104Y-188878628D01*
X184155057Y-188878628D01*
X184333628Y-188973866D01*
X184405057Y-189164342D01*
X184381247Y-189354819D01*
X183405057Y-189545295D01*
X185155057Y-190021485D02*
X185238390Y-190116723D01*
X185131247Y-190211961D01*
X185047914Y-190116723D01*
X185155057Y-190021485D01*
X185131247Y-190211961D01*
X185286009Y-188973866D02*
X185369342Y-189069104D01*
X185262200Y-189164342D01*
X185178866Y-189069104D01*
X185286009Y-188973866D01*
X185262200Y-189164342D01*
D10*
D11*
X178934342Y-185600057D02*
X178434342Y-185600057D01*
X178434342Y-186385771D02*
X178434342Y-184885771D01*
X179148628Y-184885771D01*
X179720057Y-186385771D02*
X179720057Y-185385771D01*
X179720057Y-184885771D02*
X179648628Y-184957200D01*
X179720057Y-185028628D01*
X179791485Y-184957200D01*
X179720057Y-184885771D01*
X179720057Y-185028628D01*
X180648628Y-186385771D02*
X180505771Y-186314342D01*
X180434342Y-186171485D01*
X180434342Y-184885771D01*
X181791485Y-186314342D02*
X181648628Y-186385771D01*
X181362914Y-186385771D01*
X181220057Y-186314342D01*
X181148628Y-186171485D01*
X181148628Y-185600057D01*
X181220057Y-185457200D01*
X181362914Y-185385771D01*
X181648628Y-185385771D01*
X181791485Y-185457200D01*
X181862914Y-185600057D01*
X181862914Y-185742914D01*
X181148628Y-185885771D01*
X182505771Y-186242914D02*
X182577200Y-186314342D01*
X182505771Y-186385771D01*
X182434342Y-186314342D01*
X182505771Y-186242914D01*
X182505771Y-186385771D01*
X182505771Y-185457200D02*
X182577200Y-185528628D01*
X182505771Y-185600057D01*
X182434342Y-185528628D01*
X182505771Y-185457200D01*
X182505771Y-185600057D01*
X184362914Y-186385771D02*
X184362914Y-184885771D01*
X184720057Y-184885771D01*
X184934342Y-184957200D01*
X185077200Y-185100057D01*
X185148628Y-185242914D01*
X185220057Y-185528628D01*
X185220057Y-185742914D01*
X185148628Y-186028628D01*
X185077200Y-186171485D01*
X184934342Y-186314342D01*
X184720057Y-186385771D01*
X184362914Y-186385771D01*
X185862914Y-186385771D02*
X185862914Y-185385771D01*
X185862914Y-184885771D02*
X185791485Y-184957200D01*
X185862914Y-185028628D01*
X185934342Y-184957200D01*
X185862914Y-184885771D01*
X185862914Y-185028628D01*
X187220057Y-185385771D02*
X187220057Y-186600057D01*
X187148628Y-186742914D01*
X187077200Y-186814342D01*
X186934342Y-186885771D01*
X186720057Y-186885771D01*
X186577200Y-186814342D01*
X187220057Y-186314342D02*
X187077200Y-186385771D01*
X186791485Y-186385771D01*
X186648628Y-186314342D01*
X186577200Y-186242914D01*
X186505771Y-186100057D01*
X186505771Y-185671485D01*
X186577200Y-185528628D01*
X186648628Y-185457200D01*
X186791485Y-185385771D01*
X187077200Y-185385771D01*
X187220057Y-185457200D01*
X187934342Y-186385771D02*
X187934342Y-185385771D01*
X187934342Y-184885771D02*
X187862914Y-184957200D01*
X187934342Y-185028628D01*
X188005771Y-184957200D01*
X187934342Y-184885771D01*
X187934342Y-185028628D01*
X188434342Y-185385771D02*
X189005771Y-185385771D01*
X188648628Y-184885771D02*
X188648628Y-186171485D01*
X188720057Y-186314342D01*
X188862914Y-186385771D01*
X189005771Y-186385771D01*
X190148628Y-186385771D02*
X190148628Y-185600057D01*
X190077200Y-185457200D01*
X189934342Y-185385771D01*
X189648628Y-185385771D01*
X189505771Y-185457200D01*
X190148628Y-186314342D02*
X190005771Y-186385771D01*
X189648628Y-186385771D01*
X189505771Y-186314342D01*
X189434342Y-186171485D01*
X189434342Y-186028628D01*
X189505771Y-185885771D01*
X189648628Y-185814342D01*
X190005771Y-185814342D01*
X190148628Y-185742914D01*
X191077200Y-186385771D02*
X190934342Y-186314342D01*
X190862914Y-186171485D01*
X190862914Y-184885771D01*
X191648628Y-185814342D02*
X192791485Y-185814342D01*
X194362914Y-186242914D02*
X194291485Y-186314342D01*
X194077200Y-186385771D01*
X193934342Y-186385771D01*
X193720057Y-186314342D01*
X193577200Y-186171485D01*
X193505771Y-186028628D01*
X193434342Y-185742914D01*
X193434342Y-185528628D01*
X193505771Y-185242914D01*
X193577200Y-185100057D01*
X193720057Y-184957200D01*
X193934342Y-184885771D01*
X194077200Y-184885771D01*
X194291485Y-184957200D01*
X194362914Y-185028628D01*
X195220057Y-186385771D02*
X195077200Y-186314342D01*
X195005771Y-186171485D01*
X195005771Y-184885771D01*
X196005771Y-186385771D02*
X195862914Y-186314342D01*
X195791485Y-186242914D01*
X195720057Y-186100057D01*
X195720057Y-185671485D01*
X195791485Y-185528628D01*
X195862914Y-185457200D01*
X196005771Y-185385771D01*
X196220057Y-185385771D01*
X196362914Y-185457200D01*
X196434342Y-185528628D01*
X196505771Y-185671485D01*
X196505771Y-186100057D01*
X196434342Y-186242914D01*
X196362914Y-186314342D01*
X196220057Y-186385771D01*
X196005771Y-186385771D01*
X197791485Y-186314342D02*
X197648628Y-186385771D01*
X197362914Y-186385771D01*
X197220057Y-186314342D01*
X197148628Y-186242914D01*
X197077200Y-186100057D01*
X197077200Y-185671485D01*
X197148628Y-185528628D01*
X197220057Y-185457200D01*
X197362914Y-185385771D01*
X197648628Y-185385771D01*
X197791485Y-185457200D01*
X198434342Y-186385771D02*
X198434342Y-184885771D01*
X198577200Y-185814342D02*
X199005771Y-186385771D01*
X199005771Y-185385771D02*
X198434342Y-185957200D01*
X199648628Y-186242914D02*
X199720057Y-186314342D01*
X199648628Y-186385771D01*
X199577200Y-186314342D01*
X199648628Y-186242914D01*
X199648628Y-186385771D01*
X200362914Y-186385771D02*
X200362914Y-184885771D01*
X200505771Y-185814342D02*
X200934342Y-186385771D01*
X200934342Y-185385771D02*
X200362914Y-185957200D01*
X201577200Y-186385771D02*
X201577200Y-185385771D01*
X201577200Y-184885771D02*
X201505771Y-184957200D01*
X201577200Y-185028628D01*
X201648628Y-184957200D01*
X201577200Y-184885771D01*
X201577200Y-185028628D01*
X202934342Y-186314342D02*
X202791485Y-186385771D01*
X202505771Y-186385771D01*
X202362914Y-186314342D01*
X202291485Y-186242914D01*
X202220057Y-186100057D01*
X202220057Y-185671485D01*
X202291485Y-185528628D01*
X202362914Y-185457200D01*
X202505771Y-185385771D01*
X202791485Y-185385771D01*
X202934342Y-185457200D01*
X204220057Y-186385771D02*
X204220057Y-185600057D01*
X204148628Y-185457200D01*
X204005771Y-185385771D01*
X203720057Y-185385771D01*
X203577200Y-185457200D01*
X204220057Y-186314342D02*
X204077200Y-186385771D01*
X203720057Y-186385771D01*
X203577200Y-186314342D01*
X203505771Y-186171485D01*
X203505771Y-186028628D01*
X203577200Y-185885771D01*
X203720057Y-185814342D01*
X204077200Y-185814342D01*
X204220057Y-185742914D01*
X205577200Y-186385771D02*
X205577200Y-184885771D01*
X205577200Y-186314342D02*
X205434342Y-186385771D01*
X205148628Y-186385771D01*
X205005771Y-186314342D01*
X204934342Y-186242914D01*
X204862914Y-186100057D01*
X204862914Y-185671485D01*
X204934342Y-185528628D01*
X205005771Y-185457200D01*
X205148628Y-185385771D01*
X205434342Y-185385771D01*
X205577200Y-185457200D01*
X205934342Y-186528628D02*
X207077200Y-186528628D01*
X207434342Y-185385771D02*
X207434342Y-186885771D01*
X207434342Y-185457200D02*
X207577200Y-185385771D01*
X207862914Y-185385771D01*
X208005771Y-185457200D01*
X208077200Y-185528628D01*
X208148628Y-185671485D01*
X208148628Y-186100057D01*
X208077200Y-186242914D01*
X208005771Y-186314342D01*
X207862914Y-186385771D01*
X207577200Y-186385771D01*
X207434342Y-186314342D01*
X209434342Y-186314342D02*
X209291485Y-186385771D01*
X209005771Y-186385771D01*
X208862914Y-186314342D01*
X208791485Y-186242914D01*
X208720057Y-186100057D01*
X208720057Y-185671485D01*
X208791485Y-185528628D01*
X208862914Y-185457200D01*
X209005771Y-185385771D01*
X209291485Y-185385771D01*
X209434342Y-185457200D01*
X210077200Y-186385771D02*
X210077200Y-184885771D01*
X210077200Y-185457200D02*
X210220057Y-185385771D01*
X210505771Y-185385771D01*
X210648628Y-185457200D01*
X210720057Y-185528628D01*
X210791485Y-185671485D01*
X210791485Y-186100057D01*
X210720057Y-186242914D01*
X210648628Y-186314342D01*
X210505771Y-186385771D01*
X210220057Y-186385771D01*
X210077200Y-186314342D01*
D10*
D11*
X177002200Y-181507200D02*
X285002200Y-181507200D01*
D10*
D11*
X178362914Y-183614342D02*
X178577200Y-183685771D01*
X178934342Y-183685771D01*
X179077200Y-183614342D01*
X179148628Y-183542914D01*
X179220057Y-183400057D01*
X179220057Y-183257200D01*
X179148628Y-183114342D01*
X179077200Y-183042914D01*
X178934342Y-182971485D01*
X178648628Y-182900057D01*
X178505771Y-182828628D01*
X178434342Y-182757200D01*
X178362914Y-182614342D01*
X178362914Y-182471485D01*
X178434342Y-182328628D01*
X178505771Y-182257200D01*
X178648628Y-182185771D01*
X179005771Y-182185771D01*
X179220057Y-182257200D01*
X179862914Y-183685771D02*
X179862914Y-182185771D01*
X180505771Y-183685771D02*
X180505771Y-182900057D01*
X180434342Y-182757200D01*
X180291485Y-182685771D01*
X180077200Y-182685771D01*
X179934342Y-182757200D01*
X179862914Y-182828628D01*
X181791485Y-183614342D02*
X181648628Y-183685771D01*
X181362914Y-183685771D01*
X181220057Y-183614342D01*
X181148628Y-183471485D01*
X181148628Y-182900057D01*
X181220057Y-182757200D01*
X181362914Y-182685771D01*
X181648628Y-182685771D01*
X181791485Y-182757200D01*
X181862914Y-182900057D01*
X181862914Y-183042914D01*
X181148628Y-183185771D01*
X183077200Y-183614342D02*
X182934342Y-183685771D01*
X182648628Y-183685771D01*
X182505771Y-183614342D01*
X182434342Y-183471485D01*
X182434342Y-182900057D01*
X182505771Y-182757200D01*
X182648628Y-182685771D01*
X182934342Y-182685771D01*
X183077200Y-182757200D01*
X183148628Y-182900057D01*
X183148628Y-183042914D01*
X182434342Y-183185771D01*
X183577200Y-182685771D02*
X184148628Y-182685771D01*
X183791485Y-182185771D02*
X183791485Y-183471485D01*
X183862914Y-183614342D01*
X184005771Y-183685771D01*
X184148628Y-183685771D01*
X184648628Y-183542914D02*
X184720057Y-183614342D01*
X184648628Y-183685771D01*
X184577200Y-183614342D01*
X184648628Y-183542914D01*
X184648628Y-183685771D01*
X184648628Y-182757200D02*
X184720057Y-182828628D01*
X184648628Y-182900057D01*
X184577200Y-182828628D01*
X184648628Y-182757200D01*
X184648628Y-182900057D01*
D10*
D12*
D10*
D11*
D10*
D11*
D10*
D11*
D10*
D11*
D10*
D11*
X197002200Y-191507200D02*
X197002200Y-194507200D01*
D10*
D11*
X261002200Y-191507200D02*
X261002200Y-198007200D01*
D14*
X22225000Y-33655000D02*
X22225000Y-133350000D01*
X22225000Y-151765000D02*
X201295000Y-151765000D01*
X22225000Y-31750000D02*
X22225000Y-33655000D01*
X201295000Y-41910000D02*
X201295000Y-31750000D01*
X22225000Y-133350000D02*
X22225000Y-151765000D01*
X201295000Y-31750000D02*
X22225000Y-31750000D01*
X201295000Y-151765000D02*
X201295000Y-41910000D01*
X22225000Y-33655000D02*
X22225000Y-133350000D01*
X22225000Y-151765000D02*
X201295000Y-151765000D01*
X22225000Y-31750000D02*
X22225000Y-33655000D01*
X201295000Y-41910000D02*
X201295000Y-31750000D01*
X22225000Y-133350000D02*
X22225000Y-151765000D01*
X201295000Y-31750000D02*
X22225000Y-31750000D01*
X201295000Y-151765000D02*
X201295000Y-41910000D01*
D15*
X148590000Y-52705000D03*
D16*
X151130000Y-52705000D03*
X153670000Y-52705000D03*
X156210000Y-52705000D03*
X158750000Y-52705000D03*
X158750000Y-37465000D03*
X156210000Y-37465000D03*
X153670000Y-37465000D03*
X151130000Y-37465000D03*
X148590000Y-37465000D03*
D15*
X135255000Y-52705000D03*
D16*
X137795000Y-52705000D03*
X140335000Y-52705000D03*
X142875000Y-52705000D03*
X145415000Y-52705000D03*
X145415000Y-37465000D03*
X142875000Y-37465000D03*
X140335000Y-37465000D03*
X137795000Y-37465000D03*
X135255000Y-37465000D03*
D15*
X117475000Y-52705000D03*
D16*
X120015000Y-52705000D03*
X122555000Y-52705000D03*
X125095000Y-52705000D03*
X127635000Y-52705000D03*
X127635000Y-37465000D03*
X125095000Y-37465000D03*
X122555000Y-37465000D03*
X120015000Y-37465000D03*
X117475000Y-37465000D03*
D15*
X104140000Y-52705000D03*
D16*
X106680000Y-52705000D03*
X109220000Y-52705000D03*
X111760000Y-52705000D03*
X114300000Y-52705000D03*
X114300000Y-37465000D03*
X111760000Y-37465000D03*
X109220000Y-37465000D03*
X106680000Y-37465000D03*
X104140000Y-37465000D03*
D17*
X94615000Y-134620000D03*
D18*
X94615000Y-137120000D03*
D17*
X85725000Y-134620000D03*
D18*
X85725000Y-137120000D03*
D17*
X102235000Y-134620000D03*
D19*
X102235000Y-142240000D03*
D17*
X78105000Y-134620000D03*
D19*
X78105000Y-142240000D03*
D20*
X95250000Y-40005000D03*
D21*
X97790000Y-40005000D03*
D22*
X97790000Y-50165000D03*
D21*
X95250000Y-50165000D03*
D18*
X173990000Y-137795000D03*
D19*
X173990000Y-127635000D03*
D18*
X155575000Y-137795000D03*
D19*
X155575000Y-127635000D03*
D18*
X114935000Y-142240000D03*
D19*
X114935000Y-132080000D03*
D18*
X109220000Y-132080000D03*
D19*
X109220000Y-142240000D03*
D18*
X71755000Y-142240000D03*
D19*
X71755000Y-132080000D03*
D18*
X66040000Y-132080000D03*
D19*
X66040000Y-142240000D03*
D18*
X175895000Y-66675000D03*
D19*
X175895000Y-76835000D03*
D18*
X179705000Y-66675000D03*
D19*
X179705000Y-76835000D03*
D18*
X183515000Y-66675000D03*
D19*
X183515000Y-76835000D03*
D18*
X187325000Y-66675000D03*
D19*
X187325000Y-76835000D03*
D18*
X191135000Y-66675000D03*
D19*
X191135000Y-76835000D03*
D18*
X168275000Y-66675000D03*
D19*
X168275000Y-76835000D03*
D18*
X163830000Y-66675000D03*
D19*
X163830000Y-76835000D03*
D18*
X140970000Y-66675000D03*
D19*
X140970000Y-76835000D03*
D18*
X121285000Y-66675000D03*
D19*
X121285000Y-76835000D03*
D18*
X125095000Y-66675000D03*
D19*
X125095000Y-76835000D03*
D18*
X128905000Y-66675000D03*
D19*
X128905000Y-76835000D03*
D18*
X132715000Y-66675000D03*
D19*
X132715000Y-76835000D03*
D18*
X136525000Y-66675000D03*
D19*
X136525000Y-76835000D03*
D18*
X113665000Y-66675000D03*
D19*
X113665000Y-76835000D03*
D18*
X117475000Y-66675000D03*
D19*
X117475000Y-76835000D03*
D18*
X92710000Y-66675000D03*
D19*
X92710000Y-76835000D03*
D18*
X96520000Y-66675000D03*
D19*
X96520000Y-76835000D03*
D18*
X100330000Y-66675000D03*
D19*
X100330000Y-76835000D03*
D18*
X104140000Y-66675000D03*
D19*
X104140000Y-76835000D03*
D18*
X85090000Y-66675000D03*
D19*
X85090000Y-76835000D03*
D18*
X88900000Y-66675000D03*
D19*
X88900000Y-76835000D03*
D18*
X34290000Y-66422749D03*
D19*
X34290000Y-76582749D03*
D23*
X88265000Y-61595000D03*
D24*
X86995000Y-60325000D03*
X88265000Y-59055000D03*
D17*
X168275000Y-115000000D03*
D19*
X165735000Y-115000000D03*
X163195000Y-115000000D03*
X160655000Y-115000000D03*
X158115000Y-115000000D03*
X155575000Y-115000000D03*
X153035000Y-115000000D03*
X150495000Y-115000000D03*
X150495000Y-122620000D03*
X153035000Y-122620000D03*
X155575000Y-122620000D03*
X158115000Y-122620000D03*
X160655000Y-122620000D03*
X163195000Y-122620000D03*
X165735000Y-122620000D03*
X168275000Y-122620000D03*
D17*
X193040000Y-115000000D03*
D19*
X190500000Y-115000000D03*
X187960000Y-115000000D03*
X185420000Y-115000000D03*
X182880000Y-115000000D03*
X180340000Y-115000000D03*
X177800000Y-115000000D03*
X177800000Y-122620000D03*
X180340000Y-122620000D03*
X182880000Y-122620000D03*
X185420000Y-122620000D03*
X187960000Y-122620000D03*
X190500000Y-122620000D03*
X193040000Y-122620000D03*
D17*
X193040000Y-100330000D03*
D19*
X190500000Y-100330000D03*
X187960000Y-100330000D03*
X185420000Y-100330000D03*
X182880000Y-100330000D03*
X180340000Y-100330000D03*
X177800000Y-100330000D03*
X177800000Y-107950000D03*
X180340000Y-107950000D03*
X182880000Y-107950000D03*
X185420000Y-107950000D03*
X187960000Y-107950000D03*
X190500000Y-107950000D03*
X193040000Y-107950000D03*
D25*
X175260000Y-91440000D03*
D19*
X177800000Y-91440000D03*
X180340000Y-91440000D03*
X182880000Y-91440000D03*
X185420000Y-91440000D03*
X187960000Y-91440000D03*
X190500000Y-91440000D03*
X193040000Y-91440000D03*
X193040000Y-83820000D03*
X190500000Y-83820000D03*
X187960000Y-83820000D03*
X185420000Y-83820000D03*
X182880000Y-83820000D03*
X180340000Y-83820000D03*
X177800000Y-83820000D03*
X175260000Y-83820000D03*
D17*
X137795000Y-100330000D03*
D19*
X135255000Y-100330000D03*
X132715000Y-100330000D03*
X130175000Y-100330000D03*
X127635000Y-100330000D03*
X125095000Y-100330000D03*
X122555000Y-100330000D03*
X122555000Y-107950000D03*
X125095000Y-107950000D03*
X127635000Y-107950000D03*
X130175000Y-107950000D03*
X132715000Y-107950000D03*
X135255000Y-107950000D03*
X137795000Y-107950000D03*
D25*
X120650000Y-91440000D03*
D19*
X123190000Y-91440000D03*
X125730000Y-91440000D03*
X128270000Y-91440000D03*
X130810000Y-91440000D03*
X133350000Y-91440000D03*
X135890000Y-91440000D03*
X138430000Y-91440000D03*
X138430000Y-83820000D03*
X135890000Y-83820000D03*
X133350000Y-83820000D03*
X130810000Y-83820000D03*
X128270000Y-83820000D03*
X125730000Y-83820000D03*
X123190000Y-83820000D03*
X120650000Y-83820000D03*
D17*
X109220000Y-100330000D03*
D19*
X106680000Y-100330000D03*
X104140000Y-100330000D03*
X101600000Y-100330000D03*
X99060000Y-100330000D03*
X96520000Y-100330000D03*
X93980000Y-100330000D03*
X93980000Y-107950000D03*
X96520000Y-107950000D03*
X99060000Y-107950000D03*
X101600000Y-107950000D03*
X104140000Y-107950000D03*
X106680000Y-107950000D03*
X109220000Y-107950000D03*
D25*
X92075000Y-91440000D03*
D19*
X94615000Y-91440000D03*
X97155000Y-91440000D03*
X99695000Y-91440000D03*
X102235000Y-91440000D03*
X104775000Y-91440000D03*
X107315000Y-91440000D03*
X109855000Y-91440000D03*
X109855000Y-83820000D03*
X107315000Y-83820000D03*
X104775000Y-83820000D03*
X102235000Y-83820000D03*
X99695000Y-83820000D03*
X97155000Y-83820000D03*
X94615000Y-83820000D03*
X92075000Y-83820000D03*
D25*
X37465000Y-91440000D03*
D19*
X40005000Y-91440000D03*
X42545000Y-91440000D03*
X45085000Y-91440000D03*
X47625000Y-91440000D03*
X50165000Y-91440000D03*
X52705000Y-91440000D03*
X55245000Y-91440000D03*
X55245000Y-83820000D03*
X52705000Y-83820000D03*
X50165000Y-83820000D03*
X47625000Y-83820000D03*
X45085000Y-83820000D03*
X42545000Y-83820000D03*
X40005000Y-83820000D03*
X37465000Y-83820000D03*
D17*
X109220000Y-115000000D03*
D19*
X106680000Y-115000000D03*
X104140000Y-115000000D03*
X101600000Y-115000000D03*
X99060000Y-115000000D03*
X96520000Y-115000000D03*
X93980000Y-115000000D03*
X93980000Y-122620000D03*
X96520000Y-122620000D03*
X99060000Y-122620000D03*
X101600000Y-122620000D03*
X104140000Y-122620000D03*
X106680000Y-122620000D03*
X109220000Y-122620000D03*
D17*
X137795000Y-115000000D03*
D19*
X135255000Y-115000000D03*
X132715000Y-115000000D03*
X130175000Y-115000000D03*
X127635000Y-115000000D03*
X125095000Y-115000000D03*
X122555000Y-115000000D03*
X122555000Y-122620000D03*
X125095000Y-122620000D03*
X127635000Y-122620000D03*
X130175000Y-122620000D03*
X132715000Y-122620000D03*
X135255000Y-122620000D03*
X137795000Y-122620000D03*
D17*
X143256000Y-130048000D03*
D19*
X140716000Y-130048000D03*
X138176000Y-130048000D03*
X135636000Y-130048000D03*
X133096000Y-130048000D03*
X130556000Y-130048000D03*
X128016000Y-130048000D03*
X128016000Y-137668000D03*
X130556000Y-137668000D03*
X133096000Y-137668000D03*
X135636000Y-137668000D03*
X138176000Y-137668000D03*
X140716000Y-137668000D03*
X143256000Y-137668000D03*
D18*
X39965000Y-95885000D03*
X37465000Y-95885000D03*
X173355000Y-122535000D03*
X173355000Y-120035000D03*
X68560000Y-95885000D03*
X66060000Y-95885000D03*
X59690000Y-83820000D03*
X59690000Y-86320000D03*
X182860000Y-95885000D03*
X180360000Y-95885000D03*
X125075000Y-95885000D03*
X122575000Y-95885000D03*
X86995000Y-83820000D03*
X86995000Y-86320000D03*
X31750000Y-83820000D03*
X31750000Y-86320000D03*
X116840000Y-117348000D03*
X116840000Y-114848000D03*
X87884000Y-117348000D03*
X87884000Y-114848000D03*
X114935000Y-83820000D03*
X114935000Y-86320000D03*
X197485000Y-122515000D03*
X197485000Y-120015000D03*
X96480000Y-95885000D03*
X93980000Y-95885000D03*
X123190000Y-127635000D03*
X123190000Y-130135000D03*
X143510000Y-83820000D03*
X143510000Y-86320000D03*
X170815000Y-83820000D03*
X170815000Y-86320000D03*
D26*
X41200000Y-142080000D03*
X47700000Y-142080000D03*
X41200000Y-146580000D03*
X47700000Y-146580000D03*
X52705000Y-142080000D03*
X59205000Y-142080000D03*
X59205000Y-146580000D03*
X52705000Y-146580000D03*
D17*
X78740000Y-100330000D03*
D19*
X76200000Y-100330000D03*
X73660000Y-100330000D03*
X71120000Y-100330000D03*
X68580000Y-100330000D03*
X66040000Y-100330000D03*
X63500000Y-100330000D03*
X63500000Y-107950000D03*
X66040000Y-107950000D03*
X68580000Y-107950000D03*
X71120000Y-107950000D03*
X73660000Y-107950000D03*
X76200000Y-107950000D03*
X78740000Y-107950000D03*
D17*
X52705000Y-100330000D03*
D19*
X50165000Y-100330000D03*
X47625000Y-100330000D03*
X45085000Y-100330000D03*
X42545000Y-100330000D03*
X40005000Y-100330000D03*
X37465000Y-100330000D03*
X37465000Y-107950000D03*
X40005000Y-107950000D03*
X42545000Y-107950000D03*
X45085000Y-107950000D03*
X47625000Y-107950000D03*
X50165000Y-107950000D03*
X52705000Y-107950000D03*
D25*
X63500000Y-91440000D03*
D19*
X66040000Y-91440000D03*
X68580000Y-91440000D03*
X71120000Y-91440000D03*
X73660000Y-91440000D03*
X76200000Y-91440000D03*
X78740000Y-91440000D03*
X81280000Y-91440000D03*
X81280000Y-83820000D03*
X78740000Y-83820000D03*
X76200000Y-83820000D03*
X73660000Y-83820000D03*
X71120000Y-83820000D03*
X68580000Y-83820000D03*
X66040000Y-83820000D03*
X63500000Y-83820000D03*
D18*
X80645000Y-66422749D03*
D19*
X80645000Y-76582749D03*
D18*
X65405000Y-66422749D03*
D19*
X65405000Y-76582749D03*
D18*
X73025000Y-66422749D03*
D19*
X73025000Y-76582749D03*
D18*
X69215000Y-66422749D03*
D19*
X69215000Y-76582749D03*
D18*
X76835000Y-66422749D03*
D19*
X76835000Y-76582749D03*
D18*
X45720000Y-66422749D03*
D19*
X45720000Y-76582749D03*
D18*
X57785000Y-66422749D03*
D19*
X57785000Y-76582749D03*
D18*
X38100000Y-66422749D03*
D19*
X38100000Y-76582749D03*
D18*
X49530000Y-66422749D03*
D19*
X49530000Y-76582749D03*
D18*
X53340000Y-66422749D03*
D19*
X53340000Y-76582749D03*
D18*
X41910000Y-66422749D03*
D19*
X41910000Y-76582749D03*
D18*
X61595000Y-66422749D03*
D19*
X61595000Y-76582749D03*
D18*
X30480000Y-66422749D03*
D19*
X30480000Y-76582749D03*
D15*
X78740000Y-52705000D03*
D16*
X81280000Y-52705000D03*
X83820000Y-52705000D03*
X86360000Y-52705000D03*
X88900000Y-52705000D03*
X88900000Y-37465000D03*
X86360000Y-37465000D03*
X83820000Y-37465000D03*
X81280000Y-37465000D03*
X78740000Y-37465000D03*
D15*
X65405000Y-52705000D03*
D16*
X67945000Y-52705000D03*
X70485000Y-52705000D03*
X73025000Y-52705000D03*
X75565000Y-52705000D03*
X75565000Y-37465000D03*
X73025000Y-37465000D03*
X70485000Y-37465000D03*
X67945000Y-37465000D03*
X65405000Y-37465000D03*
D18*
X172085000Y-66675000D03*
D19*
X172085000Y-76835000D03*
D18*
X107950000Y-66675000D03*
D19*
X107950000Y-76835000D03*
D18*
X151110000Y-95885000D03*
X148610000Y-95885000D03*
X148590000Y-66675000D03*
D19*
X148590000Y-76835000D03*
D18*
X152400000Y-66675000D03*
D19*
X152400000Y-76835000D03*
D18*
X156210000Y-66675000D03*
D19*
X156210000Y-76835000D03*
D18*
X160020000Y-66675000D03*
D19*
X160020000Y-76835000D03*
D18*
X144780000Y-66675000D03*
D19*
X144780000Y-76835000D03*
D17*
X163830000Y-100330000D03*
D19*
X161290000Y-100330000D03*
X158750000Y-100330000D03*
X156210000Y-100330000D03*
X153670000Y-100330000D03*
X151130000Y-100330000D03*
X148590000Y-100330000D03*
X148590000Y-107950000D03*
X151130000Y-107950000D03*
X153670000Y-107950000D03*
X156210000Y-107950000D03*
X158750000Y-107950000D03*
X161290000Y-107950000D03*
X163830000Y-107950000D03*
D25*
X147955000Y-91440000D03*
D19*
X150495000Y-91440000D03*
X153035000Y-91440000D03*
X155575000Y-91440000D03*
X158115000Y-91440000D03*
X160655000Y-91440000D03*
X163195000Y-91440000D03*
X165735000Y-91440000D03*
X165735000Y-83820000D03*
X163195000Y-83820000D03*
X160655000Y-83820000D03*
X158115000Y-83820000D03*
X155575000Y-83820000D03*
X153035000Y-83820000D03*
X150495000Y-83820000D03*
X147955000Y-83820000D03*
D18*
X25925000Y-127635000D03*
D27*
X34925000Y-127635000D03*
D28*
X28925000Y-127635000D03*
D29*
X27925000Y-123135000D03*
X27925000Y-132135000D03*
D25*
X45085000Y-130175000D03*
D18*
X45085000Y-127675000D03*
X168910000Y-133350000D03*
X168910000Y-130850000D03*
X160655000Y-133350000D03*
X160655000Y-130850000D03*
D30*
X163830000Y-133350000D03*
X165330000Y-133350000D03*
D18*
X92075000Y-60325000D03*
D19*
X102235000Y-60325000D03*
D31*
X31750000Y-142240000D03*
X191770000Y-41275000D03*
X31750000Y-41275000D03*
X191770000Y-142240000D03*
G36*
X87585433Y-60697625D02*
G01*
X87585342Y-60699448D01*
X87580837Y-60707251D01*
X87564437Y-60774851D01*
X87587089Y-60840299D01*
X87641608Y-60883175D01*
X87687585Y-60892036D01*
X87689097Y-60893346D01*
X87688719Y-60895310D01*
X87687207Y-60896000D01*
X87615199Y-60896000D01*
X87596262Y-60899767D01*
X87580380Y-60910380D01*
X87569767Y-60926262D01*
X87566000Y-60945199D01*
X87566000Y-61017812D01*
X87565000Y-61019544D01*
X87563000Y-61019544D01*
X87562081Y-61018375D01*
X87542404Y-60951360D01*
X87490061Y-60906005D01*
X87421462Y-60896142D01*
X87375996Y-60914595D01*
X87374015Y-60914320D01*
X87373263Y-60912467D01*
X87374345Y-60910955D01*
X87381813Y-60907199D01*
X87509522Y-60798125D01*
X87581986Y-60697281D01*
X87583809Y-60696458D01*
X87585433Y-60697625D01*
G37*
M02*
