G04 #@! TF.GenerationSoftware,KiCad,Pcbnew,(6.0.8)*
G04 #@! TF.CreationDate,2022-10-20T20:27:47+05:30*
G04 #@! TF.ProjectId,Digital-Clock,44696769-7461-46c2-9d43-6c6f636b2e6b,rev?*
G04 #@! TF.SameCoordinates,Original*
G04 #@! TF.FileFunction,Legend,Top*
G04 #@! TF.FilePolarity,Positive*
%FSLAX46Y46*%
G04 Gerber Fmt 4.6, Leading zero omitted, Abs format (unit mm)*
G04 Created by KiCad (PCBNEW (6.0.8)) date 2022-10-20 20:27:47*
%MOMM*%
%LPD*%
G01*
G04 APERTURE LIST*
%ADD10C,0.100000*%
%ADD11C,0.150000*%
%ADD12C,0.300000*%
%ADD13C,0.400000*%
G04 #@! TA.AperFunction,Profile*
%ADD14C,0.050000*%
G04 #@! TD*
%ADD15C,0.120000*%
G04 APERTURE END LIST*
D10*
D11*
X177002200Y-166007200D02*
X177002200Y-198007200D01*
X285002200Y-198007200D01*
X285002200Y-166007200D01*
X177002200Y-166007200D01*
D10*
D11*
X10000000Y-10000000D02*
X10000000Y-200007200D01*
X287002200Y-200007200D01*
X287002200Y-10000000D01*
X10000000Y-10000000D01*
D10*
D11*
X12000000Y-12000000D02*
X12000000Y-198007200D01*
X285002200Y-198007200D01*
X285002200Y-12000000D01*
X12000000Y-12000000D01*
D10*
D11*
X60000000Y-12000000D02*
X60000000Y-10000000D01*
D10*
D11*
X110000000Y-12000000D02*
X110000000Y-10000000D01*
D10*
D11*
X160000000Y-12000000D02*
X160000000Y-10000000D01*
D10*
D11*
X210000000Y-12000000D02*
X210000000Y-10000000D01*
D10*
D11*
X260000000Y-12000000D02*
X260000000Y-10000000D01*
D10*
D11*
X36065476Y-11588095D02*
X35322619Y-11588095D01*
X35694047Y-11588095D02*
X35694047Y-10288095D01*
X35570238Y-10473809D01*
X35446428Y-10597619D01*
X35322619Y-10659523D01*
D10*
D11*
X85322619Y-10411904D02*
X85384523Y-10350000D01*
X85508333Y-10288095D01*
X85817857Y-10288095D01*
X85941666Y-10350000D01*
X86003571Y-10411904D01*
X86065476Y-10535714D01*
X86065476Y-10659523D01*
X86003571Y-10845238D01*
X85260714Y-11588095D01*
X86065476Y-11588095D01*
D10*
D11*
X135260714Y-10288095D02*
X136065476Y-10288095D01*
X135632142Y-10783333D01*
X135817857Y-10783333D01*
X135941666Y-10845238D01*
X136003571Y-10907142D01*
X136065476Y-11030952D01*
X136065476Y-11340476D01*
X136003571Y-11464285D01*
X135941666Y-11526190D01*
X135817857Y-11588095D01*
X135446428Y-11588095D01*
X135322619Y-11526190D01*
X135260714Y-11464285D01*
D10*
D11*
X185941666Y-10721428D02*
X185941666Y-11588095D01*
X185632142Y-10226190D02*
X185322619Y-11154761D01*
X186127380Y-11154761D01*
D10*
D11*
X236003571Y-10288095D02*
X235384523Y-10288095D01*
X235322619Y-10907142D01*
X235384523Y-10845238D01*
X235508333Y-10783333D01*
X235817857Y-10783333D01*
X235941666Y-10845238D01*
X236003571Y-10907142D01*
X236065476Y-11030952D01*
X236065476Y-11340476D01*
X236003571Y-11464285D01*
X235941666Y-11526190D01*
X235817857Y-11588095D01*
X235508333Y-11588095D01*
X235384523Y-11526190D01*
X235322619Y-11464285D01*
D10*
D11*
X285941666Y-10288095D02*
X285694047Y-10288095D01*
X285570238Y-10350000D01*
X285508333Y-10411904D01*
X285384523Y-10597619D01*
X285322619Y-10845238D01*
X285322619Y-11340476D01*
X285384523Y-11464285D01*
X285446428Y-11526190D01*
X285570238Y-11588095D01*
X285817857Y-11588095D01*
X285941666Y-11526190D01*
X286003571Y-11464285D01*
X286065476Y-11340476D01*
X286065476Y-11030952D01*
X286003571Y-10907142D01*
X285941666Y-10845238D01*
X285817857Y-10783333D01*
X285570238Y-10783333D01*
X285446428Y-10845238D01*
X285384523Y-10907142D01*
X285322619Y-11030952D01*
D10*
D11*
X60000000Y-198007200D02*
X60000000Y-200007200D01*
D10*
D11*
X110000000Y-198007200D02*
X110000000Y-200007200D01*
D10*
D11*
X160000000Y-198007200D02*
X160000000Y-200007200D01*
D10*
D11*
X210000000Y-198007200D02*
X210000000Y-200007200D01*
D10*
D11*
X260000000Y-198007200D02*
X260000000Y-200007200D01*
D10*
D11*
X36065476Y-199595295D02*
X35322619Y-199595295D01*
X35694047Y-199595295D02*
X35694047Y-198295295D01*
X35570238Y-198481009D01*
X35446428Y-198604819D01*
X35322619Y-198666723D01*
D10*
D11*
X85322619Y-198419104D02*
X85384523Y-198357200D01*
X85508333Y-198295295D01*
X85817857Y-198295295D01*
X85941666Y-198357200D01*
X86003571Y-198419104D01*
X86065476Y-198542914D01*
X86065476Y-198666723D01*
X86003571Y-198852438D01*
X85260714Y-199595295D01*
X86065476Y-199595295D01*
D10*
D11*
X135260714Y-198295295D02*
X136065476Y-198295295D01*
X135632142Y-198790533D01*
X135817857Y-198790533D01*
X135941666Y-198852438D01*
X136003571Y-198914342D01*
X136065476Y-199038152D01*
X136065476Y-199347676D01*
X136003571Y-199471485D01*
X135941666Y-199533390D01*
X135817857Y-199595295D01*
X135446428Y-199595295D01*
X135322619Y-199533390D01*
X135260714Y-199471485D01*
D10*
D11*
X185941666Y-198728628D02*
X185941666Y-199595295D01*
X185632142Y-198233390D02*
X185322619Y-199161961D01*
X186127380Y-199161961D01*
D10*
D11*
X236003571Y-198295295D02*
X235384523Y-198295295D01*
X235322619Y-198914342D01*
X235384523Y-198852438D01*
X235508333Y-198790533D01*
X235817857Y-198790533D01*
X235941666Y-198852438D01*
X236003571Y-198914342D01*
X236065476Y-199038152D01*
X236065476Y-199347676D01*
X236003571Y-199471485D01*
X235941666Y-199533390D01*
X235817857Y-199595295D01*
X235508333Y-199595295D01*
X235384523Y-199533390D01*
X235322619Y-199471485D01*
D10*
D11*
X285941666Y-198295295D02*
X285694047Y-198295295D01*
X285570238Y-198357200D01*
X285508333Y-198419104D01*
X285384523Y-198604819D01*
X285322619Y-198852438D01*
X285322619Y-199347676D01*
X285384523Y-199471485D01*
X285446428Y-199533390D01*
X285570238Y-199595295D01*
X285817857Y-199595295D01*
X285941666Y-199533390D01*
X286003571Y-199471485D01*
X286065476Y-199347676D01*
X286065476Y-199038152D01*
X286003571Y-198914342D01*
X285941666Y-198852438D01*
X285817857Y-198790533D01*
X285570238Y-198790533D01*
X285446428Y-198852438D01*
X285384523Y-198914342D01*
X285322619Y-199038152D01*
D10*
D11*
X10000000Y-60000000D02*
X12000000Y-60000000D01*
D10*
D11*
X10000000Y-110000000D02*
X12000000Y-110000000D01*
D10*
D11*
X10000000Y-160000000D02*
X12000000Y-160000000D01*
D10*
D11*
X10690476Y-35216666D02*
X11309523Y-35216666D01*
X10566666Y-35588095D02*
X11000000Y-34288095D01*
X11433333Y-35588095D01*
D10*
D11*
X11092857Y-84907142D02*
X11278571Y-84969047D01*
X11340476Y-85030952D01*
X11402380Y-85154761D01*
X11402380Y-85340476D01*
X11340476Y-85464285D01*
X11278571Y-85526190D01*
X11154761Y-85588095D01*
X10659523Y-85588095D01*
X10659523Y-84288095D01*
X11092857Y-84288095D01*
X11216666Y-84350000D01*
X11278571Y-84411904D01*
X11340476Y-84535714D01*
X11340476Y-84659523D01*
X11278571Y-84783333D01*
X11216666Y-84845238D01*
X11092857Y-84907142D01*
X10659523Y-84907142D01*
D10*
D11*
X11402380Y-135464285D02*
X11340476Y-135526190D01*
X11154761Y-135588095D01*
X11030952Y-135588095D01*
X10845238Y-135526190D01*
X10721428Y-135402380D01*
X10659523Y-135278571D01*
X10597619Y-135030952D01*
X10597619Y-134845238D01*
X10659523Y-134597619D01*
X10721428Y-134473809D01*
X10845238Y-134350000D01*
X11030952Y-134288095D01*
X11154761Y-134288095D01*
X11340476Y-134350000D01*
X11402380Y-134411904D01*
D10*
D11*
X10659523Y-185588095D02*
X10659523Y-184288095D01*
X10969047Y-184288095D01*
X11154761Y-184350000D01*
X11278571Y-184473809D01*
X11340476Y-184597619D01*
X11402380Y-184845238D01*
X11402380Y-185030952D01*
X11340476Y-185278571D01*
X11278571Y-185402380D01*
X11154761Y-185526190D01*
X10969047Y-185588095D01*
X10659523Y-185588095D01*
D10*
D11*
X287002200Y-60000000D02*
X285002200Y-60000000D01*
D10*
D11*
X287002200Y-110000000D02*
X285002200Y-110000000D01*
D10*
D11*
X287002200Y-160000000D02*
X285002200Y-160000000D01*
D10*
D11*
X285692676Y-35216666D02*
X286311723Y-35216666D01*
X285568866Y-35588095D02*
X286002200Y-34288095D01*
X286435533Y-35588095D01*
D10*
D11*
X286095057Y-84907142D02*
X286280771Y-84969047D01*
X286342676Y-85030952D01*
X286404580Y-85154761D01*
X286404580Y-85340476D01*
X286342676Y-85464285D01*
X286280771Y-85526190D01*
X286156961Y-85588095D01*
X285661723Y-85588095D01*
X285661723Y-84288095D01*
X286095057Y-84288095D01*
X286218866Y-84350000D01*
X286280771Y-84411904D01*
X286342676Y-84535714D01*
X286342676Y-84659523D01*
X286280771Y-84783333D01*
X286218866Y-84845238D01*
X286095057Y-84907142D01*
X285661723Y-84907142D01*
D10*
D11*
X286404580Y-135464285D02*
X286342676Y-135526190D01*
X286156961Y-135588095D01*
X286033152Y-135588095D01*
X285847438Y-135526190D01*
X285723628Y-135402380D01*
X285661723Y-135278571D01*
X285599819Y-135030952D01*
X285599819Y-134845238D01*
X285661723Y-134597619D01*
X285723628Y-134473809D01*
X285847438Y-134350000D01*
X286033152Y-134288095D01*
X286156961Y-134288095D01*
X286342676Y-134350000D01*
X286404580Y-134411904D01*
D10*
D11*
X285661723Y-185588095D02*
X285661723Y-184288095D01*
X285971247Y-184288095D01*
X286156961Y-184350000D01*
X286280771Y-184473809D01*
X286342676Y-184597619D01*
X286404580Y-184845238D01*
X286404580Y-185030952D01*
X286342676Y-185278571D01*
X286280771Y-185402380D01*
X286156961Y-185526190D01*
X285971247Y-185588095D01*
X285661723Y-185588095D01*
D10*
D11*
X200434342Y-193785771D02*
X200434342Y-192285771D01*
X200791485Y-192285771D01*
X201005771Y-192357200D01*
X201148628Y-192500057D01*
X201220057Y-192642914D01*
X201291485Y-192928628D01*
X201291485Y-193142914D01*
X201220057Y-193428628D01*
X201148628Y-193571485D01*
X201005771Y-193714342D01*
X200791485Y-193785771D01*
X200434342Y-193785771D01*
X202577200Y-193785771D02*
X202577200Y-193000057D01*
X202505771Y-192857200D01*
X202362914Y-192785771D01*
X202077200Y-192785771D01*
X201934342Y-192857200D01*
X202577200Y-193714342D02*
X202434342Y-193785771D01*
X202077200Y-193785771D01*
X201934342Y-193714342D01*
X201862914Y-193571485D01*
X201862914Y-193428628D01*
X201934342Y-193285771D01*
X202077200Y-193214342D01*
X202434342Y-193214342D01*
X202577200Y-193142914D01*
X203077200Y-192785771D02*
X203648628Y-192785771D01*
X203291485Y-192285771D02*
X203291485Y-193571485D01*
X203362914Y-193714342D01*
X203505771Y-193785771D01*
X203648628Y-193785771D01*
X204720057Y-193714342D02*
X204577200Y-193785771D01*
X204291485Y-193785771D01*
X204148628Y-193714342D01*
X204077200Y-193571485D01*
X204077200Y-193000057D01*
X204148628Y-192857200D01*
X204291485Y-192785771D01*
X204577200Y-192785771D01*
X204720057Y-192857200D01*
X204791485Y-193000057D01*
X204791485Y-193142914D01*
X204077200Y-193285771D01*
X205434342Y-193642914D02*
X205505771Y-193714342D01*
X205434342Y-193785771D01*
X205362914Y-193714342D01*
X205434342Y-193642914D01*
X205434342Y-193785771D01*
X205434342Y-192857200D02*
X205505771Y-192928628D01*
X205434342Y-193000057D01*
X205362914Y-192928628D01*
X205434342Y-192857200D01*
X205434342Y-193000057D01*
D10*
D11*
X177002200Y-194507200D02*
X285002200Y-194507200D01*
D10*
D11*
X178434342Y-196585771D02*
X178434342Y-195085771D01*
X179291485Y-196585771D02*
X178648628Y-195728628D01*
X179291485Y-195085771D02*
X178434342Y-195942914D01*
X179934342Y-196585771D02*
X179934342Y-195585771D01*
X179934342Y-195085771D02*
X179862914Y-195157200D01*
X179934342Y-195228628D01*
X180005771Y-195157200D01*
X179934342Y-195085771D01*
X179934342Y-195228628D01*
X181505771Y-196442914D02*
X181434342Y-196514342D01*
X181220057Y-196585771D01*
X181077200Y-196585771D01*
X180862914Y-196514342D01*
X180720057Y-196371485D01*
X180648628Y-196228628D01*
X180577200Y-195942914D01*
X180577200Y-195728628D01*
X180648628Y-195442914D01*
X180720057Y-195300057D01*
X180862914Y-195157200D01*
X181077200Y-195085771D01*
X181220057Y-195085771D01*
X181434342Y-195157200D01*
X181505771Y-195228628D01*
X182791485Y-196585771D02*
X182791485Y-195800057D01*
X182720057Y-195657200D01*
X182577200Y-195585771D01*
X182291485Y-195585771D01*
X182148628Y-195657200D01*
X182791485Y-196514342D02*
X182648628Y-196585771D01*
X182291485Y-196585771D01*
X182148628Y-196514342D01*
X182077200Y-196371485D01*
X182077200Y-196228628D01*
X182148628Y-196085771D01*
X182291485Y-196014342D01*
X182648628Y-196014342D01*
X182791485Y-195942914D01*
X184148628Y-196585771D02*
X184148628Y-195085771D01*
X184148628Y-196514342D02*
X184005771Y-196585771D01*
X183720057Y-196585771D01*
X183577200Y-196514342D01*
X183505771Y-196442914D01*
X183434342Y-196300057D01*
X183434342Y-195871485D01*
X183505771Y-195728628D01*
X183577200Y-195657200D01*
X183720057Y-195585771D01*
X184005771Y-195585771D01*
X184148628Y-195657200D01*
X186005771Y-195800057D02*
X186505771Y-195800057D01*
X186720057Y-196585771D02*
X186005771Y-196585771D01*
X186005771Y-195085771D01*
X186720057Y-195085771D01*
X187362914Y-196442914D02*
X187434342Y-196514342D01*
X187362914Y-196585771D01*
X187291485Y-196514342D01*
X187362914Y-196442914D01*
X187362914Y-196585771D01*
X188077200Y-196585771D02*
X188077200Y-195085771D01*
X188434342Y-195085771D01*
X188648628Y-195157200D01*
X188791485Y-195300057D01*
X188862914Y-195442914D01*
X188934342Y-195728628D01*
X188934342Y-195942914D01*
X188862914Y-196228628D01*
X188791485Y-196371485D01*
X188648628Y-196514342D01*
X188434342Y-196585771D01*
X188077200Y-196585771D01*
X189577200Y-196442914D02*
X189648628Y-196514342D01*
X189577200Y-196585771D01*
X189505771Y-196514342D01*
X189577200Y-196442914D01*
X189577200Y-196585771D01*
X190220057Y-196157200D02*
X190934342Y-196157200D01*
X190077200Y-196585771D02*
X190577200Y-195085771D01*
X191077200Y-196585771D01*
X191577200Y-196442914D02*
X191648628Y-196514342D01*
X191577200Y-196585771D01*
X191505771Y-196514342D01*
X191577200Y-196442914D01*
X191577200Y-196585771D01*
X194577200Y-196585771D02*
X194577200Y-195085771D01*
X194720057Y-196014342D02*
X195148628Y-196585771D01*
X195148628Y-195585771D02*
X194577200Y-196157200D01*
X195791485Y-196585771D02*
X195791485Y-195585771D01*
X195791485Y-195085771D02*
X195720057Y-195157200D01*
X195791485Y-195228628D01*
X195862914Y-195157200D01*
X195791485Y-195085771D01*
X195791485Y-195228628D01*
X197148628Y-196514342D02*
X197005771Y-196585771D01*
X196720057Y-196585771D01*
X196577200Y-196514342D01*
X196505771Y-196442914D01*
X196434342Y-196300057D01*
X196434342Y-195871485D01*
X196505771Y-195728628D01*
X196577200Y-195657200D01*
X196720057Y-195585771D01*
X197005771Y-195585771D01*
X197148628Y-195657200D01*
X198434342Y-196585771D02*
X198434342Y-195800057D01*
X198362914Y-195657200D01*
X198220057Y-195585771D01*
X197934342Y-195585771D01*
X197791485Y-195657200D01*
X198434342Y-196514342D02*
X198291485Y-196585771D01*
X197934342Y-196585771D01*
X197791485Y-196514342D01*
X197720057Y-196371485D01*
X197720057Y-196228628D01*
X197791485Y-196085771D01*
X197934342Y-196014342D01*
X198291485Y-196014342D01*
X198434342Y-195942914D01*
X199791485Y-196585771D02*
X199791485Y-195085771D01*
X199791485Y-196514342D02*
X199648628Y-196585771D01*
X199362914Y-196585771D01*
X199220057Y-196514342D01*
X199148628Y-196442914D01*
X199077200Y-196300057D01*
X199077200Y-195871485D01*
X199148628Y-195728628D01*
X199220057Y-195657200D01*
X199362914Y-195585771D01*
X199648628Y-195585771D01*
X199791485Y-195657200D01*
X202077200Y-197157200D02*
X202005771Y-197085771D01*
X201862914Y-196871485D01*
X201791485Y-196728628D01*
X201720057Y-196514342D01*
X201648628Y-196157200D01*
X201648628Y-195871485D01*
X201720057Y-195514342D01*
X201791485Y-195300057D01*
X201862914Y-195157200D01*
X202005771Y-194942914D01*
X202077200Y-194871485D01*
X203291485Y-195085771D02*
X203005771Y-195085771D01*
X202862914Y-195157200D01*
X202791485Y-195228628D01*
X202648628Y-195442914D01*
X202577200Y-195728628D01*
X202577200Y-196300057D01*
X202648628Y-196442914D01*
X202720057Y-196514342D01*
X202862914Y-196585771D01*
X203148628Y-196585771D01*
X203291485Y-196514342D01*
X203362914Y-196442914D01*
X203434342Y-196300057D01*
X203434342Y-195942914D01*
X203362914Y-195800057D01*
X203291485Y-195728628D01*
X203148628Y-195657200D01*
X202862914Y-195657200D01*
X202720057Y-195728628D01*
X202648628Y-195800057D01*
X202577200Y-195942914D01*
X204077200Y-196442914D02*
X204148628Y-196514342D01*
X204077200Y-196585771D01*
X204005771Y-196514342D01*
X204077200Y-196442914D01*
X204077200Y-196585771D01*
X205077200Y-195085771D02*
X205220057Y-195085771D01*
X205362914Y-195157200D01*
X205434342Y-195228628D01*
X205505771Y-195371485D01*
X205577200Y-195657200D01*
X205577200Y-196014342D01*
X205505771Y-196300057D01*
X205434342Y-196442914D01*
X205362914Y-196514342D01*
X205220057Y-196585771D01*
X205077200Y-196585771D01*
X204934342Y-196514342D01*
X204862914Y-196442914D01*
X204791485Y-196300057D01*
X204720057Y-196014342D01*
X204720057Y-195657200D01*
X204791485Y-195371485D01*
X204862914Y-195228628D01*
X204934342Y-195157200D01*
X205077200Y-195085771D01*
X206220057Y-196442914D02*
X206291485Y-196514342D01*
X206220057Y-196585771D01*
X206148628Y-196514342D01*
X206220057Y-196442914D01*
X206220057Y-196585771D01*
X207148628Y-195728628D02*
X207005771Y-195657200D01*
X206934342Y-195585771D01*
X206862914Y-195442914D01*
X206862914Y-195371485D01*
X206934342Y-195228628D01*
X207005771Y-195157200D01*
X207148628Y-195085771D01*
X207434342Y-195085771D01*
X207577200Y-195157200D01*
X207648628Y-195228628D01*
X207720057Y-195371485D01*
X207720057Y-195442914D01*
X207648628Y-195585771D01*
X207577200Y-195657200D01*
X207434342Y-195728628D01*
X207148628Y-195728628D01*
X207005771Y-195800057D01*
X206934342Y-195871485D01*
X206862914Y-196014342D01*
X206862914Y-196300057D01*
X206934342Y-196442914D01*
X207005771Y-196514342D01*
X207148628Y-196585771D01*
X207434342Y-196585771D01*
X207577200Y-196514342D01*
X207648628Y-196442914D01*
X207720057Y-196300057D01*
X207720057Y-196014342D01*
X207648628Y-195871485D01*
X207577200Y-195800057D01*
X207434342Y-195728628D01*
X208220057Y-197157200D02*
X208291485Y-197085771D01*
X208434342Y-196871485D01*
X208505771Y-196728628D01*
X208577200Y-196514342D01*
X208648628Y-196157200D01*
X208648628Y-195871485D01*
X208577200Y-195514342D01*
X208505771Y-195300057D01*
X208434342Y-195157200D01*
X208291485Y-194942914D01*
X208220057Y-194871485D01*
D10*
D11*
X177002200Y-191507200D02*
X285002200Y-191507200D01*
D10*
D12*
X264411485Y-193785771D02*
X263911485Y-193071485D01*
X263554342Y-193785771D02*
X263554342Y-192285771D01*
X264125771Y-192285771D01*
X264268628Y-192357200D01*
X264340057Y-192428628D01*
X264411485Y-192571485D01*
X264411485Y-192785771D01*
X264340057Y-192928628D01*
X264268628Y-193000057D01*
X264125771Y-193071485D01*
X263554342Y-193071485D01*
X265625771Y-193714342D02*
X265482914Y-193785771D01*
X265197200Y-193785771D01*
X265054342Y-193714342D01*
X264982914Y-193571485D01*
X264982914Y-193000057D01*
X265054342Y-192857200D01*
X265197200Y-192785771D01*
X265482914Y-192785771D01*
X265625771Y-192857200D01*
X265697200Y-193000057D01*
X265697200Y-193142914D01*
X264982914Y-193285771D01*
X266197200Y-192785771D02*
X266554342Y-193785771D01*
X266911485Y-192785771D01*
X267482914Y-193642914D02*
X267554342Y-193714342D01*
X267482914Y-193785771D01*
X267411485Y-193714342D01*
X267482914Y-193642914D01*
X267482914Y-193785771D01*
X267482914Y-192857200D02*
X267554342Y-192928628D01*
X267482914Y-193000057D01*
X267411485Y-192928628D01*
X267482914Y-192857200D01*
X267482914Y-193000057D01*
D10*
D11*
X178362914Y-193714342D02*
X178577200Y-193785771D01*
X178934342Y-193785771D01*
X179077200Y-193714342D01*
X179148628Y-193642914D01*
X179220057Y-193500057D01*
X179220057Y-193357200D01*
X179148628Y-193214342D01*
X179077200Y-193142914D01*
X178934342Y-193071485D01*
X178648628Y-193000057D01*
X178505771Y-192928628D01*
X178434342Y-192857200D01*
X178362914Y-192714342D01*
X178362914Y-192571485D01*
X178434342Y-192428628D01*
X178505771Y-192357200D01*
X178648628Y-192285771D01*
X179005771Y-192285771D01*
X179220057Y-192357200D01*
X179862914Y-193785771D02*
X179862914Y-192785771D01*
X179862914Y-192285771D02*
X179791485Y-192357200D01*
X179862914Y-192428628D01*
X179934342Y-192357200D01*
X179862914Y-192285771D01*
X179862914Y-192428628D01*
X180434342Y-192785771D02*
X181220057Y-192785771D01*
X180434342Y-193785771D01*
X181220057Y-193785771D01*
X182362914Y-193714342D02*
X182220057Y-193785771D01*
X181934342Y-193785771D01*
X181791485Y-193714342D01*
X181720057Y-193571485D01*
X181720057Y-193000057D01*
X181791485Y-192857200D01*
X181934342Y-192785771D01*
X182220057Y-192785771D01*
X182362914Y-192857200D01*
X182434342Y-193000057D01*
X182434342Y-193142914D01*
X181720057Y-193285771D01*
X183077200Y-193642914D02*
X183148628Y-193714342D01*
X183077200Y-193785771D01*
X183005771Y-193714342D01*
X183077200Y-193642914D01*
X183077200Y-193785771D01*
X183077200Y-192857200D02*
X183148628Y-192928628D01*
X183077200Y-193000057D01*
X183005771Y-192928628D01*
X183077200Y-192857200D01*
X183077200Y-193000057D01*
X184862914Y-193357200D02*
X185577200Y-193357200D01*
X184720057Y-193785771D02*
X185220057Y-192285771D01*
X185720057Y-193785771D01*
X186862914Y-192785771D02*
X186862914Y-193785771D01*
X186505771Y-192214342D02*
X186148628Y-193285771D01*
X187077200Y-193285771D01*
D10*
D11*
X263434342Y-196585771D02*
X263434342Y-195085771D01*
X264791485Y-196585771D02*
X264791485Y-195085771D01*
X264791485Y-196514342D02*
X264648628Y-196585771D01*
X264362914Y-196585771D01*
X264220057Y-196514342D01*
X264148628Y-196442914D01*
X264077200Y-196300057D01*
X264077200Y-195871485D01*
X264148628Y-195728628D01*
X264220057Y-195657200D01*
X264362914Y-195585771D01*
X264648628Y-195585771D01*
X264791485Y-195657200D01*
X265505771Y-196442914D02*
X265577200Y-196514342D01*
X265505771Y-196585771D01*
X265434342Y-196514342D01*
X265505771Y-196442914D01*
X265505771Y-196585771D01*
X265505771Y-195657200D02*
X265577200Y-195728628D01*
X265505771Y-195800057D01*
X265434342Y-195728628D01*
X265505771Y-195657200D01*
X265505771Y-195800057D01*
X268148628Y-196585771D02*
X267291485Y-196585771D01*
X267720057Y-196585771D02*
X267720057Y-195085771D01*
X267577200Y-195300057D01*
X267434342Y-195442914D01*
X267291485Y-195514342D01*
X269862914Y-195014342D02*
X268577200Y-196942914D01*
X271148628Y-196585771D02*
X270291485Y-196585771D01*
X270720057Y-196585771D02*
X270720057Y-195085771D01*
X270577200Y-195300057D01*
X270434342Y-195442914D01*
X270291485Y-195514342D01*
D10*
D11*
X177002200Y-187507200D02*
X285002200Y-187507200D01*
D10*
D13*
X178714580Y-188211961D02*
X179857438Y-188211961D01*
X179036009Y-190211961D02*
X179286009Y-188211961D01*
X180274104Y-190211961D02*
X180440771Y-188878628D01*
X180524104Y-188211961D02*
X180416961Y-188307200D01*
X180500295Y-188402438D01*
X180607438Y-188307200D01*
X180524104Y-188211961D01*
X180500295Y-188402438D01*
X181107438Y-188878628D02*
X181869342Y-188878628D01*
X181476485Y-188211961D02*
X181262200Y-189926247D01*
X181333628Y-190116723D01*
X181512200Y-190211961D01*
X181702676Y-190211961D01*
X182655057Y-190211961D02*
X182476485Y-190116723D01*
X182405057Y-189926247D01*
X182619342Y-188211961D01*
X184190771Y-190116723D02*
X183988390Y-190211961D01*
X183607438Y-190211961D01*
X183428866Y-190116723D01*
X183357438Y-189926247D01*
X183452676Y-189164342D01*
X183571723Y-188973866D01*
X183774104Y-188878628D01*
X184155057Y-188878628D01*
X184333628Y-188973866D01*
X184405057Y-189164342D01*
X184381247Y-189354819D01*
X183405057Y-189545295D01*
X185155057Y-190021485D02*
X185238390Y-190116723D01*
X185131247Y-190211961D01*
X185047914Y-190116723D01*
X185155057Y-190021485D01*
X185131247Y-190211961D01*
X185286009Y-188973866D02*
X185369342Y-189069104D01*
X185262200Y-189164342D01*
X185178866Y-189069104D01*
X185286009Y-188973866D01*
X185262200Y-189164342D01*
D10*
D11*
X178934342Y-185600057D02*
X178434342Y-185600057D01*
X178434342Y-186385771D02*
X178434342Y-184885771D01*
X179148628Y-184885771D01*
X179720057Y-186385771D02*
X179720057Y-185385771D01*
X179720057Y-184885771D02*
X179648628Y-184957200D01*
X179720057Y-185028628D01*
X179791485Y-184957200D01*
X179720057Y-184885771D01*
X179720057Y-185028628D01*
X180648628Y-186385771D02*
X180505771Y-186314342D01*
X180434342Y-186171485D01*
X180434342Y-184885771D01*
X181791485Y-186314342D02*
X181648628Y-186385771D01*
X181362914Y-186385771D01*
X181220057Y-186314342D01*
X181148628Y-186171485D01*
X181148628Y-185600057D01*
X181220057Y-185457200D01*
X181362914Y-185385771D01*
X181648628Y-185385771D01*
X181791485Y-185457200D01*
X181862914Y-185600057D01*
X181862914Y-185742914D01*
X181148628Y-185885771D01*
X182505771Y-186242914D02*
X182577200Y-186314342D01*
X182505771Y-186385771D01*
X182434342Y-186314342D01*
X182505771Y-186242914D01*
X182505771Y-186385771D01*
X182505771Y-185457200D02*
X182577200Y-185528628D01*
X182505771Y-185600057D01*
X182434342Y-185528628D01*
X182505771Y-185457200D01*
X182505771Y-185600057D01*
X184362914Y-186385771D02*
X184362914Y-184885771D01*
X184720057Y-184885771D01*
X184934342Y-184957200D01*
X185077200Y-185100057D01*
X185148628Y-185242914D01*
X185220057Y-185528628D01*
X185220057Y-185742914D01*
X185148628Y-186028628D01*
X185077200Y-186171485D01*
X184934342Y-186314342D01*
X184720057Y-186385771D01*
X184362914Y-186385771D01*
X185862914Y-186385771D02*
X185862914Y-185385771D01*
X185862914Y-184885771D02*
X185791485Y-184957200D01*
X185862914Y-185028628D01*
X185934342Y-184957200D01*
X185862914Y-184885771D01*
X185862914Y-185028628D01*
X187220057Y-185385771D02*
X187220057Y-186600057D01*
X187148628Y-186742914D01*
X187077200Y-186814342D01*
X186934342Y-186885771D01*
X186720057Y-186885771D01*
X186577200Y-186814342D01*
X187220057Y-186314342D02*
X187077200Y-186385771D01*
X186791485Y-186385771D01*
X186648628Y-186314342D01*
X186577200Y-186242914D01*
X186505771Y-186100057D01*
X186505771Y-185671485D01*
X186577200Y-185528628D01*
X186648628Y-185457200D01*
X186791485Y-185385771D01*
X187077200Y-185385771D01*
X187220057Y-185457200D01*
X187934342Y-186385771D02*
X187934342Y-185385771D01*
X187934342Y-184885771D02*
X187862914Y-184957200D01*
X187934342Y-185028628D01*
X188005771Y-184957200D01*
X187934342Y-184885771D01*
X187934342Y-185028628D01*
X188434342Y-185385771D02*
X189005771Y-185385771D01*
X188648628Y-184885771D02*
X188648628Y-186171485D01*
X188720057Y-186314342D01*
X188862914Y-186385771D01*
X189005771Y-186385771D01*
X190148628Y-186385771D02*
X190148628Y-185600057D01*
X190077200Y-185457200D01*
X189934342Y-185385771D01*
X189648628Y-185385771D01*
X189505771Y-185457200D01*
X190148628Y-186314342D02*
X190005771Y-186385771D01*
X189648628Y-186385771D01*
X189505771Y-186314342D01*
X189434342Y-186171485D01*
X189434342Y-186028628D01*
X189505771Y-185885771D01*
X189648628Y-185814342D01*
X190005771Y-185814342D01*
X190148628Y-185742914D01*
X191077200Y-186385771D02*
X190934342Y-186314342D01*
X190862914Y-186171485D01*
X190862914Y-184885771D01*
X191648628Y-185814342D02*
X192791485Y-185814342D01*
X194362914Y-186242914D02*
X194291485Y-186314342D01*
X194077200Y-186385771D01*
X193934342Y-186385771D01*
X193720057Y-186314342D01*
X193577200Y-186171485D01*
X193505771Y-186028628D01*
X193434342Y-185742914D01*
X193434342Y-185528628D01*
X193505771Y-185242914D01*
X193577200Y-185100057D01*
X193720057Y-184957200D01*
X193934342Y-184885771D01*
X194077200Y-184885771D01*
X194291485Y-184957200D01*
X194362914Y-185028628D01*
X195220057Y-186385771D02*
X195077200Y-186314342D01*
X195005771Y-186171485D01*
X195005771Y-184885771D01*
X196005771Y-186385771D02*
X195862914Y-186314342D01*
X195791485Y-186242914D01*
X195720057Y-186100057D01*
X195720057Y-185671485D01*
X195791485Y-185528628D01*
X195862914Y-185457200D01*
X196005771Y-185385771D01*
X196220057Y-185385771D01*
X196362914Y-185457200D01*
X196434342Y-185528628D01*
X196505771Y-185671485D01*
X196505771Y-186100057D01*
X196434342Y-186242914D01*
X196362914Y-186314342D01*
X196220057Y-186385771D01*
X196005771Y-186385771D01*
X197791485Y-186314342D02*
X197648628Y-186385771D01*
X197362914Y-186385771D01*
X197220057Y-186314342D01*
X197148628Y-186242914D01*
X197077200Y-186100057D01*
X197077200Y-185671485D01*
X197148628Y-185528628D01*
X197220057Y-185457200D01*
X197362914Y-185385771D01*
X197648628Y-185385771D01*
X197791485Y-185457200D01*
X198434342Y-186385771D02*
X198434342Y-184885771D01*
X198577200Y-185814342D02*
X199005771Y-186385771D01*
X199005771Y-185385771D02*
X198434342Y-185957200D01*
X199648628Y-186242914D02*
X199720057Y-186314342D01*
X199648628Y-186385771D01*
X199577200Y-186314342D01*
X199648628Y-186242914D01*
X199648628Y-186385771D01*
X200362914Y-186385771D02*
X200362914Y-184885771D01*
X200505771Y-185814342D02*
X200934342Y-186385771D01*
X200934342Y-185385771D02*
X200362914Y-185957200D01*
X201577200Y-186385771D02*
X201577200Y-185385771D01*
X201577200Y-184885771D02*
X201505771Y-184957200D01*
X201577200Y-185028628D01*
X201648628Y-184957200D01*
X201577200Y-184885771D01*
X201577200Y-185028628D01*
X202934342Y-186314342D02*
X202791485Y-186385771D01*
X202505771Y-186385771D01*
X202362914Y-186314342D01*
X202291485Y-186242914D01*
X202220057Y-186100057D01*
X202220057Y-185671485D01*
X202291485Y-185528628D01*
X202362914Y-185457200D01*
X202505771Y-185385771D01*
X202791485Y-185385771D01*
X202934342Y-185457200D01*
X204220057Y-186385771D02*
X204220057Y-185600057D01*
X204148628Y-185457200D01*
X204005771Y-185385771D01*
X203720057Y-185385771D01*
X203577200Y-185457200D01*
X204220057Y-186314342D02*
X204077200Y-186385771D01*
X203720057Y-186385771D01*
X203577200Y-186314342D01*
X203505771Y-186171485D01*
X203505771Y-186028628D01*
X203577200Y-185885771D01*
X203720057Y-185814342D01*
X204077200Y-185814342D01*
X204220057Y-185742914D01*
X205577200Y-186385771D02*
X205577200Y-184885771D01*
X205577200Y-186314342D02*
X205434342Y-186385771D01*
X205148628Y-186385771D01*
X205005771Y-186314342D01*
X204934342Y-186242914D01*
X204862914Y-186100057D01*
X204862914Y-185671485D01*
X204934342Y-185528628D01*
X205005771Y-185457200D01*
X205148628Y-185385771D01*
X205434342Y-185385771D01*
X205577200Y-185457200D01*
X205934342Y-186528628D02*
X207077200Y-186528628D01*
X207434342Y-185385771D02*
X207434342Y-186885771D01*
X207434342Y-185457200D02*
X207577200Y-185385771D01*
X207862914Y-185385771D01*
X208005771Y-185457200D01*
X208077200Y-185528628D01*
X208148628Y-185671485D01*
X208148628Y-186100057D01*
X208077200Y-186242914D01*
X208005771Y-186314342D01*
X207862914Y-186385771D01*
X207577200Y-186385771D01*
X207434342Y-186314342D01*
X209434342Y-186314342D02*
X209291485Y-186385771D01*
X209005771Y-186385771D01*
X208862914Y-186314342D01*
X208791485Y-186242914D01*
X208720057Y-186100057D01*
X208720057Y-185671485D01*
X208791485Y-185528628D01*
X208862914Y-185457200D01*
X209005771Y-185385771D01*
X209291485Y-185385771D01*
X209434342Y-185457200D01*
X210077200Y-186385771D02*
X210077200Y-184885771D01*
X210077200Y-185457200D02*
X210220057Y-185385771D01*
X210505771Y-185385771D01*
X210648628Y-185457200D01*
X210720057Y-185528628D01*
X210791485Y-185671485D01*
X210791485Y-186100057D01*
X210720057Y-186242914D01*
X210648628Y-186314342D01*
X210505771Y-186385771D01*
X210220057Y-186385771D01*
X210077200Y-186314342D01*
D10*
D11*
X177002200Y-181507200D02*
X285002200Y-181507200D01*
D10*
D11*
X178362914Y-183614342D02*
X178577200Y-183685771D01*
X178934342Y-183685771D01*
X179077200Y-183614342D01*
X179148628Y-183542914D01*
X179220057Y-183400057D01*
X179220057Y-183257200D01*
X179148628Y-183114342D01*
X179077200Y-183042914D01*
X178934342Y-182971485D01*
X178648628Y-182900057D01*
X178505771Y-182828628D01*
X178434342Y-182757200D01*
X178362914Y-182614342D01*
X178362914Y-182471485D01*
X178434342Y-182328628D01*
X178505771Y-182257200D01*
X178648628Y-182185771D01*
X179005771Y-182185771D01*
X179220057Y-182257200D01*
X179862914Y-183685771D02*
X179862914Y-182185771D01*
X180505771Y-183685771D02*
X180505771Y-182900057D01*
X180434342Y-182757200D01*
X180291485Y-182685771D01*
X180077200Y-182685771D01*
X179934342Y-182757200D01*
X179862914Y-182828628D01*
X181791485Y-183614342D02*
X181648628Y-183685771D01*
X181362914Y-183685771D01*
X181220057Y-183614342D01*
X181148628Y-183471485D01*
X181148628Y-182900057D01*
X181220057Y-182757200D01*
X181362914Y-182685771D01*
X181648628Y-182685771D01*
X181791485Y-182757200D01*
X181862914Y-182900057D01*
X181862914Y-183042914D01*
X181148628Y-183185771D01*
X183077200Y-183614342D02*
X182934342Y-183685771D01*
X182648628Y-183685771D01*
X182505771Y-183614342D01*
X182434342Y-183471485D01*
X182434342Y-182900057D01*
X182505771Y-182757200D01*
X182648628Y-182685771D01*
X182934342Y-182685771D01*
X183077200Y-182757200D01*
X183148628Y-182900057D01*
X183148628Y-183042914D01*
X182434342Y-183185771D01*
X183577200Y-182685771D02*
X184148628Y-182685771D01*
X183791485Y-182185771D02*
X183791485Y-183471485D01*
X183862914Y-183614342D01*
X184005771Y-183685771D01*
X184148628Y-183685771D01*
X184648628Y-183542914D02*
X184720057Y-183614342D01*
X184648628Y-183685771D01*
X184577200Y-183614342D01*
X184648628Y-183542914D01*
X184648628Y-183685771D01*
X184648628Y-182757200D02*
X184720057Y-182828628D01*
X184648628Y-182900057D01*
X184577200Y-182828628D01*
X184648628Y-182757200D01*
X184648628Y-182900057D01*
D10*
D12*
D10*
D11*
D10*
D11*
D10*
D11*
D10*
D11*
D10*
D11*
X197002200Y-191507200D02*
X197002200Y-194507200D01*
D10*
D11*
X261002200Y-191507200D02*
X261002200Y-198007200D01*
D14*
X22225000Y-33655000D02*
X22225000Y-133350000D01*
X22225000Y-151765000D02*
X201295000Y-151765000D01*
X22225000Y-31750000D02*
X22225000Y-33655000D01*
X201295000Y-41910000D02*
X201295000Y-31750000D01*
X22225000Y-133350000D02*
X22225000Y-151765000D01*
X201295000Y-31750000D02*
X22225000Y-31750000D01*
X201295000Y-151765000D02*
X201295000Y-41910000D01*
D12*
X53022857Y-150758571D02*
X53022857Y-149258571D01*
X53022857Y-149972857D02*
X53880000Y-149972857D01*
X53880000Y-150758571D02*
X53880000Y-149258571D01*
X54808571Y-150758571D02*
X54665714Y-150687142D01*
X54594285Y-150615714D01*
X54522857Y-150472857D01*
X54522857Y-150044285D01*
X54594285Y-149901428D01*
X54665714Y-149830000D01*
X54808571Y-149758571D01*
X55022857Y-149758571D01*
X55165714Y-149830000D01*
X55237142Y-149901428D01*
X55308571Y-150044285D01*
X55308571Y-150472857D01*
X55237142Y-150615714D01*
X55165714Y-150687142D01*
X55022857Y-150758571D01*
X54808571Y-150758571D01*
X56594285Y-149758571D02*
X56594285Y-150758571D01*
X55951428Y-149758571D02*
X55951428Y-150544285D01*
X56022857Y-150687142D01*
X56165714Y-150758571D01*
X56380000Y-150758571D01*
X56522857Y-150687142D01*
X56594285Y-150615714D01*
X57308571Y-150758571D02*
X57308571Y-149758571D01*
X57308571Y-150044285D02*
X57380000Y-149901428D01*
X57451428Y-149830000D01*
X57594285Y-149758571D01*
X57737142Y-149758571D01*
X58165714Y-150687142D02*
X58308571Y-150758571D01*
X58594285Y-150758571D01*
X58737142Y-150687142D01*
X58808571Y-150544285D01*
X58808571Y-150472857D01*
X58737142Y-150330000D01*
X58594285Y-150258571D01*
X58380000Y-150258571D01*
X58237142Y-150187142D01*
X58165714Y-150044285D01*
X58165714Y-149972857D01*
X58237142Y-149830000D01*
X58380000Y-149758571D01*
X58594285Y-149758571D01*
X58737142Y-149830000D01*
X121605892Y-146954761D02*
X121855892Y-144954761D01*
X122332083Y-144954761D01*
X122605892Y-145050000D01*
X122772559Y-145240476D01*
X122843988Y-145430952D01*
X122891607Y-145811904D01*
X122855892Y-146097619D01*
X122713035Y-146478571D01*
X122593988Y-146669047D01*
X122379702Y-146859523D01*
X122082083Y-146954761D01*
X121605892Y-146954761D01*
X123605892Y-146954761D02*
X123772559Y-145621428D01*
X123855892Y-144954761D02*
X123748750Y-145050000D01*
X123832083Y-145145238D01*
X123939226Y-145050000D01*
X123855892Y-144954761D01*
X123832083Y-145145238D01*
X125582083Y-145621428D02*
X125379702Y-147240476D01*
X125260654Y-147430952D01*
X125153511Y-147526190D01*
X124951130Y-147621428D01*
X124665416Y-147621428D01*
X124486845Y-147526190D01*
X125427321Y-146859523D02*
X125224940Y-146954761D01*
X124843988Y-146954761D01*
X124665416Y-146859523D01*
X124582083Y-146764285D01*
X124510654Y-146573809D01*
X124582083Y-146002380D01*
X124701130Y-145811904D01*
X124808273Y-145716666D01*
X125010654Y-145621428D01*
X125391607Y-145621428D01*
X125570178Y-145716666D01*
X126367797Y-146954761D02*
X126534464Y-145621428D01*
X126617797Y-144954761D02*
X126510654Y-145050000D01*
X126593988Y-145145238D01*
X126701130Y-145050000D01*
X126617797Y-144954761D01*
X126593988Y-145145238D01*
X127201130Y-145621428D02*
X127963035Y-145621428D01*
X127570178Y-144954761D02*
X127355892Y-146669047D01*
X127427321Y-146859523D01*
X127605892Y-146954761D01*
X127796369Y-146954761D01*
X129320178Y-146954761D02*
X129451130Y-145907142D01*
X129379702Y-145716666D01*
X129201130Y-145621428D01*
X128820178Y-145621428D01*
X128617797Y-145716666D01*
X129332083Y-146859523D02*
X129129702Y-146954761D01*
X128653511Y-146954761D01*
X128474940Y-146859523D01*
X128403511Y-146669047D01*
X128427321Y-146478571D01*
X128546369Y-146288095D01*
X128748750Y-146192857D01*
X129224940Y-146192857D01*
X129427321Y-146097619D01*
X130558273Y-146954761D02*
X130379702Y-146859523D01*
X130308273Y-146669047D01*
X130522559Y-144954761D01*
X134010654Y-146764285D02*
X133903511Y-146859523D01*
X133605892Y-146954761D01*
X133415416Y-146954761D01*
X133141607Y-146859523D01*
X132974940Y-146669047D01*
X132903511Y-146478571D01*
X132855892Y-146097619D01*
X132891607Y-145811904D01*
X133034464Y-145430952D01*
X133153511Y-145240476D01*
X133367797Y-145050000D01*
X133665416Y-144954761D01*
X133855892Y-144954761D01*
X134129702Y-145050000D01*
X134213035Y-145145238D01*
X135129702Y-146954761D02*
X134951130Y-146859523D01*
X134879702Y-146669047D01*
X135093988Y-144954761D01*
X136177321Y-146954761D02*
X135998750Y-146859523D01*
X135915416Y-146764285D01*
X135843988Y-146573809D01*
X135915416Y-146002380D01*
X136034464Y-145811904D01*
X136141607Y-145716666D01*
X136343988Y-145621428D01*
X136629702Y-145621428D01*
X136808273Y-145716666D01*
X136891607Y-145811904D01*
X136963035Y-146002380D01*
X136891607Y-146573809D01*
X136772559Y-146764285D01*
X136665416Y-146859523D01*
X136463035Y-146954761D01*
X136177321Y-146954761D01*
X138570178Y-146859523D02*
X138367797Y-146954761D01*
X137986845Y-146954761D01*
X137808273Y-146859523D01*
X137724940Y-146764285D01*
X137653511Y-146573809D01*
X137724940Y-146002380D01*
X137843988Y-145811904D01*
X137951130Y-145716666D01*
X138153511Y-145621428D01*
X138534464Y-145621428D01*
X138713035Y-145716666D01*
X139415416Y-146954761D02*
X139665416Y-144954761D01*
X139701130Y-146192857D02*
X140177321Y-146954761D01*
X140343988Y-145621428D02*
X139486845Y-146383333D01*
X142558273Y-146954761D02*
X142808273Y-144954761D01*
X142713035Y-145716666D02*
X142915416Y-145621428D01*
X143296369Y-145621428D01*
X143474940Y-145716666D01*
X143558273Y-145811904D01*
X143629702Y-146002380D01*
X143558273Y-146573809D01*
X143439226Y-146764285D01*
X143332083Y-146859523D01*
X143129702Y-146954761D01*
X142748750Y-146954761D01*
X142570178Y-146859523D01*
X144343988Y-145621428D02*
X144653511Y-146954761D01*
X145296369Y-145621428D02*
X144653511Y-146954761D01*
X144403511Y-147430952D01*
X144296369Y-147526190D01*
X144093988Y-147621428D01*
X147415416Y-146954761D02*
X147665416Y-144954761D01*
X148141607Y-144954761D01*
X148415416Y-145050000D01*
X148582083Y-145240476D01*
X148653511Y-145430952D01*
X148701130Y-145811904D01*
X148665416Y-146097619D01*
X148522559Y-146478571D01*
X148403511Y-146669047D01*
X148189226Y-146859523D01*
X147891607Y-146954761D01*
X147415416Y-146954761D01*
X149415416Y-146954761D02*
X149582083Y-145621428D01*
X149665416Y-144954761D02*
X149558273Y-145050000D01*
X149641607Y-145145238D01*
X149748750Y-145050000D01*
X149665416Y-144954761D01*
X149641607Y-145145238D01*
X150343988Y-145621428D02*
X150653511Y-146954761D01*
X151296369Y-145621428D01*
X152748749Y-146954761D02*
X152879702Y-145907142D01*
X152808273Y-145716666D01*
X152629702Y-145621428D01*
X152248750Y-145621428D01*
X152046369Y-145716666D01*
X152760654Y-146859523D02*
X152558273Y-146954761D01*
X152082083Y-146954761D01*
X151903511Y-146859523D01*
X151832083Y-146669047D01*
X151855892Y-146478571D01*
X151974940Y-146288095D01*
X152177321Y-146192857D01*
X152653511Y-146192857D01*
X152855892Y-146097619D01*
X153701130Y-146954761D02*
X153951130Y-144954761D01*
X153986845Y-146192857D02*
X154463035Y-146954761D01*
X154629702Y-145621428D02*
X153772559Y-146383333D01*
X156177321Y-146954761D02*
X156308273Y-145907142D01*
X156236845Y-145716666D01*
X156058273Y-145621428D01*
X155677321Y-145621428D01*
X155474940Y-145716666D01*
X156189226Y-146859523D02*
X155986845Y-146954761D01*
X155510654Y-146954761D01*
X155332083Y-146859523D01*
X155260654Y-146669047D01*
X155284464Y-146478571D01*
X155403511Y-146288095D01*
X155605892Y-146192857D01*
X156082083Y-146192857D01*
X156284464Y-146097619D01*
X157129702Y-146954761D02*
X157296369Y-145621428D01*
X157248749Y-146002380D02*
X157367797Y-145811904D01*
X157474940Y-145716666D01*
X157677321Y-145621428D01*
X157867797Y-145621428D01*
X40557142Y-150758571D02*
X40557142Y-149258571D01*
X41057142Y-150330000D01*
X41557142Y-149258571D01*
X41557142Y-150758571D01*
X42271428Y-150758571D02*
X42271428Y-149758571D01*
X42271428Y-149258571D02*
X42200000Y-149330000D01*
X42271428Y-149401428D01*
X42342857Y-149330000D01*
X42271428Y-149258571D01*
X42271428Y-149401428D01*
X42985714Y-149758571D02*
X42985714Y-150758571D01*
X42985714Y-149901428D02*
X43057142Y-149830000D01*
X43200000Y-149758571D01*
X43414285Y-149758571D01*
X43557142Y-149830000D01*
X43628571Y-149972857D01*
X43628571Y-150758571D01*
X44985714Y-149758571D02*
X44985714Y-150758571D01*
X44342857Y-149758571D02*
X44342857Y-150544285D01*
X44414285Y-150687142D01*
X44557142Y-150758571D01*
X44771428Y-150758571D01*
X44914285Y-150687142D01*
X44985714Y-150615714D01*
X45485714Y-149758571D02*
X46057142Y-149758571D01*
X45700000Y-149258571D02*
X45700000Y-150544285D01*
X45771428Y-150687142D01*
X45914285Y-150758571D01*
X46057142Y-150758571D01*
X47128571Y-150687142D02*
X46985714Y-150758571D01*
X46700000Y-150758571D01*
X46557142Y-150687142D01*
X46485714Y-150544285D01*
X46485714Y-149972857D01*
X46557142Y-149830000D01*
X46700000Y-149758571D01*
X46985714Y-149758571D01*
X47128571Y-149830000D01*
X47200000Y-149972857D01*
X47200000Y-150115714D01*
X46485714Y-150258571D01*
X47771428Y-150687142D02*
X47914285Y-150758571D01*
X48200000Y-150758571D01*
X48342857Y-150687142D01*
X48414285Y-150544285D01*
X48414285Y-150472857D01*
X48342857Y-150330000D01*
X48200000Y-150258571D01*
X47985714Y-150258571D01*
X47842857Y-150187142D01*
X47771428Y-150044285D01*
X47771428Y-149972857D01*
X47842857Y-149830000D01*
X47985714Y-149758571D01*
X48200000Y-149758571D01*
X48342857Y-149830000D01*
D11*
X151296666Y-46656428D02*
X151296666Y-46180238D01*
X151582380Y-46751666D02*
X150582380Y-46418333D01*
X151582380Y-46085000D01*
X151058571Y-45418333D02*
X151058571Y-45751666D01*
X151582380Y-45751666D02*
X150582380Y-45751666D01*
X150582380Y-45275476D01*
X151058571Y-44561190D02*
X151058571Y-44894523D01*
X151582380Y-44894523D02*
X150582380Y-44894523D01*
X150582380Y-44418333D01*
X151582380Y-43513571D02*
X151582380Y-44085000D01*
X151582380Y-43799285D02*
X150582380Y-43799285D01*
X150725238Y-43894523D01*
X150820476Y-43989761D01*
X150868095Y-44085000D01*
X135421666Y-46021428D02*
X135421666Y-45545238D01*
X135707380Y-46116666D02*
X134707380Y-45783333D01*
X135707380Y-45450000D01*
X135183571Y-44783333D02*
X135183571Y-45116666D01*
X135707380Y-45116666D02*
X134707380Y-45116666D01*
X134707380Y-44640476D01*
X135183571Y-43926190D02*
X135183571Y-44259523D01*
X135707380Y-44259523D02*
X134707380Y-44259523D01*
X134707380Y-43783333D01*
X134802619Y-43450000D02*
X134755000Y-43402380D01*
X134707380Y-43307142D01*
X134707380Y-43069047D01*
X134755000Y-42973809D01*
X134802619Y-42926190D01*
X134897857Y-42878571D01*
X134993095Y-42878571D01*
X135135952Y-42926190D01*
X135707380Y-43497619D01*
X135707380Y-42878571D01*
X120816666Y-46656428D02*
X120816666Y-46180238D01*
X121102380Y-46751666D02*
X120102380Y-46418333D01*
X121102380Y-46085000D01*
X120578571Y-45418333D02*
X120578571Y-45751666D01*
X121102380Y-45751666D02*
X120102380Y-45751666D01*
X120102380Y-45275476D01*
X120578571Y-44561190D02*
X120578571Y-44894523D01*
X121102380Y-44894523D02*
X120102380Y-44894523D01*
X120102380Y-44418333D01*
X120102380Y-44132619D02*
X120102380Y-43513571D01*
X120483333Y-43846904D01*
X120483333Y-43704047D01*
X120530952Y-43608809D01*
X120578571Y-43561190D01*
X120673809Y-43513571D01*
X120911904Y-43513571D01*
X121007142Y-43561190D01*
X121054761Y-43608809D01*
X121102380Y-43704047D01*
X121102380Y-43989761D01*
X121054761Y-44085000D01*
X121007142Y-44132619D01*
X107481666Y-46656428D02*
X107481666Y-46180238D01*
X107767380Y-46751666D02*
X106767380Y-46418333D01*
X107767380Y-46085000D01*
X107243571Y-45418333D02*
X107243571Y-45751666D01*
X107767380Y-45751666D02*
X106767380Y-45751666D01*
X106767380Y-45275476D01*
X107243571Y-44561190D02*
X107243571Y-44894523D01*
X107767380Y-44894523D02*
X106767380Y-44894523D01*
X106767380Y-44418333D01*
X107100714Y-43608809D02*
X107767380Y-43608809D01*
X106719761Y-43846904D02*
X107434047Y-44085000D01*
X107434047Y-43465952D01*
X98722142Y-136036666D02*
X98769761Y-136084285D01*
X98817380Y-136227142D01*
X98817380Y-136322380D01*
X98769761Y-136465238D01*
X98674523Y-136560476D01*
X98579285Y-136608095D01*
X98388809Y-136655714D01*
X98245952Y-136655714D01*
X98055476Y-136608095D01*
X97960238Y-136560476D01*
X97865000Y-136465238D01*
X97817380Y-136322380D01*
X97817380Y-136227142D01*
X97865000Y-136084285D01*
X97912619Y-136036666D01*
X97817380Y-135703333D02*
X97817380Y-135084285D01*
X98198333Y-135417619D01*
X98198333Y-135274761D01*
X98245952Y-135179523D01*
X98293571Y-135131904D01*
X98388809Y-135084285D01*
X98626904Y-135084285D01*
X98722142Y-135131904D01*
X98769761Y-135179523D01*
X98817380Y-135274761D01*
X98817380Y-135560476D01*
X98769761Y-135655714D01*
X98722142Y-135703333D01*
X89832142Y-136036666D02*
X89879761Y-136084285D01*
X89927380Y-136227142D01*
X89927380Y-136322380D01*
X89879761Y-136465238D01*
X89784523Y-136560476D01*
X89689285Y-136608095D01*
X89498809Y-136655714D01*
X89355952Y-136655714D01*
X89165476Y-136608095D01*
X89070238Y-136560476D01*
X88975000Y-136465238D01*
X88927380Y-136322380D01*
X88927380Y-136227142D01*
X88975000Y-136084285D01*
X89022619Y-136036666D01*
X89260714Y-135179523D02*
X89927380Y-135179523D01*
X88879761Y-135417619D02*
X89594047Y-135655714D01*
X89594047Y-135036666D01*
X102687380Y-139168095D02*
X101687380Y-139168095D01*
X101687380Y-138930000D01*
X101735000Y-138787142D01*
X101830238Y-138691904D01*
X101925476Y-138644285D01*
X102115952Y-138596666D01*
X102258809Y-138596666D01*
X102449285Y-138644285D01*
X102544523Y-138691904D01*
X102639761Y-138787142D01*
X102687380Y-138930000D01*
X102687380Y-139168095D01*
X102687380Y-137644285D02*
X102687380Y-138215714D01*
X102687380Y-137930000D02*
X101687380Y-137930000D01*
X101830238Y-138025238D01*
X101925476Y-138120476D01*
X101973095Y-138215714D01*
X104487380Y-134881904D02*
X103487380Y-134881904D01*
X104487380Y-134310476D02*
X103915952Y-134739047D01*
X103487380Y-134310476D02*
X104058809Y-134881904D01*
X80677380Y-139168095D02*
X79677380Y-139168095D01*
X79677380Y-138930000D01*
X79725000Y-138787142D01*
X79820238Y-138691904D01*
X79915476Y-138644285D01*
X80105952Y-138596666D01*
X80248809Y-138596666D01*
X80439285Y-138644285D01*
X80534523Y-138691904D01*
X80629761Y-138787142D01*
X80677380Y-138930000D01*
X80677380Y-139168095D01*
X79772619Y-138215714D02*
X79725000Y-138168095D01*
X79677380Y-138072857D01*
X79677380Y-137834761D01*
X79725000Y-137739523D01*
X79772619Y-137691904D01*
X79867857Y-137644285D01*
X79963095Y-137644285D01*
X80105952Y-137691904D01*
X80677380Y-138263333D01*
X80677380Y-137644285D01*
X80357380Y-134881904D02*
X79357380Y-134881904D01*
X80357380Y-134310476D02*
X79785952Y-134739047D01*
X79357380Y-134310476D02*
X79928809Y-134881904D01*
X95781904Y-37497380D02*
X95781904Y-36497380D01*
X96020000Y-36497380D01*
X96162857Y-36545000D01*
X96258095Y-36640238D01*
X96305714Y-36735476D01*
X96353333Y-36925952D01*
X96353333Y-37068809D01*
X96305714Y-37259285D01*
X96258095Y-37354523D01*
X96162857Y-37449761D01*
X96020000Y-37497380D01*
X95781904Y-37497380D01*
X96686666Y-36497380D02*
X97305714Y-36497380D01*
X96972380Y-36878333D01*
X97115238Y-36878333D01*
X97210476Y-36925952D01*
X97258095Y-36973571D01*
X97305714Y-37068809D01*
X97305714Y-37306904D01*
X97258095Y-37402142D01*
X97210476Y-37449761D01*
X97115238Y-37497380D01*
X96829523Y-37497380D01*
X96734285Y-37449761D01*
X96686666Y-37402142D01*
X95781904Y-53577380D02*
X95781904Y-52577380D01*
X96020000Y-52577380D01*
X96162857Y-52625000D01*
X96258095Y-52720238D01*
X96305714Y-52815476D01*
X96353333Y-53005952D01*
X96353333Y-53148809D01*
X96305714Y-53339285D01*
X96258095Y-53434523D01*
X96162857Y-53529761D01*
X96020000Y-53577380D01*
X95781904Y-53577380D01*
X97210476Y-52910714D02*
X97210476Y-53577380D01*
X96972380Y-52529761D02*
X96734285Y-53244047D01*
X97353333Y-53244047D01*
X174442380Y-132881666D02*
X173966190Y-133215000D01*
X174442380Y-133453095D02*
X173442380Y-133453095D01*
X173442380Y-133072142D01*
X173490000Y-132976904D01*
X173537619Y-132929285D01*
X173632857Y-132881666D01*
X173775714Y-132881666D01*
X173870952Y-132929285D01*
X173918571Y-132976904D01*
X173966190Y-133072142D01*
X173966190Y-133453095D01*
X174442380Y-131929285D02*
X174442380Y-132500714D01*
X174442380Y-132215000D02*
X173442380Y-132215000D01*
X173585238Y-132310238D01*
X173680476Y-132405476D01*
X173728095Y-132500714D01*
X156027380Y-132881666D02*
X155551190Y-133215000D01*
X156027380Y-133453095D02*
X155027380Y-133453095D01*
X155027380Y-133072142D01*
X155075000Y-132976904D01*
X155122619Y-132929285D01*
X155217857Y-132881666D01*
X155360714Y-132881666D01*
X155455952Y-132929285D01*
X155503571Y-132976904D01*
X155551190Y-133072142D01*
X155551190Y-133453095D01*
X155122619Y-132500714D02*
X155075000Y-132453095D01*
X155027380Y-132357857D01*
X155027380Y-132119761D01*
X155075000Y-132024523D01*
X155122619Y-131976904D01*
X155217857Y-131929285D01*
X155313095Y-131929285D01*
X155455952Y-131976904D01*
X156027380Y-132548333D01*
X156027380Y-131929285D01*
X115387380Y-137326666D02*
X114911190Y-137660000D01*
X115387380Y-137898095D02*
X114387380Y-137898095D01*
X114387380Y-137517142D01*
X114435000Y-137421904D01*
X114482619Y-137374285D01*
X114577857Y-137326666D01*
X114720714Y-137326666D01*
X114815952Y-137374285D01*
X114863571Y-137421904D01*
X114911190Y-137517142D01*
X114911190Y-137898095D01*
X114387380Y-136993333D02*
X114387380Y-136374285D01*
X114768333Y-136707619D01*
X114768333Y-136564761D01*
X114815952Y-136469523D01*
X114863571Y-136421904D01*
X114958809Y-136374285D01*
X115196904Y-136374285D01*
X115292142Y-136421904D01*
X115339761Y-136469523D01*
X115387380Y-136564761D01*
X115387380Y-136850476D01*
X115339761Y-136945714D01*
X115292142Y-136993333D01*
X109672380Y-137326666D02*
X109196190Y-137660000D01*
X109672380Y-137898095D02*
X108672380Y-137898095D01*
X108672380Y-137517142D01*
X108720000Y-137421904D01*
X108767619Y-137374285D01*
X108862857Y-137326666D01*
X109005714Y-137326666D01*
X109100952Y-137374285D01*
X109148571Y-137421904D01*
X109196190Y-137517142D01*
X109196190Y-137898095D01*
X109005714Y-136469523D02*
X109672380Y-136469523D01*
X108624761Y-136707619D02*
X109339047Y-136945714D01*
X109339047Y-136326666D01*
X72207380Y-137326666D02*
X71731190Y-137660000D01*
X72207380Y-137898095D02*
X71207380Y-137898095D01*
X71207380Y-137517142D01*
X71255000Y-137421904D01*
X71302619Y-137374285D01*
X71397857Y-137326666D01*
X71540714Y-137326666D01*
X71635952Y-137374285D01*
X71683571Y-137421904D01*
X71731190Y-137517142D01*
X71731190Y-137898095D01*
X71207380Y-136421904D02*
X71207380Y-136898095D01*
X71683571Y-136945714D01*
X71635952Y-136898095D01*
X71588333Y-136802857D01*
X71588333Y-136564761D01*
X71635952Y-136469523D01*
X71683571Y-136421904D01*
X71778809Y-136374285D01*
X72016904Y-136374285D01*
X72112142Y-136421904D01*
X72159761Y-136469523D01*
X72207380Y-136564761D01*
X72207380Y-136802857D01*
X72159761Y-136898095D01*
X72112142Y-136945714D01*
X66492380Y-137326666D02*
X66016190Y-137660000D01*
X66492380Y-137898095D02*
X65492380Y-137898095D01*
X65492380Y-137517142D01*
X65540000Y-137421904D01*
X65587619Y-137374285D01*
X65682857Y-137326666D01*
X65825714Y-137326666D01*
X65920952Y-137374285D01*
X65968571Y-137421904D01*
X66016190Y-137517142D01*
X66016190Y-137898095D01*
X65492380Y-136469523D02*
X65492380Y-136660000D01*
X65540000Y-136755238D01*
X65587619Y-136802857D01*
X65730476Y-136898095D01*
X65920952Y-136945714D01*
X66301904Y-136945714D01*
X66397142Y-136898095D01*
X66444761Y-136850476D01*
X66492380Y-136755238D01*
X66492380Y-136564761D01*
X66444761Y-136469523D01*
X66397142Y-136421904D01*
X66301904Y-136374285D01*
X66063809Y-136374285D01*
X65968571Y-136421904D01*
X65920952Y-136469523D01*
X65873333Y-136564761D01*
X65873333Y-136755238D01*
X65920952Y-136850476D01*
X65968571Y-136898095D01*
X66063809Y-136945714D01*
X176347380Y-71921666D02*
X175871190Y-72255000D01*
X176347380Y-72493095D02*
X175347380Y-72493095D01*
X175347380Y-72112142D01*
X175395000Y-72016904D01*
X175442619Y-71969285D01*
X175537857Y-71921666D01*
X175680714Y-71921666D01*
X175775952Y-71969285D01*
X175823571Y-72016904D01*
X175871190Y-72112142D01*
X175871190Y-72493095D01*
X175775952Y-71350238D02*
X175728333Y-71445476D01*
X175680714Y-71493095D01*
X175585476Y-71540714D01*
X175537857Y-71540714D01*
X175442619Y-71493095D01*
X175395000Y-71445476D01*
X175347380Y-71350238D01*
X175347380Y-71159761D01*
X175395000Y-71064523D01*
X175442619Y-71016904D01*
X175537857Y-70969285D01*
X175585476Y-70969285D01*
X175680714Y-71016904D01*
X175728333Y-71064523D01*
X175775952Y-71159761D01*
X175775952Y-71350238D01*
X175823571Y-71445476D01*
X175871190Y-71493095D01*
X175966428Y-71540714D01*
X176156904Y-71540714D01*
X176252142Y-71493095D01*
X176299761Y-71445476D01*
X176347380Y-71350238D01*
X176347380Y-71159761D01*
X176299761Y-71064523D01*
X176252142Y-71016904D01*
X176156904Y-70969285D01*
X175966428Y-70969285D01*
X175871190Y-71016904D01*
X175823571Y-71064523D01*
X175775952Y-71159761D01*
X180157380Y-71921666D02*
X179681190Y-72255000D01*
X180157380Y-72493095D02*
X179157380Y-72493095D01*
X179157380Y-72112142D01*
X179205000Y-72016904D01*
X179252619Y-71969285D01*
X179347857Y-71921666D01*
X179490714Y-71921666D01*
X179585952Y-71969285D01*
X179633571Y-72016904D01*
X179681190Y-72112142D01*
X179681190Y-72493095D01*
X180157380Y-71445476D02*
X180157380Y-71255000D01*
X180109761Y-71159761D01*
X180062142Y-71112142D01*
X179919285Y-71016904D01*
X179728809Y-70969285D01*
X179347857Y-70969285D01*
X179252619Y-71016904D01*
X179205000Y-71064523D01*
X179157380Y-71159761D01*
X179157380Y-71350238D01*
X179205000Y-71445476D01*
X179252619Y-71493095D01*
X179347857Y-71540714D01*
X179585952Y-71540714D01*
X179681190Y-71493095D01*
X179728809Y-71445476D01*
X179776428Y-71350238D01*
X179776428Y-71159761D01*
X179728809Y-71064523D01*
X179681190Y-71016904D01*
X179585952Y-70969285D01*
X183967380Y-72397857D02*
X183491190Y-72731190D01*
X183967380Y-72969285D02*
X182967380Y-72969285D01*
X182967380Y-72588333D01*
X183015000Y-72493095D01*
X183062619Y-72445476D01*
X183157857Y-72397857D01*
X183300714Y-72397857D01*
X183395952Y-72445476D01*
X183443571Y-72493095D01*
X183491190Y-72588333D01*
X183491190Y-72969285D01*
X183967380Y-71445476D02*
X183967380Y-72016904D01*
X183967380Y-71731190D02*
X182967380Y-71731190D01*
X183110238Y-71826428D01*
X183205476Y-71921666D01*
X183253095Y-72016904D01*
X182967380Y-70826428D02*
X182967380Y-70731190D01*
X183015000Y-70635952D01*
X183062619Y-70588333D01*
X183157857Y-70540714D01*
X183348333Y-70493095D01*
X183586428Y-70493095D01*
X183776904Y-70540714D01*
X183872142Y-70588333D01*
X183919761Y-70635952D01*
X183967380Y-70731190D01*
X183967380Y-70826428D01*
X183919761Y-70921666D01*
X183872142Y-70969285D01*
X183776904Y-71016904D01*
X183586428Y-71064523D01*
X183348333Y-71064523D01*
X183157857Y-71016904D01*
X183062619Y-70969285D01*
X183015000Y-70921666D01*
X182967380Y-70826428D01*
X187777380Y-72397857D02*
X187301190Y-72731190D01*
X187777380Y-72969285D02*
X186777380Y-72969285D01*
X186777380Y-72588333D01*
X186825000Y-72493095D01*
X186872619Y-72445476D01*
X186967857Y-72397857D01*
X187110714Y-72397857D01*
X187205952Y-72445476D01*
X187253571Y-72493095D01*
X187301190Y-72588333D01*
X187301190Y-72969285D01*
X187777380Y-71445476D02*
X187777380Y-72016904D01*
X187777380Y-71731190D02*
X186777380Y-71731190D01*
X186920238Y-71826428D01*
X187015476Y-71921666D01*
X187063095Y-72016904D01*
X187777380Y-70493095D02*
X187777380Y-71064523D01*
X187777380Y-70778809D02*
X186777380Y-70778809D01*
X186920238Y-70874047D01*
X187015476Y-70969285D01*
X187063095Y-71064523D01*
X191587380Y-72397857D02*
X191111190Y-72731190D01*
X191587380Y-72969285D02*
X190587380Y-72969285D01*
X190587380Y-72588333D01*
X190635000Y-72493095D01*
X190682619Y-72445476D01*
X190777857Y-72397857D01*
X190920714Y-72397857D01*
X191015952Y-72445476D01*
X191063571Y-72493095D01*
X191111190Y-72588333D01*
X191111190Y-72969285D01*
X191587380Y-71445476D02*
X191587380Y-72016904D01*
X191587380Y-71731190D02*
X190587380Y-71731190D01*
X190730238Y-71826428D01*
X190825476Y-71921666D01*
X190873095Y-72016904D01*
X190682619Y-71064523D02*
X190635000Y-71016904D01*
X190587380Y-70921666D01*
X190587380Y-70683571D01*
X190635000Y-70588333D01*
X190682619Y-70540714D01*
X190777857Y-70493095D01*
X190873095Y-70493095D01*
X191015952Y-70540714D01*
X191587380Y-71112142D01*
X191587380Y-70493095D01*
X168727380Y-72397857D02*
X168251190Y-72731190D01*
X168727380Y-72969285D02*
X167727380Y-72969285D01*
X167727380Y-72588333D01*
X167775000Y-72493095D01*
X167822619Y-72445476D01*
X167917857Y-72397857D01*
X168060714Y-72397857D01*
X168155952Y-72445476D01*
X168203571Y-72493095D01*
X168251190Y-72588333D01*
X168251190Y-72969285D01*
X168727380Y-71445476D02*
X168727380Y-72016904D01*
X168727380Y-71731190D02*
X167727380Y-71731190D01*
X167870238Y-71826428D01*
X167965476Y-71921666D01*
X168013095Y-72016904D01*
X167727380Y-71112142D02*
X167727380Y-70493095D01*
X168108333Y-70826428D01*
X168108333Y-70683571D01*
X168155952Y-70588333D01*
X168203571Y-70540714D01*
X168298809Y-70493095D01*
X168536904Y-70493095D01*
X168632142Y-70540714D01*
X168679761Y-70588333D01*
X168727380Y-70683571D01*
X168727380Y-70969285D01*
X168679761Y-71064523D01*
X168632142Y-71112142D01*
X164282380Y-72397857D02*
X163806190Y-72731190D01*
X164282380Y-72969285D02*
X163282380Y-72969285D01*
X163282380Y-72588333D01*
X163330000Y-72493095D01*
X163377619Y-72445476D01*
X163472857Y-72397857D01*
X163615714Y-72397857D01*
X163710952Y-72445476D01*
X163758571Y-72493095D01*
X163806190Y-72588333D01*
X163806190Y-72969285D01*
X164282380Y-71445476D02*
X164282380Y-72016904D01*
X164282380Y-71731190D02*
X163282380Y-71731190D01*
X163425238Y-71826428D01*
X163520476Y-71921666D01*
X163568095Y-72016904D01*
X164282380Y-70969285D02*
X164282380Y-70778809D01*
X164234761Y-70683571D01*
X164187142Y-70635952D01*
X164044285Y-70540714D01*
X163853809Y-70493095D01*
X163472857Y-70493095D01*
X163377619Y-70540714D01*
X163330000Y-70588333D01*
X163282380Y-70683571D01*
X163282380Y-70874047D01*
X163330000Y-70969285D01*
X163377619Y-71016904D01*
X163472857Y-71064523D01*
X163710952Y-71064523D01*
X163806190Y-71016904D01*
X163853809Y-70969285D01*
X163901428Y-70874047D01*
X163901428Y-70683571D01*
X163853809Y-70588333D01*
X163806190Y-70540714D01*
X163710952Y-70493095D01*
X141422380Y-72397857D02*
X140946190Y-72731190D01*
X141422380Y-72969285D02*
X140422380Y-72969285D01*
X140422380Y-72588333D01*
X140470000Y-72493095D01*
X140517619Y-72445476D01*
X140612857Y-72397857D01*
X140755714Y-72397857D01*
X140850952Y-72445476D01*
X140898571Y-72493095D01*
X140946190Y-72588333D01*
X140946190Y-72969285D01*
X140517619Y-72016904D02*
X140470000Y-71969285D01*
X140422380Y-71874047D01*
X140422380Y-71635952D01*
X140470000Y-71540714D01*
X140517619Y-71493095D01*
X140612857Y-71445476D01*
X140708095Y-71445476D01*
X140850952Y-71493095D01*
X141422380Y-72064523D01*
X141422380Y-71445476D01*
X140422380Y-70826428D02*
X140422380Y-70731190D01*
X140470000Y-70635952D01*
X140517619Y-70588333D01*
X140612857Y-70540714D01*
X140803333Y-70493095D01*
X141041428Y-70493095D01*
X141231904Y-70540714D01*
X141327142Y-70588333D01*
X141374761Y-70635952D01*
X141422380Y-70731190D01*
X141422380Y-70826428D01*
X141374761Y-70921666D01*
X141327142Y-70969285D01*
X141231904Y-71016904D01*
X141041428Y-71064523D01*
X140803333Y-71064523D01*
X140612857Y-71016904D01*
X140517619Y-70969285D01*
X140470000Y-70921666D01*
X140422380Y-70826428D01*
X121737380Y-72397857D02*
X121261190Y-72731190D01*
X121737380Y-72969285D02*
X120737380Y-72969285D01*
X120737380Y-72588333D01*
X120785000Y-72493095D01*
X120832619Y-72445476D01*
X120927857Y-72397857D01*
X121070714Y-72397857D01*
X121165952Y-72445476D01*
X121213571Y-72493095D01*
X121261190Y-72588333D01*
X121261190Y-72969285D01*
X120832619Y-72016904D02*
X120785000Y-71969285D01*
X120737380Y-71874047D01*
X120737380Y-71635952D01*
X120785000Y-71540714D01*
X120832619Y-71493095D01*
X120927857Y-71445476D01*
X121023095Y-71445476D01*
X121165952Y-71493095D01*
X121737380Y-72064523D01*
X121737380Y-71445476D01*
X120832619Y-71064523D02*
X120785000Y-71016904D01*
X120737380Y-70921666D01*
X120737380Y-70683571D01*
X120785000Y-70588333D01*
X120832619Y-70540714D01*
X120927857Y-70493095D01*
X121023095Y-70493095D01*
X121165952Y-70540714D01*
X121737380Y-71112142D01*
X121737380Y-70493095D01*
X125547380Y-72397857D02*
X125071190Y-72731190D01*
X125547380Y-72969285D02*
X124547380Y-72969285D01*
X124547380Y-72588333D01*
X124595000Y-72493095D01*
X124642619Y-72445476D01*
X124737857Y-72397857D01*
X124880714Y-72397857D01*
X124975952Y-72445476D01*
X125023571Y-72493095D01*
X125071190Y-72588333D01*
X125071190Y-72969285D01*
X124642619Y-72016904D02*
X124595000Y-71969285D01*
X124547380Y-71874047D01*
X124547380Y-71635952D01*
X124595000Y-71540714D01*
X124642619Y-71493095D01*
X124737857Y-71445476D01*
X124833095Y-71445476D01*
X124975952Y-71493095D01*
X125547380Y-72064523D01*
X125547380Y-71445476D01*
X124547380Y-71112142D02*
X124547380Y-70493095D01*
X124928333Y-70826428D01*
X124928333Y-70683571D01*
X124975952Y-70588333D01*
X125023571Y-70540714D01*
X125118809Y-70493095D01*
X125356904Y-70493095D01*
X125452142Y-70540714D01*
X125499761Y-70588333D01*
X125547380Y-70683571D01*
X125547380Y-70969285D01*
X125499761Y-71064523D01*
X125452142Y-71112142D01*
X129357380Y-72397857D02*
X128881190Y-72731190D01*
X129357380Y-72969285D02*
X128357380Y-72969285D01*
X128357380Y-72588333D01*
X128405000Y-72493095D01*
X128452619Y-72445476D01*
X128547857Y-72397857D01*
X128690714Y-72397857D01*
X128785952Y-72445476D01*
X128833571Y-72493095D01*
X128881190Y-72588333D01*
X128881190Y-72969285D01*
X128452619Y-72016904D02*
X128405000Y-71969285D01*
X128357380Y-71874047D01*
X128357380Y-71635952D01*
X128405000Y-71540714D01*
X128452619Y-71493095D01*
X128547857Y-71445476D01*
X128643095Y-71445476D01*
X128785952Y-71493095D01*
X129357380Y-72064523D01*
X129357380Y-71445476D01*
X128690714Y-70588333D02*
X129357380Y-70588333D01*
X128309761Y-70826428D02*
X129024047Y-71064523D01*
X129024047Y-70445476D01*
X133167380Y-72397857D02*
X132691190Y-72731190D01*
X133167380Y-72969285D02*
X132167380Y-72969285D01*
X132167380Y-72588333D01*
X132215000Y-72493095D01*
X132262619Y-72445476D01*
X132357857Y-72397857D01*
X132500714Y-72397857D01*
X132595952Y-72445476D01*
X132643571Y-72493095D01*
X132691190Y-72588333D01*
X132691190Y-72969285D01*
X132262619Y-72016904D02*
X132215000Y-71969285D01*
X132167380Y-71874047D01*
X132167380Y-71635952D01*
X132215000Y-71540714D01*
X132262619Y-71493095D01*
X132357857Y-71445476D01*
X132453095Y-71445476D01*
X132595952Y-71493095D01*
X133167380Y-72064523D01*
X133167380Y-71445476D01*
X132167380Y-70540714D02*
X132167380Y-71016904D01*
X132643571Y-71064523D01*
X132595952Y-71016904D01*
X132548333Y-70921666D01*
X132548333Y-70683571D01*
X132595952Y-70588333D01*
X132643571Y-70540714D01*
X132738809Y-70493095D01*
X132976904Y-70493095D01*
X133072142Y-70540714D01*
X133119761Y-70588333D01*
X133167380Y-70683571D01*
X133167380Y-70921666D01*
X133119761Y-71016904D01*
X133072142Y-71064523D01*
X136977380Y-72397857D02*
X136501190Y-72731190D01*
X136977380Y-72969285D02*
X135977380Y-72969285D01*
X135977380Y-72588333D01*
X136025000Y-72493095D01*
X136072619Y-72445476D01*
X136167857Y-72397857D01*
X136310714Y-72397857D01*
X136405952Y-72445476D01*
X136453571Y-72493095D01*
X136501190Y-72588333D01*
X136501190Y-72969285D01*
X136072619Y-72016904D02*
X136025000Y-71969285D01*
X135977380Y-71874047D01*
X135977380Y-71635952D01*
X136025000Y-71540714D01*
X136072619Y-71493095D01*
X136167857Y-71445476D01*
X136263095Y-71445476D01*
X136405952Y-71493095D01*
X136977380Y-72064523D01*
X136977380Y-71445476D01*
X135977380Y-70588333D02*
X135977380Y-70778809D01*
X136025000Y-70874047D01*
X136072619Y-70921666D01*
X136215476Y-71016904D01*
X136405952Y-71064523D01*
X136786904Y-71064523D01*
X136882142Y-71016904D01*
X136929761Y-70969285D01*
X136977380Y-70874047D01*
X136977380Y-70683571D01*
X136929761Y-70588333D01*
X136882142Y-70540714D01*
X136786904Y-70493095D01*
X136548809Y-70493095D01*
X136453571Y-70540714D01*
X136405952Y-70588333D01*
X136358333Y-70683571D01*
X136358333Y-70874047D01*
X136405952Y-70969285D01*
X136453571Y-71016904D01*
X136548809Y-71064523D01*
X114117380Y-72397857D02*
X113641190Y-72731190D01*
X114117380Y-72969285D02*
X113117380Y-72969285D01*
X113117380Y-72588333D01*
X113165000Y-72493095D01*
X113212619Y-72445476D01*
X113307857Y-72397857D01*
X113450714Y-72397857D01*
X113545952Y-72445476D01*
X113593571Y-72493095D01*
X113641190Y-72588333D01*
X113641190Y-72969285D01*
X113212619Y-72016904D02*
X113165000Y-71969285D01*
X113117380Y-71874047D01*
X113117380Y-71635952D01*
X113165000Y-71540714D01*
X113212619Y-71493095D01*
X113307857Y-71445476D01*
X113403095Y-71445476D01*
X113545952Y-71493095D01*
X114117380Y-72064523D01*
X114117380Y-71445476D01*
X113117380Y-71112142D02*
X113117380Y-70445476D01*
X114117380Y-70874047D01*
X117927380Y-72397857D02*
X117451190Y-72731190D01*
X117927380Y-72969285D02*
X116927380Y-72969285D01*
X116927380Y-72588333D01*
X116975000Y-72493095D01*
X117022619Y-72445476D01*
X117117857Y-72397857D01*
X117260714Y-72397857D01*
X117355952Y-72445476D01*
X117403571Y-72493095D01*
X117451190Y-72588333D01*
X117451190Y-72969285D01*
X117022619Y-72016904D02*
X116975000Y-71969285D01*
X116927380Y-71874047D01*
X116927380Y-71635952D01*
X116975000Y-71540714D01*
X117022619Y-71493095D01*
X117117857Y-71445476D01*
X117213095Y-71445476D01*
X117355952Y-71493095D01*
X117927380Y-72064523D01*
X117927380Y-71445476D01*
X117355952Y-70874047D02*
X117308333Y-70969285D01*
X117260714Y-71016904D01*
X117165476Y-71064523D01*
X117117857Y-71064523D01*
X117022619Y-71016904D01*
X116975000Y-70969285D01*
X116927380Y-70874047D01*
X116927380Y-70683571D01*
X116975000Y-70588333D01*
X117022619Y-70540714D01*
X117117857Y-70493095D01*
X117165476Y-70493095D01*
X117260714Y-70540714D01*
X117308333Y-70588333D01*
X117355952Y-70683571D01*
X117355952Y-70874047D01*
X117403571Y-70969285D01*
X117451190Y-71016904D01*
X117546428Y-71064523D01*
X117736904Y-71064523D01*
X117832142Y-71016904D01*
X117879761Y-70969285D01*
X117927380Y-70874047D01*
X117927380Y-70683571D01*
X117879761Y-70588333D01*
X117832142Y-70540714D01*
X117736904Y-70493095D01*
X117546428Y-70493095D01*
X117451190Y-70540714D01*
X117403571Y-70588333D01*
X117355952Y-70683571D01*
X93162380Y-72397857D02*
X92686190Y-72731190D01*
X93162380Y-72969285D02*
X92162380Y-72969285D01*
X92162380Y-72588333D01*
X92210000Y-72493095D01*
X92257619Y-72445476D01*
X92352857Y-72397857D01*
X92495714Y-72397857D01*
X92590952Y-72445476D01*
X92638571Y-72493095D01*
X92686190Y-72588333D01*
X92686190Y-72969285D01*
X92257619Y-72016904D02*
X92210000Y-71969285D01*
X92162380Y-71874047D01*
X92162380Y-71635952D01*
X92210000Y-71540714D01*
X92257619Y-71493095D01*
X92352857Y-71445476D01*
X92448095Y-71445476D01*
X92590952Y-71493095D01*
X93162380Y-72064523D01*
X93162380Y-71445476D01*
X93162380Y-70969285D02*
X93162380Y-70778809D01*
X93114761Y-70683571D01*
X93067142Y-70635952D01*
X92924285Y-70540714D01*
X92733809Y-70493095D01*
X92352857Y-70493095D01*
X92257619Y-70540714D01*
X92210000Y-70588333D01*
X92162380Y-70683571D01*
X92162380Y-70874047D01*
X92210000Y-70969285D01*
X92257619Y-71016904D01*
X92352857Y-71064523D01*
X92590952Y-71064523D01*
X92686190Y-71016904D01*
X92733809Y-70969285D01*
X92781428Y-70874047D01*
X92781428Y-70683571D01*
X92733809Y-70588333D01*
X92686190Y-70540714D01*
X92590952Y-70493095D01*
X96972380Y-72397857D02*
X96496190Y-72731190D01*
X96972380Y-72969285D02*
X95972380Y-72969285D01*
X95972380Y-72588333D01*
X96020000Y-72493095D01*
X96067619Y-72445476D01*
X96162857Y-72397857D01*
X96305714Y-72397857D01*
X96400952Y-72445476D01*
X96448571Y-72493095D01*
X96496190Y-72588333D01*
X96496190Y-72969285D01*
X95972380Y-72064523D02*
X95972380Y-71445476D01*
X96353333Y-71778809D01*
X96353333Y-71635952D01*
X96400952Y-71540714D01*
X96448571Y-71493095D01*
X96543809Y-71445476D01*
X96781904Y-71445476D01*
X96877142Y-71493095D01*
X96924761Y-71540714D01*
X96972380Y-71635952D01*
X96972380Y-71921666D01*
X96924761Y-72016904D01*
X96877142Y-72064523D01*
X95972380Y-70826428D02*
X95972380Y-70731190D01*
X96020000Y-70635952D01*
X96067619Y-70588333D01*
X96162857Y-70540714D01*
X96353333Y-70493095D01*
X96591428Y-70493095D01*
X96781904Y-70540714D01*
X96877142Y-70588333D01*
X96924761Y-70635952D01*
X96972380Y-70731190D01*
X96972380Y-70826428D01*
X96924761Y-70921666D01*
X96877142Y-70969285D01*
X96781904Y-71016904D01*
X96591428Y-71064523D01*
X96353333Y-71064523D01*
X96162857Y-71016904D01*
X96067619Y-70969285D01*
X96020000Y-70921666D01*
X95972380Y-70826428D01*
X100782380Y-72397857D02*
X100306190Y-72731190D01*
X100782380Y-72969285D02*
X99782380Y-72969285D01*
X99782380Y-72588333D01*
X99830000Y-72493095D01*
X99877619Y-72445476D01*
X99972857Y-72397857D01*
X100115714Y-72397857D01*
X100210952Y-72445476D01*
X100258571Y-72493095D01*
X100306190Y-72588333D01*
X100306190Y-72969285D01*
X99782380Y-72064523D02*
X99782380Y-71445476D01*
X100163333Y-71778809D01*
X100163333Y-71635952D01*
X100210952Y-71540714D01*
X100258571Y-71493095D01*
X100353809Y-71445476D01*
X100591904Y-71445476D01*
X100687142Y-71493095D01*
X100734761Y-71540714D01*
X100782380Y-71635952D01*
X100782380Y-71921666D01*
X100734761Y-72016904D01*
X100687142Y-72064523D01*
X100782380Y-70493095D02*
X100782380Y-71064523D01*
X100782380Y-70778809D02*
X99782380Y-70778809D01*
X99925238Y-70874047D01*
X100020476Y-70969285D01*
X100068095Y-71064523D01*
X104592380Y-72397857D02*
X104116190Y-72731190D01*
X104592380Y-72969285D02*
X103592380Y-72969285D01*
X103592380Y-72588333D01*
X103640000Y-72493095D01*
X103687619Y-72445476D01*
X103782857Y-72397857D01*
X103925714Y-72397857D01*
X104020952Y-72445476D01*
X104068571Y-72493095D01*
X104116190Y-72588333D01*
X104116190Y-72969285D01*
X103592380Y-72064523D02*
X103592380Y-71445476D01*
X103973333Y-71778809D01*
X103973333Y-71635952D01*
X104020952Y-71540714D01*
X104068571Y-71493095D01*
X104163809Y-71445476D01*
X104401904Y-71445476D01*
X104497142Y-71493095D01*
X104544761Y-71540714D01*
X104592380Y-71635952D01*
X104592380Y-71921666D01*
X104544761Y-72016904D01*
X104497142Y-72064523D01*
X103687619Y-71064523D02*
X103640000Y-71016904D01*
X103592380Y-70921666D01*
X103592380Y-70683571D01*
X103640000Y-70588333D01*
X103687619Y-70540714D01*
X103782857Y-70493095D01*
X103878095Y-70493095D01*
X104020952Y-70540714D01*
X104592380Y-71112142D01*
X104592380Y-70493095D01*
X85542380Y-72397857D02*
X85066190Y-72731190D01*
X85542380Y-72969285D02*
X84542380Y-72969285D01*
X84542380Y-72588333D01*
X84590000Y-72493095D01*
X84637619Y-72445476D01*
X84732857Y-72397857D01*
X84875714Y-72397857D01*
X84970952Y-72445476D01*
X85018571Y-72493095D01*
X85066190Y-72588333D01*
X85066190Y-72969285D01*
X84542380Y-72064523D02*
X84542380Y-71445476D01*
X84923333Y-71778809D01*
X84923333Y-71635952D01*
X84970952Y-71540714D01*
X85018571Y-71493095D01*
X85113809Y-71445476D01*
X85351904Y-71445476D01*
X85447142Y-71493095D01*
X85494761Y-71540714D01*
X85542380Y-71635952D01*
X85542380Y-71921666D01*
X85494761Y-72016904D01*
X85447142Y-72064523D01*
X84875714Y-70588333D02*
X85542380Y-70588333D01*
X84494761Y-70826428D02*
X85209047Y-71064523D01*
X85209047Y-70445476D01*
X89352380Y-72397857D02*
X88876190Y-72731190D01*
X89352380Y-72969285D02*
X88352380Y-72969285D01*
X88352380Y-72588333D01*
X88400000Y-72493095D01*
X88447619Y-72445476D01*
X88542857Y-72397857D01*
X88685714Y-72397857D01*
X88780952Y-72445476D01*
X88828571Y-72493095D01*
X88876190Y-72588333D01*
X88876190Y-72969285D01*
X88352380Y-72064523D02*
X88352380Y-71445476D01*
X88733333Y-71778809D01*
X88733333Y-71635952D01*
X88780952Y-71540714D01*
X88828571Y-71493095D01*
X88923809Y-71445476D01*
X89161904Y-71445476D01*
X89257142Y-71493095D01*
X89304761Y-71540714D01*
X89352380Y-71635952D01*
X89352380Y-71921666D01*
X89304761Y-72016904D01*
X89257142Y-72064523D01*
X88352380Y-70540714D02*
X88352380Y-71016904D01*
X88828571Y-71064523D01*
X88780952Y-71016904D01*
X88733333Y-70921666D01*
X88733333Y-70683571D01*
X88780952Y-70588333D01*
X88828571Y-70540714D01*
X88923809Y-70493095D01*
X89161904Y-70493095D01*
X89257142Y-70540714D01*
X89304761Y-70588333D01*
X89352380Y-70683571D01*
X89352380Y-70921666D01*
X89304761Y-71016904D01*
X89257142Y-71064523D01*
X34742380Y-72145606D02*
X34266190Y-72478939D01*
X34742380Y-72717034D02*
X33742380Y-72717034D01*
X33742380Y-72336082D01*
X33790000Y-72240844D01*
X33837619Y-72193225D01*
X33932857Y-72145606D01*
X34075714Y-72145606D01*
X34170952Y-72193225D01*
X34218571Y-72240844D01*
X34266190Y-72336082D01*
X34266190Y-72717034D01*
X34075714Y-71288463D02*
X34742380Y-71288463D01*
X33694761Y-71526558D02*
X34409047Y-71764653D01*
X34409047Y-71145606D01*
X34742380Y-70717034D02*
X34742380Y-70526558D01*
X34694761Y-70431320D01*
X34647142Y-70383701D01*
X34504285Y-70288463D01*
X34313809Y-70240844D01*
X33932857Y-70240844D01*
X33837619Y-70288463D01*
X33790000Y-70336082D01*
X33742380Y-70431320D01*
X33742380Y-70621796D01*
X33790000Y-70717034D01*
X33837619Y-70764653D01*
X33932857Y-70812272D01*
X34170952Y-70812272D01*
X34266190Y-70764653D01*
X34313809Y-70717034D01*
X34361428Y-70621796D01*
X34361428Y-70431320D01*
X34313809Y-70336082D01*
X34266190Y-70288463D01*
X34170952Y-70240844D01*
X84157380Y-61086904D02*
X84157380Y-60515476D01*
X85157380Y-60801190D02*
X84157380Y-60801190D01*
X85157380Y-59658333D02*
X85157380Y-60229761D01*
X85157380Y-59944047D02*
X84157380Y-59944047D01*
X84300238Y-60039285D01*
X84395476Y-60134523D01*
X84443095Y-60229761D01*
X158837380Y-119571904D02*
X159646904Y-119571904D01*
X159742142Y-119524285D01*
X159789761Y-119476666D01*
X159837380Y-119381428D01*
X159837380Y-119190952D01*
X159789761Y-119095714D01*
X159742142Y-119048095D01*
X159646904Y-119000476D01*
X158837380Y-119000476D01*
X159837380Y-118000476D02*
X159837380Y-118571904D01*
X159837380Y-118286190D02*
X158837380Y-118286190D01*
X158980238Y-118381428D01*
X159075476Y-118476666D01*
X159123095Y-118571904D01*
X184872380Y-119571904D02*
X185681904Y-119571904D01*
X185777142Y-119524285D01*
X185824761Y-119476666D01*
X185872380Y-119381428D01*
X185872380Y-119190952D01*
X185824761Y-119095714D01*
X185777142Y-119048095D01*
X185681904Y-119000476D01*
X184872380Y-119000476D01*
X184967619Y-118571904D02*
X184920000Y-118524285D01*
X184872380Y-118429047D01*
X184872380Y-118190952D01*
X184920000Y-118095714D01*
X184967619Y-118048095D01*
X185062857Y-118000476D01*
X185158095Y-118000476D01*
X185300952Y-118048095D01*
X185872380Y-118619523D01*
X185872380Y-118000476D01*
X184872380Y-104901904D02*
X185681904Y-104901904D01*
X185777142Y-104854285D01*
X185824761Y-104806666D01*
X185872380Y-104711428D01*
X185872380Y-104520952D01*
X185824761Y-104425714D01*
X185777142Y-104378095D01*
X185681904Y-104330476D01*
X184872380Y-104330476D01*
X184872380Y-103949523D02*
X184872380Y-103330476D01*
X185253333Y-103663809D01*
X185253333Y-103520952D01*
X185300952Y-103425714D01*
X185348571Y-103378095D01*
X185443809Y-103330476D01*
X185681904Y-103330476D01*
X185777142Y-103378095D01*
X185824761Y-103425714D01*
X185872380Y-103520952D01*
X185872380Y-103806666D01*
X185824761Y-103901904D01*
X185777142Y-103949523D01*
X183602380Y-88391904D02*
X184411904Y-88391904D01*
X184507142Y-88344285D01*
X184554761Y-88296666D01*
X184602380Y-88201428D01*
X184602380Y-88010952D01*
X184554761Y-87915714D01*
X184507142Y-87868095D01*
X184411904Y-87820476D01*
X183602380Y-87820476D01*
X183935714Y-86915714D02*
X184602380Y-86915714D01*
X183554761Y-87153809D02*
X184269047Y-87391904D01*
X184269047Y-86772857D01*
X129627380Y-104901904D02*
X130436904Y-104901904D01*
X130532142Y-104854285D01*
X130579761Y-104806666D01*
X130627380Y-104711428D01*
X130627380Y-104520952D01*
X130579761Y-104425714D01*
X130532142Y-104378095D01*
X130436904Y-104330476D01*
X129627380Y-104330476D01*
X129627380Y-103949523D02*
X129627380Y-103282857D01*
X130627380Y-103711428D01*
X128992380Y-88391904D02*
X129801904Y-88391904D01*
X129897142Y-88344285D01*
X129944761Y-88296666D01*
X129992380Y-88201428D01*
X129992380Y-88010952D01*
X129944761Y-87915714D01*
X129897142Y-87868095D01*
X129801904Y-87820476D01*
X128992380Y-87820476D01*
X129420952Y-87201428D02*
X129373333Y-87296666D01*
X129325714Y-87344285D01*
X129230476Y-87391904D01*
X129182857Y-87391904D01*
X129087619Y-87344285D01*
X129040000Y-87296666D01*
X128992380Y-87201428D01*
X128992380Y-87010952D01*
X129040000Y-86915714D01*
X129087619Y-86868095D01*
X129182857Y-86820476D01*
X129230476Y-86820476D01*
X129325714Y-86868095D01*
X129373333Y-86915714D01*
X129420952Y-87010952D01*
X129420952Y-87201428D01*
X129468571Y-87296666D01*
X129516190Y-87344285D01*
X129611428Y-87391904D01*
X129801904Y-87391904D01*
X129897142Y-87344285D01*
X129944761Y-87296666D01*
X129992380Y-87201428D01*
X129992380Y-87010952D01*
X129944761Y-86915714D01*
X129897142Y-86868095D01*
X129801904Y-86820476D01*
X129611428Y-86820476D01*
X129516190Y-86868095D01*
X129468571Y-86915714D01*
X129420952Y-87010952D01*
X101052380Y-104901904D02*
X101861904Y-104901904D01*
X101957142Y-104854285D01*
X102004761Y-104806666D01*
X102052380Y-104711428D01*
X102052380Y-104520952D01*
X102004761Y-104425714D01*
X101957142Y-104378095D01*
X101861904Y-104330476D01*
X101052380Y-104330476D01*
X102052380Y-103806666D02*
X102052380Y-103616190D01*
X102004761Y-103520952D01*
X101957142Y-103473333D01*
X101814285Y-103378095D01*
X101623809Y-103330476D01*
X101242857Y-103330476D01*
X101147619Y-103378095D01*
X101100000Y-103425714D01*
X101052380Y-103520952D01*
X101052380Y-103711428D01*
X101100000Y-103806666D01*
X101147619Y-103854285D01*
X101242857Y-103901904D01*
X101480952Y-103901904D01*
X101576190Y-103854285D01*
X101623809Y-103806666D01*
X101671428Y-103711428D01*
X101671428Y-103520952D01*
X101623809Y-103425714D01*
X101576190Y-103378095D01*
X101480952Y-103330476D01*
X100417380Y-88868095D02*
X101226904Y-88868095D01*
X101322142Y-88820476D01*
X101369761Y-88772857D01*
X101417380Y-88677619D01*
X101417380Y-88487142D01*
X101369761Y-88391904D01*
X101322142Y-88344285D01*
X101226904Y-88296666D01*
X100417380Y-88296666D01*
X101417380Y-87296666D02*
X101417380Y-87868095D01*
X101417380Y-87582380D02*
X100417380Y-87582380D01*
X100560238Y-87677619D01*
X100655476Y-87772857D01*
X100703095Y-87868095D01*
X100417380Y-86677619D02*
X100417380Y-86582380D01*
X100465000Y-86487142D01*
X100512619Y-86439523D01*
X100607857Y-86391904D01*
X100798333Y-86344285D01*
X101036428Y-86344285D01*
X101226904Y-86391904D01*
X101322142Y-86439523D01*
X101369761Y-86487142D01*
X101417380Y-86582380D01*
X101417380Y-86677619D01*
X101369761Y-86772857D01*
X101322142Y-86820476D01*
X101226904Y-86868095D01*
X101036428Y-86915714D01*
X100798333Y-86915714D01*
X100607857Y-86868095D01*
X100512619Y-86820476D01*
X100465000Y-86772857D01*
X100417380Y-86677619D01*
X45807380Y-88868095D02*
X46616904Y-88868095D01*
X46712142Y-88820476D01*
X46759761Y-88772857D01*
X46807380Y-88677619D01*
X46807380Y-88487142D01*
X46759761Y-88391904D01*
X46712142Y-88344285D01*
X46616904Y-88296666D01*
X45807380Y-88296666D01*
X46807380Y-87296666D02*
X46807380Y-87868095D01*
X46807380Y-87582380D02*
X45807380Y-87582380D01*
X45950238Y-87677619D01*
X46045476Y-87772857D01*
X46093095Y-87868095D01*
X46140714Y-86439523D02*
X46807380Y-86439523D01*
X45759761Y-86677619D02*
X46474047Y-86915714D01*
X46474047Y-86296666D01*
X101052380Y-120048095D02*
X101861904Y-120048095D01*
X101957142Y-120000476D01*
X102004761Y-119952857D01*
X102052380Y-119857619D01*
X102052380Y-119667142D01*
X102004761Y-119571904D01*
X101957142Y-119524285D01*
X101861904Y-119476666D01*
X101052380Y-119476666D01*
X102052380Y-118476666D02*
X102052380Y-119048095D01*
X102052380Y-118762380D02*
X101052380Y-118762380D01*
X101195238Y-118857619D01*
X101290476Y-118952857D01*
X101338095Y-119048095D01*
X101052380Y-117571904D02*
X101052380Y-118048095D01*
X101528571Y-118095714D01*
X101480952Y-118048095D01*
X101433333Y-117952857D01*
X101433333Y-117714761D01*
X101480952Y-117619523D01*
X101528571Y-117571904D01*
X101623809Y-117524285D01*
X101861904Y-117524285D01*
X101957142Y-117571904D01*
X102004761Y-117619523D01*
X102052380Y-117714761D01*
X102052380Y-117952857D01*
X102004761Y-118048095D01*
X101957142Y-118095714D01*
X129627380Y-120048095D02*
X130436904Y-120048095D01*
X130532142Y-120000476D01*
X130579761Y-119952857D01*
X130627380Y-119857619D01*
X130627380Y-119667142D01*
X130579761Y-119571904D01*
X130532142Y-119524285D01*
X130436904Y-119476666D01*
X129627380Y-119476666D01*
X130627380Y-118476666D02*
X130627380Y-119048095D01*
X130627380Y-118762380D02*
X129627380Y-118762380D01*
X129770238Y-118857619D01*
X129865476Y-118952857D01*
X129913095Y-119048095D01*
X129627380Y-117619523D02*
X129627380Y-117810000D01*
X129675000Y-117905238D01*
X129722619Y-117952857D01*
X129865476Y-118048095D01*
X130055952Y-118095714D01*
X130436904Y-118095714D01*
X130532142Y-118048095D01*
X130579761Y-118000476D01*
X130627380Y-117905238D01*
X130627380Y-117714761D01*
X130579761Y-117619523D01*
X130532142Y-117571904D01*
X130436904Y-117524285D01*
X130198809Y-117524285D01*
X130103571Y-117571904D01*
X130055952Y-117619523D01*
X130008333Y-117714761D01*
X130008333Y-117905238D01*
X130055952Y-118000476D01*
X130103571Y-118048095D01*
X130198809Y-118095714D01*
X135342380Y-135096095D02*
X136151904Y-135096095D01*
X136247142Y-135048476D01*
X136294761Y-135000857D01*
X136342380Y-134905619D01*
X136342380Y-134715142D01*
X136294761Y-134619904D01*
X136247142Y-134572285D01*
X136151904Y-134524666D01*
X135342380Y-134524666D01*
X136342380Y-133524666D02*
X136342380Y-134096095D01*
X136342380Y-133810380D02*
X135342380Y-133810380D01*
X135485238Y-133905619D01*
X135580476Y-134000857D01*
X135628095Y-134096095D01*
X135342380Y-133191333D02*
X135342380Y-132524666D01*
X136342380Y-132953238D01*
X38548333Y-98742142D02*
X38500714Y-98789761D01*
X38357857Y-98837380D01*
X38262619Y-98837380D01*
X38119761Y-98789761D01*
X38024523Y-98694523D01*
X37976904Y-98599285D01*
X37929285Y-98408809D01*
X37929285Y-98265952D01*
X37976904Y-98075476D01*
X38024523Y-97980238D01*
X38119761Y-97885000D01*
X38262619Y-97837380D01*
X38357857Y-97837380D01*
X38500714Y-97885000D01*
X38548333Y-97932619D01*
X38881666Y-97837380D02*
X39548333Y-97837380D01*
X39119761Y-98837380D01*
X171212142Y-121451666D02*
X171259761Y-121499285D01*
X171307380Y-121642142D01*
X171307380Y-121737380D01*
X171259761Y-121880238D01*
X171164523Y-121975476D01*
X171069285Y-122023095D01*
X170878809Y-122070714D01*
X170735952Y-122070714D01*
X170545476Y-122023095D01*
X170450238Y-121975476D01*
X170355000Y-121880238D01*
X170307380Y-121737380D01*
X170307380Y-121642142D01*
X170355000Y-121499285D01*
X170402619Y-121451666D01*
X170735952Y-120880238D02*
X170688333Y-120975476D01*
X170640714Y-121023095D01*
X170545476Y-121070714D01*
X170497857Y-121070714D01*
X170402619Y-121023095D01*
X170355000Y-120975476D01*
X170307380Y-120880238D01*
X170307380Y-120689761D01*
X170355000Y-120594523D01*
X170402619Y-120546904D01*
X170497857Y-120499285D01*
X170545476Y-120499285D01*
X170640714Y-120546904D01*
X170688333Y-120594523D01*
X170735952Y-120689761D01*
X170735952Y-120880238D01*
X170783571Y-120975476D01*
X170831190Y-121023095D01*
X170926428Y-121070714D01*
X171116904Y-121070714D01*
X171212142Y-121023095D01*
X171259761Y-120975476D01*
X171307380Y-120880238D01*
X171307380Y-120689761D01*
X171259761Y-120594523D01*
X171212142Y-120546904D01*
X171116904Y-120499285D01*
X170926428Y-120499285D01*
X170831190Y-120546904D01*
X170783571Y-120594523D01*
X170735952Y-120689761D01*
X67143333Y-98742142D02*
X67095714Y-98789761D01*
X66952857Y-98837380D01*
X66857619Y-98837380D01*
X66714761Y-98789761D01*
X66619523Y-98694523D01*
X66571904Y-98599285D01*
X66524285Y-98408809D01*
X66524285Y-98265952D01*
X66571904Y-98075476D01*
X66619523Y-97980238D01*
X66714761Y-97885000D01*
X66857619Y-97837380D01*
X66952857Y-97837380D01*
X67095714Y-97885000D01*
X67143333Y-97932619D01*
X67619523Y-98837380D02*
X67810000Y-98837380D01*
X67905238Y-98789761D01*
X67952857Y-98742142D01*
X68048095Y-98599285D01*
X68095714Y-98408809D01*
X68095714Y-98027857D01*
X68048095Y-97932619D01*
X68000476Y-97885000D01*
X67905238Y-97837380D01*
X67714761Y-97837380D01*
X67619523Y-97885000D01*
X67571904Y-97932619D01*
X67524285Y-98027857D01*
X67524285Y-98265952D01*
X67571904Y-98361190D01*
X67619523Y-98408809D01*
X67714761Y-98456428D01*
X67905238Y-98456428D01*
X68000476Y-98408809D01*
X68048095Y-98361190D01*
X68095714Y-98265952D01*
X60047142Y-90177857D02*
X60094761Y-90225476D01*
X60142380Y-90368333D01*
X60142380Y-90463571D01*
X60094761Y-90606428D01*
X59999523Y-90701666D01*
X59904285Y-90749285D01*
X59713809Y-90796904D01*
X59570952Y-90796904D01*
X59380476Y-90749285D01*
X59285238Y-90701666D01*
X59190000Y-90606428D01*
X59142380Y-90463571D01*
X59142380Y-90368333D01*
X59190000Y-90225476D01*
X59237619Y-90177857D01*
X60142380Y-89225476D02*
X60142380Y-89796904D01*
X60142380Y-89511190D02*
X59142380Y-89511190D01*
X59285238Y-89606428D01*
X59380476Y-89701666D01*
X59428095Y-89796904D01*
X59142380Y-88606428D02*
X59142380Y-88511190D01*
X59190000Y-88415952D01*
X59237619Y-88368333D01*
X59332857Y-88320714D01*
X59523333Y-88273095D01*
X59761428Y-88273095D01*
X59951904Y-88320714D01*
X60047142Y-88368333D01*
X60094761Y-88415952D01*
X60142380Y-88511190D01*
X60142380Y-88606428D01*
X60094761Y-88701666D01*
X60047142Y-88749285D01*
X59951904Y-88796904D01*
X59761428Y-88844523D01*
X59523333Y-88844523D01*
X59332857Y-88796904D01*
X59237619Y-88749285D01*
X59190000Y-88701666D01*
X59142380Y-88606428D01*
X180967142Y-98742142D02*
X180919523Y-98789761D01*
X180776666Y-98837380D01*
X180681428Y-98837380D01*
X180538571Y-98789761D01*
X180443333Y-98694523D01*
X180395714Y-98599285D01*
X180348095Y-98408809D01*
X180348095Y-98265952D01*
X180395714Y-98075476D01*
X180443333Y-97980238D01*
X180538571Y-97885000D01*
X180681428Y-97837380D01*
X180776666Y-97837380D01*
X180919523Y-97885000D01*
X180967142Y-97932619D01*
X181919523Y-98837380D02*
X181348095Y-98837380D01*
X181633809Y-98837380D02*
X181633809Y-97837380D01*
X181538571Y-97980238D01*
X181443333Y-98075476D01*
X181348095Y-98123095D01*
X182871904Y-98837380D02*
X182300476Y-98837380D01*
X182586190Y-98837380D02*
X182586190Y-97837380D01*
X182490952Y-97980238D01*
X182395714Y-98075476D01*
X182300476Y-98123095D01*
X123182142Y-98742142D02*
X123134523Y-98789761D01*
X122991666Y-98837380D01*
X122896428Y-98837380D01*
X122753571Y-98789761D01*
X122658333Y-98694523D01*
X122610714Y-98599285D01*
X122563095Y-98408809D01*
X122563095Y-98265952D01*
X122610714Y-98075476D01*
X122658333Y-97980238D01*
X122753571Y-97885000D01*
X122896428Y-97837380D01*
X122991666Y-97837380D01*
X123134523Y-97885000D01*
X123182142Y-97932619D01*
X124134523Y-98837380D02*
X123563095Y-98837380D01*
X123848809Y-98837380D02*
X123848809Y-97837380D01*
X123753571Y-97980238D01*
X123658333Y-98075476D01*
X123563095Y-98123095D01*
X124515476Y-97932619D02*
X124563095Y-97885000D01*
X124658333Y-97837380D01*
X124896428Y-97837380D01*
X124991666Y-97885000D01*
X125039285Y-97932619D01*
X125086904Y-98027857D01*
X125086904Y-98123095D01*
X125039285Y-98265952D01*
X124467857Y-98837380D01*
X125086904Y-98837380D01*
X89852142Y-85712857D02*
X89899761Y-85760476D01*
X89947380Y-85903333D01*
X89947380Y-85998571D01*
X89899761Y-86141428D01*
X89804523Y-86236666D01*
X89709285Y-86284285D01*
X89518809Y-86331904D01*
X89375952Y-86331904D01*
X89185476Y-86284285D01*
X89090238Y-86236666D01*
X88995000Y-86141428D01*
X88947380Y-85998571D01*
X88947380Y-85903333D01*
X88995000Y-85760476D01*
X89042619Y-85712857D01*
X89947380Y-84760476D02*
X89947380Y-85331904D01*
X89947380Y-85046190D02*
X88947380Y-85046190D01*
X89090238Y-85141428D01*
X89185476Y-85236666D01*
X89233095Y-85331904D01*
X88947380Y-84427142D02*
X88947380Y-83808095D01*
X89328333Y-84141428D01*
X89328333Y-83998571D01*
X89375952Y-83903333D01*
X89423571Y-83855714D01*
X89518809Y-83808095D01*
X89756904Y-83808095D01*
X89852142Y-83855714D01*
X89899761Y-83903333D01*
X89947380Y-83998571D01*
X89947380Y-84284285D01*
X89899761Y-84379523D01*
X89852142Y-84427142D01*
X34607142Y-85712857D02*
X34654761Y-85760476D01*
X34702380Y-85903333D01*
X34702380Y-85998571D01*
X34654761Y-86141428D01*
X34559523Y-86236666D01*
X34464285Y-86284285D01*
X34273809Y-86331904D01*
X34130952Y-86331904D01*
X33940476Y-86284285D01*
X33845238Y-86236666D01*
X33750000Y-86141428D01*
X33702380Y-85998571D01*
X33702380Y-85903333D01*
X33750000Y-85760476D01*
X33797619Y-85712857D01*
X34702380Y-84760476D02*
X34702380Y-85331904D01*
X34702380Y-85046190D02*
X33702380Y-85046190D01*
X33845238Y-85141428D01*
X33940476Y-85236666D01*
X33988095Y-85331904D01*
X34035714Y-83903333D02*
X34702380Y-83903333D01*
X33654761Y-84141428D02*
X34369047Y-84379523D01*
X34369047Y-83760476D01*
X114697142Y-116740857D02*
X114744761Y-116788476D01*
X114792380Y-116931333D01*
X114792380Y-117026571D01*
X114744761Y-117169428D01*
X114649523Y-117264666D01*
X114554285Y-117312285D01*
X114363809Y-117359904D01*
X114220952Y-117359904D01*
X114030476Y-117312285D01*
X113935238Y-117264666D01*
X113840000Y-117169428D01*
X113792380Y-117026571D01*
X113792380Y-116931333D01*
X113840000Y-116788476D01*
X113887619Y-116740857D01*
X114792380Y-115788476D02*
X114792380Y-116359904D01*
X114792380Y-116074190D02*
X113792380Y-116074190D01*
X113935238Y-116169428D01*
X114030476Y-116264666D01*
X114078095Y-116359904D01*
X113792380Y-114883714D02*
X113792380Y-115359904D01*
X114268571Y-115407523D01*
X114220952Y-115359904D01*
X114173333Y-115264666D01*
X114173333Y-115026571D01*
X114220952Y-114931333D01*
X114268571Y-114883714D01*
X114363809Y-114836095D01*
X114601904Y-114836095D01*
X114697142Y-114883714D01*
X114744761Y-114931333D01*
X114792380Y-115026571D01*
X114792380Y-115264666D01*
X114744761Y-115359904D01*
X114697142Y-115407523D01*
X85741142Y-116740857D02*
X85788761Y-116788476D01*
X85836380Y-116931333D01*
X85836380Y-117026571D01*
X85788761Y-117169428D01*
X85693523Y-117264666D01*
X85598285Y-117312285D01*
X85407809Y-117359904D01*
X85264952Y-117359904D01*
X85074476Y-117312285D01*
X84979238Y-117264666D01*
X84884000Y-117169428D01*
X84836380Y-117026571D01*
X84836380Y-116931333D01*
X84884000Y-116788476D01*
X84931619Y-116740857D01*
X85836380Y-115788476D02*
X85836380Y-116359904D01*
X85836380Y-116074190D02*
X84836380Y-116074190D01*
X84979238Y-116169428D01*
X85074476Y-116264666D01*
X85122095Y-116359904D01*
X84836380Y-114931333D02*
X84836380Y-115121809D01*
X84884000Y-115217047D01*
X84931619Y-115264666D01*
X85074476Y-115359904D01*
X85264952Y-115407523D01*
X85645904Y-115407523D01*
X85741142Y-115359904D01*
X85788761Y-115312285D01*
X85836380Y-115217047D01*
X85836380Y-115026571D01*
X85788761Y-114931333D01*
X85741142Y-114883714D01*
X85645904Y-114836095D01*
X85407809Y-114836095D01*
X85312571Y-114883714D01*
X85264952Y-114931333D01*
X85217333Y-115026571D01*
X85217333Y-115217047D01*
X85264952Y-115312285D01*
X85312571Y-115359904D01*
X85407809Y-115407523D01*
X117792142Y-85712857D02*
X117839761Y-85760476D01*
X117887380Y-85903333D01*
X117887380Y-85998571D01*
X117839761Y-86141428D01*
X117744523Y-86236666D01*
X117649285Y-86284285D01*
X117458809Y-86331904D01*
X117315952Y-86331904D01*
X117125476Y-86284285D01*
X117030238Y-86236666D01*
X116935000Y-86141428D01*
X116887380Y-85998571D01*
X116887380Y-85903333D01*
X116935000Y-85760476D01*
X116982619Y-85712857D01*
X117887380Y-84760476D02*
X117887380Y-85331904D01*
X117887380Y-85046190D02*
X116887380Y-85046190D01*
X117030238Y-85141428D01*
X117125476Y-85236666D01*
X117173095Y-85331904D01*
X116887380Y-84427142D02*
X116887380Y-83760476D01*
X117887380Y-84189047D01*
X197842142Y-127007857D02*
X197889761Y-127055476D01*
X197937380Y-127198333D01*
X197937380Y-127293571D01*
X197889761Y-127436428D01*
X197794523Y-127531666D01*
X197699285Y-127579285D01*
X197508809Y-127626904D01*
X197365952Y-127626904D01*
X197175476Y-127579285D01*
X197080238Y-127531666D01*
X196985000Y-127436428D01*
X196937380Y-127293571D01*
X196937380Y-127198333D01*
X196985000Y-127055476D01*
X197032619Y-127007857D01*
X197937380Y-126055476D02*
X197937380Y-126626904D01*
X197937380Y-126341190D02*
X196937380Y-126341190D01*
X197080238Y-126436428D01*
X197175476Y-126531666D01*
X197223095Y-126626904D01*
X197365952Y-125484047D02*
X197318333Y-125579285D01*
X197270714Y-125626904D01*
X197175476Y-125674523D01*
X197127857Y-125674523D01*
X197032619Y-125626904D01*
X196985000Y-125579285D01*
X196937380Y-125484047D01*
X196937380Y-125293571D01*
X196985000Y-125198333D01*
X197032619Y-125150714D01*
X197127857Y-125103095D01*
X197175476Y-125103095D01*
X197270714Y-125150714D01*
X197318333Y-125198333D01*
X197365952Y-125293571D01*
X197365952Y-125484047D01*
X197413571Y-125579285D01*
X197461190Y-125626904D01*
X197556428Y-125674523D01*
X197746904Y-125674523D01*
X197842142Y-125626904D01*
X197889761Y-125579285D01*
X197937380Y-125484047D01*
X197937380Y-125293571D01*
X197889761Y-125198333D01*
X197842142Y-125150714D01*
X197746904Y-125103095D01*
X197556428Y-125103095D01*
X197461190Y-125150714D01*
X197413571Y-125198333D01*
X197365952Y-125293571D01*
X94587142Y-98742142D02*
X94539523Y-98789761D01*
X94396666Y-98837380D01*
X94301428Y-98837380D01*
X94158571Y-98789761D01*
X94063333Y-98694523D01*
X94015714Y-98599285D01*
X93968095Y-98408809D01*
X93968095Y-98265952D01*
X94015714Y-98075476D01*
X94063333Y-97980238D01*
X94158571Y-97885000D01*
X94301428Y-97837380D01*
X94396666Y-97837380D01*
X94539523Y-97885000D01*
X94587142Y-97932619D01*
X95539523Y-98837380D02*
X94968095Y-98837380D01*
X95253809Y-98837380D02*
X95253809Y-97837380D01*
X95158571Y-97980238D01*
X95063333Y-98075476D01*
X94968095Y-98123095D01*
X96015714Y-98837380D02*
X96206190Y-98837380D01*
X96301428Y-98789761D01*
X96349047Y-98742142D01*
X96444285Y-98599285D01*
X96491904Y-98408809D01*
X96491904Y-98027857D01*
X96444285Y-97932619D01*
X96396666Y-97885000D01*
X96301428Y-97837380D01*
X96110952Y-97837380D01*
X96015714Y-97885000D01*
X95968095Y-97932619D01*
X95920476Y-98027857D01*
X95920476Y-98265952D01*
X95968095Y-98361190D01*
X96015714Y-98408809D01*
X96110952Y-98456428D01*
X96301428Y-98456428D01*
X96396666Y-98408809D01*
X96444285Y-98361190D01*
X96491904Y-98265952D01*
X126047142Y-129527857D02*
X126094761Y-129575476D01*
X126142380Y-129718333D01*
X126142380Y-129813571D01*
X126094761Y-129956428D01*
X125999523Y-130051666D01*
X125904285Y-130099285D01*
X125713809Y-130146904D01*
X125570952Y-130146904D01*
X125380476Y-130099285D01*
X125285238Y-130051666D01*
X125190000Y-129956428D01*
X125142380Y-129813571D01*
X125142380Y-129718333D01*
X125190000Y-129575476D01*
X125237619Y-129527857D01*
X125237619Y-129146904D02*
X125190000Y-129099285D01*
X125142380Y-129004047D01*
X125142380Y-128765952D01*
X125190000Y-128670714D01*
X125237619Y-128623095D01*
X125332857Y-128575476D01*
X125428095Y-128575476D01*
X125570952Y-128623095D01*
X126142380Y-129194523D01*
X126142380Y-128575476D01*
X125142380Y-127956428D02*
X125142380Y-127861190D01*
X125190000Y-127765952D01*
X125237619Y-127718333D01*
X125332857Y-127670714D01*
X125523333Y-127623095D01*
X125761428Y-127623095D01*
X125951904Y-127670714D01*
X126047142Y-127718333D01*
X126094761Y-127765952D01*
X126142380Y-127861190D01*
X126142380Y-127956428D01*
X126094761Y-128051666D01*
X126047142Y-128099285D01*
X125951904Y-128146904D01*
X125761428Y-128194523D01*
X125523333Y-128194523D01*
X125332857Y-128146904D01*
X125237619Y-128099285D01*
X125190000Y-128051666D01*
X125142380Y-127956428D01*
X146367142Y-85712857D02*
X146414761Y-85760476D01*
X146462380Y-85903333D01*
X146462380Y-85998571D01*
X146414761Y-86141428D01*
X146319523Y-86236666D01*
X146224285Y-86284285D01*
X146033809Y-86331904D01*
X145890952Y-86331904D01*
X145700476Y-86284285D01*
X145605238Y-86236666D01*
X145510000Y-86141428D01*
X145462380Y-85998571D01*
X145462380Y-85903333D01*
X145510000Y-85760476D01*
X145557619Y-85712857D01*
X145557619Y-85331904D02*
X145510000Y-85284285D01*
X145462380Y-85189047D01*
X145462380Y-84950952D01*
X145510000Y-84855714D01*
X145557619Y-84808095D01*
X145652857Y-84760476D01*
X145748095Y-84760476D01*
X145890952Y-84808095D01*
X146462380Y-85379523D01*
X146462380Y-84760476D01*
X145557619Y-84379523D02*
X145510000Y-84331904D01*
X145462380Y-84236666D01*
X145462380Y-83998571D01*
X145510000Y-83903333D01*
X145557619Y-83855714D01*
X145652857Y-83808095D01*
X145748095Y-83808095D01*
X145890952Y-83855714D01*
X146462380Y-84427142D01*
X146462380Y-83808095D01*
X173672142Y-85712857D02*
X173719761Y-85760476D01*
X173767380Y-85903333D01*
X173767380Y-85998571D01*
X173719761Y-86141428D01*
X173624523Y-86236666D01*
X173529285Y-86284285D01*
X173338809Y-86331904D01*
X173195952Y-86331904D01*
X173005476Y-86284285D01*
X172910238Y-86236666D01*
X172815000Y-86141428D01*
X172767380Y-85998571D01*
X172767380Y-85903333D01*
X172815000Y-85760476D01*
X172862619Y-85712857D01*
X172862619Y-85331904D02*
X172815000Y-85284285D01*
X172767380Y-85189047D01*
X172767380Y-84950952D01*
X172815000Y-84855714D01*
X172862619Y-84808095D01*
X172957857Y-84760476D01*
X173053095Y-84760476D01*
X173195952Y-84808095D01*
X173767380Y-85379523D01*
X173767380Y-84760476D01*
X173767380Y-83808095D02*
X173767380Y-84379523D01*
X173767380Y-84093809D02*
X172767380Y-84093809D01*
X172910238Y-84189047D01*
X173005476Y-84284285D01*
X173053095Y-84379523D01*
X43116666Y-140484761D02*
X43259523Y-140532380D01*
X43497619Y-140532380D01*
X43592857Y-140484761D01*
X43640476Y-140437142D01*
X43688095Y-140341904D01*
X43688095Y-140246666D01*
X43640476Y-140151428D01*
X43592857Y-140103809D01*
X43497619Y-140056190D01*
X43307142Y-140008571D01*
X43211904Y-139960952D01*
X43164285Y-139913333D01*
X43116666Y-139818095D01*
X43116666Y-139722857D01*
X43164285Y-139627619D01*
X43211904Y-139580000D01*
X43307142Y-139532380D01*
X43545238Y-139532380D01*
X43688095Y-139580000D01*
X44021428Y-139532380D02*
X44259523Y-140532380D01*
X44450000Y-139818095D01*
X44640476Y-140532380D01*
X44878571Y-139532380D01*
X45783333Y-140532380D02*
X45211904Y-140532380D01*
X45497619Y-140532380D02*
X45497619Y-139532380D01*
X45402380Y-139675238D01*
X45307142Y-139770476D01*
X45211904Y-139818095D01*
X54621666Y-140484761D02*
X54764523Y-140532380D01*
X55002619Y-140532380D01*
X55097857Y-140484761D01*
X55145476Y-140437142D01*
X55193095Y-140341904D01*
X55193095Y-140246666D01*
X55145476Y-140151428D01*
X55097857Y-140103809D01*
X55002619Y-140056190D01*
X54812142Y-140008571D01*
X54716904Y-139960952D01*
X54669285Y-139913333D01*
X54621666Y-139818095D01*
X54621666Y-139722857D01*
X54669285Y-139627619D01*
X54716904Y-139580000D01*
X54812142Y-139532380D01*
X55050238Y-139532380D01*
X55193095Y-139580000D01*
X55526428Y-139532380D02*
X55764523Y-140532380D01*
X55955000Y-139818095D01*
X56145476Y-140532380D01*
X56383571Y-139532380D01*
X56716904Y-139627619D02*
X56764523Y-139580000D01*
X56859761Y-139532380D01*
X57097857Y-139532380D01*
X57193095Y-139580000D01*
X57240714Y-139627619D01*
X57288333Y-139722857D01*
X57288333Y-139818095D01*
X57240714Y-139960952D01*
X56669285Y-140532380D01*
X57288333Y-140532380D01*
X70572380Y-105378095D02*
X71381904Y-105378095D01*
X71477142Y-105330476D01*
X71524761Y-105282857D01*
X71572380Y-105187619D01*
X71572380Y-104997142D01*
X71524761Y-104901904D01*
X71477142Y-104854285D01*
X71381904Y-104806666D01*
X70572380Y-104806666D01*
X71572380Y-103806666D02*
X71572380Y-104378095D01*
X71572380Y-104092380D02*
X70572380Y-104092380D01*
X70715238Y-104187619D01*
X70810476Y-104282857D01*
X70858095Y-104378095D01*
X71572380Y-102854285D02*
X71572380Y-103425714D01*
X71572380Y-103140000D02*
X70572380Y-103140000D01*
X70715238Y-103235238D01*
X70810476Y-103330476D01*
X70858095Y-103425714D01*
X44537380Y-105378095D02*
X45346904Y-105378095D01*
X45442142Y-105330476D01*
X45489761Y-105282857D01*
X45537380Y-105187619D01*
X45537380Y-104997142D01*
X45489761Y-104901904D01*
X45442142Y-104854285D01*
X45346904Y-104806666D01*
X44537380Y-104806666D01*
X45537380Y-103806666D02*
X45537380Y-104378095D01*
X45537380Y-104092380D02*
X44537380Y-104092380D01*
X44680238Y-104187619D01*
X44775476Y-104282857D01*
X44823095Y-104378095D01*
X44537380Y-103473333D02*
X44537380Y-102854285D01*
X44918333Y-103187619D01*
X44918333Y-103044761D01*
X44965952Y-102949523D01*
X45013571Y-102901904D01*
X45108809Y-102854285D01*
X45346904Y-102854285D01*
X45442142Y-102901904D01*
X45489761Y-102949523D01*
X45537380Y-103044761D01*
X45537380Y-103330476D01*
X45489761Y-103425714D01*
X45442142Y-103473333D01*
X71842380Y-88868095D02*
X72651904Y-88868095D01*
X72747142Y-88820476D01*
X72794761Y-88772857D01*
X72842380Y-88677619D01*
X72842380Y-88487142D01*
X72794761Y-88391904D01*
X72747142Y-88344285D01*
X72651904Y-88296666D01*
X71842380Y-88296666D01*
X72842380Y-87296666D02*
X72842380Y-87868095D01*
X72842380Y-87582380D02*
X71842380Y-87582380D01*
X71985238Y-87677619D01*
X72080476Y-87772857D01*
X72128095Y-87868095D01*
X71937619Y-86915714D02*
X71890000Y-86868095D01*
X71842380Y-86772857D01*
X71842380Y-86534761D01*
X71890000Y-86439523D01*
X71937619Y-86391904D01*
X72032857Y-86344285D01*
X72128095Y-86344285D01*
X72270952Y-86391904D01*
X72842380Y-86963333D01*
X72842380Y-86344285D01*
X81097380Y-72145606D02*
X80621190Y-72478939D01*
X81097380Y-72717034D02*
X80097380Y-72717034D01*
X80097380Y-72336082D01*
X80145000Y-72240844D01*
X80192619Y-72193225D01*
X80287857Y-72145606D01*
X80430714Y-72145606D01*
X80525952Y-72193225D01*
X80573571Y-72240844D01*
X80621190Y-72336082D01*
X80621190Y-72717034D01*
X80430714Y-71288463D02*
X81097380Y-71288463D01*
X80049761Y-71526558D02*
X80764047Y-71764653D01*
X80764047Y-71145606D01*
X80097380Y-70574177D02*
X80097380Y-70478939D01*
X80145000Y-70383701D01*
X80192619Y-70336082D01*
X80287857Y-70288463D01*
X80478333Y-70240844D01*
X80716428Y-70240844D01*
X80906904Y-70288463D01*
X81002142Y-70336082D01*
X81049761Y-70383701D01*
X81097380Y-70478939D01*
X81097380Y-70574177D01*
X81049761Y-70669415D01*
X81002142Y-70717034D01*
X80906904Y-70764653D01*
X80716428Y-70812272D01*
X80478333Y-70812272D01*
X80287857Y-70764653D01*
X80192619Y-70717034D01*
X80145000Y-70669415D01*
X80097380Y-70574177D01*
X65857380Y-72145606D02*
X65381190Y-72478939D01*
X65857380Y-72717034D02*
X64857380Y-72717034D01*
X64857380Y-72336082D01*
X64905000Y-72240844D01*
X64952619Y-72193225D01*
X65047857Y-72145606D01*
X65190714Y-72145606D01*
X65285952Y-72193225D01*
X65333571Y-72240844D01*
X65381190Y-72336082D01*
X65381190Y-72717034D01*
X64857380Y-71812272D02*
X64857380Y-71193225D01*
X65238333Y-71526558D01*
X65238333Y-71383701D01*
X65285952Y-71288463D01*
X65333571Y-71240844D01*
X65428809Y-71193225D01*
X65666904Y-71193225D01*
X65762142Y-71240844D01*
X65809761Y-71288463D01*
X65857380Y-71383701D01*
X65857380Y-71669415D01*
X65809761Y-71764653D01*
X65762142Y-71812272D01*
X64857380Y-70336082D02*
X64857380Y-70526558D01*
X64905000Y-70621796D01*
X64952619Y-70669415D01*
X65095476Y-70764653D01*
X65285952Y-70812272D01*
X65666904Y-70812272D01*
X65762142Y-70764653D01*
X65809761Y-70717034D01*
X65857380Y-70621796D01*
X65857380Y-70431320D01*
X65809761Y-70336082D01*
X65762142Y-70288463D01*
X65666904Y-70240844D01*
X65428809Y-70240844D01*
X65333571Y-70288463D01*
X65285952Y-70336082D01*
X65238333Y-70431320D01*
X65238333Y-70621796D01*
X65285952Y-70717034D01*
X65333571Y-70764653D01*
X65428809Y-70812272D01*
X73477380Y-72145606D02*
X73001190Y-72478939D01*
X73477380Y-72717034D02*
X72477380Y-72717034D01*
X72477380Y-72336082D01*
X72525000Y-72240844D01*
X72572619Y-72193225D01*
X72667857Y-72145606D01*
X72810714Y-72145606D01*
X72905952Y-72193225D01*
X72953571Y-72240844D01*
X73001190Y-72336082D01*
X73001190Y-72717034D01*
X72477380Y-71812272D02*
X72477380Y-71193225D01*
X72858333Y-71526558D01*
X72858333Y-71383701D01*
X72905952Y-71288463D01*
X72953571Y-71240844D01*
X73048809Y-71193225D01*
X73286904Y-71193225D01*
X73382142Y-71240844D01*
X73429761Y-71288463D01*
X73477380Y-71383701D01*
X73477380Y-71669415D01*
X73429761Y-71764653D01*
X73382142Y-71812272D01*
X72905952Y-70621796D02*
X72858333Y-70717034D01*
X72810714Y-70764653D01*
X72715476Y-70812272D01*
X72667857Y-70812272D01*
X72572619Y-70764653D01*
X72525000Y-70717034D01*
X72477380Y-70621796D01*
X72477380Y-70431320D01*
X72525000Y-70336082D01*
X72572619Y-70288463D01*
X72667857Y-70240844D01*
X72715476Y-70240844D01*
X72810714Y-70288463D01*
X72858333Y-70336082D01*
X72905952Y-70431320D01*
X72905952Y-70621796D01*
X72953571Y-70717034D01*
X73001190Y-70764653D01*
X73096428Y-70812272D01*
X73286904Y-70812272D01*
X73382142Y-70764653D01*
X73429761Y-70717034D01*
X73477380Y-70621796D01*
X73477380Y-70431320D01*
X73429761Y-70336082D01*
X73382142Y-70288463D01*
X73286904Y-70240844D01*
X73096428Y-70240844D01*
X73001190Y-70288463D01*
X72953571Y-70336082D01*
X72905952Y-70431320D01*
X69667380Y-72145606D02*
X69191190Y-72478939D01*
X69667380Y-72717034D02*
X68667380Y-72717034D01*
X68667380Y-72336082D01*
X68715000Y-72240844D01*
X68762619Y-72193225D01*
X68857857Y-72145606D01*
X69000714Y-72145606D01*
X69095952Y-72193225D01*
X69143571Y-72240844D01*
X69191190Y-72336082D01*
X69191190Y-72717034D01*
X68667380Y-71812272D02*
X68667380Y-71193225D01*
X69048333Y-71526558D01*
X69048333Y-71383701D01*
X69095952Y-71288463D01*
X69143571Y-71240844D01*
X69238809Y-71193225D01*
X69476904Y-71193225D01*
X69572142Y-71240844D01*
X69619761Y-71288463D01*
X69667380Y-71383701D01*
X69667380Y-71669415D01*
X69619761Y-71764653D01*
X69572142Y-71812272D01*
X68667380Y-70859891D02*
X68667380Y-70193225D01*
X69667380Y-70621796D01*
X77287380Y-72145606D02*
X76811190Y-72478939D01*
X77287380Y-72717034D02*
X76287380Y-72717034D01*
X76287380Y-72336082D01*
X76335000Y-72240844D01*
X76382619Y-72193225D01*
X76477857Y-72145606D01*
X76620714Y-72145606D01*
X76715952Y-72193225D01*
X76763571Y-72240844D01*
X76811190Y-72336082D01*
X76811190Y-72717034D01*
X76287380Y-71812272D02*
X76287380Y-71193225D01*
X76668333Y-71526558D01*
X76668333Y-71383701D01*
X76715952Y-71288463D01*
X76763571Y-71240844D01*
X76858809Y-71193225D01*
X77096904Y-71193225D01*
X77192142Y-71240844D01*
X77239761Y-71288463D01*
X77287380Y-71383701D01*
X77287380Y-71669415D01*
X77239761Y-71764653D01*
X77192142Y-71812272D01*
X77287380Y-70717034D02*
X77287380Y-70526558D01*
X77239761Y-70431320D01*
X77192142Y-70383701D01*
X77049285Y-70288463D01*
X76858809Y-70240844D01*
X76477857Y-70240844D01*
X76382619Y-70288463D01*
X76335000Y-70336082D01*
X76287380Y-70431320D01*
X76287380Y-70621796D01*
X76335000Y-70717034D01*
X76382619Y-70764653D01*
X76477857Y-70812272D01*
X76715952Y-70812272D01*
X76811190Y-70764653D01*
X76858809Y-70717034D01*
X76906428Y-70621796D01*
X76906428Y-70431320D01*
X76858809Y-70336082D01*
X76811190Y-70288463D01*
X76715952Y-70240844D01*
X46172380Y-72145606D02*
X45696190Y-72478939D01*
X46172380Y-72717034D02*
X45172380Y-72717034D01*
X45172380Y-72336082D01*
X45220000Y-72240844D01*
X45267619Y-72193225D01*
X45362857Y-72145606D01*
X45505714Y-72145606D01*
X45600952Y-72193225D01*
X45648571Y-72240844D01*
X45696190Y-72336082D01*
X45696190Y-72717034D01*
X45505714Y-71288463D02*
X46172380Y-71288463D01*
X45124761Y-71526558D02*
X45839047Y-71764653D01*
X45839047Y-71145606D01*
X45172380Y-70288463D02*
X45172380Y-70764653D01*
X45648571Y-70812272D01*
X45600952Y-70764653D01*
X45553333Y-70669415D01*
X45553333Y-70431320D01*
X45600952Y-70336082D01*
X45648571Y-70288463D01*
X45743809Y-70240844D01*
X45981904Y-70240844D01*
X46077142Y-70288463D01*
X46124761Y-70336082D01*
X46172380Y-70431320D01*
X46172380Y-70669415D01*
X46124761Y-70764653D01*
X46077142Y-70812272D01*
X58237380Y-72145606D02*
X57761190Y-72478939D01*
X58237380Y-72717034D02*
X57237380Y-72717034D01*
X57237380Y-72336082D01*
X57285000Y-72240844D01*
X57332619Y-72193225D01*
X57427857Y-72145606D01*
X57570714Y-72145606D01*
X57665952Y-72193225D01*
X57713571Y-72240844D01*
X57761190Y-72336082D01*
X57761190Y-72717034D01*
X57570714Y-71288463D02*
X58237380Y-71288463D01*
X57189761Y-71526558D02*
X57904047Y-71764653D01*
X57904047Y-71145606D01*
X58237380Y-70240844D02*
X58237380Y-70812272D01*
X58237380Y-70526558D02*
X57237380Y-70526558D01*
X57380238Y-70621796D01*
X57475476Y-70717034D01*
X57523095Y-70812272D01*
X38552380Y-72145606D02*
X38076190Y-72478939D01*
X38552380Y-72717034D02*
X37552380Y-72717034D01*
X37552380Y-72336082D01*
X37600000Y-72240844D01*
X37647619Y-72193225D01*
X37742857Y-72145606D01*
X37885714Y-72145606D01*
X37980952Y-72193225D01*
X38028571Y-72240844D01*
X38076190Y-72336082D01*
X38076190Y-72717034D01*
X37885714Y-71288463D02*
X38552380Y-71288463D01*
X37504761Y-71526558D02*
X38219047Y-71764653D01*
X38219047Y-71145606D01*
X37552380Y-70859891D02*
X37552380Y-70240844D01*
X37933333Y-70574177D01*
X37933333Y-70431320D01*
X37980952Y-70336082D01*
X38028571Y-70288463D01*
X38123809Y-70240844D01*
X38361904Y-70240844D01*
X38457142Y-70288463D01*
X38504761Y-70336082D01*
X38552380Y-70431320D01*
X38552380Y-70717034D01*
X38504761Y-70812272D01*
X38457142Y-70859891D01*
X49982380Y-72145606D02*
X49506190Y-72478939D01*
X49982380Y-72717034D02*
X48982380Y-72717034D01*
X48982380Y-72336082D01*
X49030000Y-72240844D01*
X49077619Y-72193225D01*
X49172857Y-72145606D01*
X49315714Y-72145606D01*
X49410952Y-72193225D01*
X49458571Y-72240844D01*
X49506190Y-72336082D01*
X49506190Y-72717034D01*
X49315714Y-71288463D02*
X49982380Y-71288463D01*
X48934761Y-71526558D02*
X49649047Y-71764653D01*
X49649047Y-71145606D01*
X48982380Y-70336082D02*
X48982380Y-70526558D01*
X49030000Y-70621796D01*
X49077619Y-70669415D01*
X49220476Y-70764653D01*
X49410952Y-70812272D01*
X49791904Y-70812272D01*
X49887142Y-70764653D01*
X49934761Y-70717034D01*
X49982380Y-70621796D01*
X49982380Y-70431320D01*
X49934761Y-70336082D01*
X49887142Y-70288463D01*
X49791904Y-70240844D01*
X49553809Y-70240844D01*
X49458571Y-70288463D01*
X49410952Y-70336082D01*
X49363333Y-70431320D01*
X49363333Y-70621796D01*
X49410952Y-70717034D01*
X49458571Y-70764653D01*
X49553809Y-70812272D01*
X53792380Y-72145606D02*
X53316190Y-72478939D01*
X53792380Y-72717034D02*
X52792380Y-72717034D01*
X52792380Y-72336082D01*
X52840000Y-72240844D01*
X52887619Y-72193225D01*
X52982857Y-72145606D01*
X53125714Y-72145606D01*
X53220952Y-72193225D01*
X53268571Y-72240844D01*
X53316190Y-72336082D01*
X53316190Y-72717034D01*
X53125714Y-71288463D02*
X53792380Y-71288463D01*
X52744761Y-71526558D02*
X53459047Y-71764653D01*
X53459047Y-71145606D01*
X52792380Y-70859891D02*
X52792380Y-70193225D01*
X53792380Y-70621796D01*
X42362380Y-72145606D02*
X41886190Y-72478939D01*
X42362380Y-72717034D02*
X41362380Y-72717034D01*
X41362380Y-72336082D01*
X41410000Y-72240844D01*
X41457619Y-72193225D01*
X41552857Y-72145606D01*
X41695714Y-72145606D01*
X41790952Y-72193225D01*
X41838571Y-72240844D01*
X41886190Y-72336082D01*
X41886190Y-72717034D01*
X41695714Y-71288463D02*
X42362380Y-71288463D01*
X41314761Y-71526558D02*
X42029047Y-71764653D01*
X42029047Y-71145606D01*
X41695714Y-70336082D02*
X42362380Y-70336082D01*
X41314761Y-70574177D02*
X42029047Y-70812272D01*
X42029047Y-70193225D01*
X62047380Y-72145606D02*
X61571190Y-72478939D01*
X62047380Y-72717034D02*
X61047380Y-72717034D01*
X61047380Y-72336082D01*
X61095000Y-72240844D01*
X61142619Y-72193225D01*
X61237857Y-72145606D01*
X61380714Y-72145606D01*
X61475952Y-72193225D01*
X61523571Y-72240844D01*
X61571190Y-72336082D01*
X61571190Y-72717034D01*
X61380714Y-71288463D02*
X62047380Y-71288463D01*
X60999761Y-71526558D02*
X61714047Y-71764653D01*
X61714047Y-71145606D01*
X61142619Y-70812272D02*
X61095000Y-70764653D01*
X61047380Y-70669415D01*
X61047380Y-70431320D01*
X61095000Y-70336082D01*
X61142619Y-70288463D01*
X61237857Y-70240844D01*
X61333095Y-70240844D01*
X61475952Y-70288463D01*
X62047380Y-70859891D01*
X62047380Y-70240844D01*
X30932380Y-72145606D02*
X30456190Y-72478939D01*
X30932380Y-72717034D02*
X29932380Y-72717034D01*
X29932380Y-72336082D01*
X29980000Y-72240844D01*
X30027619Y-72193225D01*
X30122857Y-72145606D01*
X30265714Y-72145606D01*
X30360952Y-72193225D01*
X30408571Y-72240844D01*
X30456190Y-72336082D01*
X30456190Y-72717034D01*
X30265714Y-71288463D02*
X30932380Y-71288463D01*
X29884761Y-71526558D02*
X30599047Y-71764653D01*
X30599047Y-71145606D01*
X30360952Y-70621796D02*
X30313333Y-70717034D01*
X30265714Y-70764653D01*
X30170476Y-70812272D01*
X30122857Y-70812272D01*
X30027619Y-70764653D01*
X29980000Y-70717034D01*
X29932380Y-70621796D01*
X29932380Y-70431320D01*
X29980000Y-70336082D01*
X30027619Y-70288463D01*
X30122857Y-70240844D01*
X30170476Y-70240844D01*
X30265714Y-70288463D01*
X30313333Y-70336082D01*
X30360952Y-70431320D01*
X30360952Y-70621796D01*
X30408571Y-70717034D01*
X30456190Y-70764653D01*
X30551428Y-70812272D01*
X30741904Y-70812272D01*
X30837142Y-70764653D01*
X30884761Y-70717034D01*
X30932380Y-70621796D01*
X30932380Y-70431320D01*
X30884761Y-70336082D01*
X30837142Y-70288463D01*
X30741904Y-70240844D01*
X30551428Y-70240844D01*
X30456190Y-70288463D01*
X30408571Y-70336082D01*
X30360952Y-70431320D01*
X81446666Y-46656428D02*
X81446666Y-46180238D01*
X81732380Y-46751666D02*
X80732380Y-46418333D01*
X81732380Y-46085000D01*
X81208571Y-45418333D02*
X81208571Y-45751666D01*
X81732380Y-45751666D02*
X80732380Y-45751666D01*
X80732380Y-45275476D01*
X81208571Y-44561190D02*
X81208571Y-44894523D01*
X81732380Y-44894523D02*
X80732380Y-44894523D01*
X80732380Y-44418333D01*
X80732380Y-43561190D02*
X80732380Y-44037380D01*
X81208571Y-44085000D01*
X81160952Y-44037380D01*
X81113333Y-43942142D01*
X81113333Y-43704047D01*
X81160952Y-43608809D01*
X81208571Y-43561190D01*
X81303809Y-43513571D01*
X81541904Y-43513571D01*
X81637142Y-43561190D01*
X81684761Y-43608809D01*
X81732380Y-43704047D01*
X81732380Y-43942142D01*
X81684761Y-44037380D01*
X81637142Y-44085000D01*
X68111666Y-49196428D02*
X68111666Y-48720238D01*
X68397380Y-49291666D02*
X67397380Y-48958333D01*
X68397380Y-48625000D01*
X67873571Y-47958333D02*
X67873571Y-48291666D01*
X68397380Y-48291666D02*
X67397380Y-48291666D01*
X67397380Y-47815476D01*
X67873571Y-47101190D02*
X67873571Y-47434523D01*
X68397380Y-47434523D02*
X67397380Y-47434523D01*
X67397380Y-46958333D01*
X67397380Y-46148809D02*
X67397380Y-46339285D01*
X67445000Y-46434523D01*
X67492619Y-46482142D01*
X67635476Y-46577380D01*
X67825952Y-46625000D01*
X68206904Y-46625000D01*
X68302142Y-46577380D01*
X68349761Y-46529761D01*
X68397380Y-46434523D01*
X68397380Y-46244047D01*
X68349761Y-46148809D01*
X68302142Y-46101190D01*
X68206904Y-46053571D01*
X67968809Y-46053571D01*
X67873571Y-46101190D01*
X67825952Y-46148809D01*
X67778333Y-46244047D01*
X67778333Y-46434523D01*
X67825952Y-46529761D01*
X67873571Y-46577380D01*
X67968809Y-46625000D01*
X172537380Y-72397857D02*
X172061190Y-72731190D01*
X172537380Y-72969285D02*
X171537380Y-72969285D01*
X171537380Y-72588333D01*
X171585000Y-72493095D01*
X171632619Y-72445476D01*
X171727857Y-72397857D01*
X171870714Y-72397857D01*
X171965952Y-72445476D01*
X172013571Y-72493095D01*
X172061190Y-72588333D01*
X172061190Y-72969285D01*
X172537380Y-71445476D02*
X172537380Y-72016904D01*
X172537380Y-71731190D02*
X171537380Y-71731190D01*
X171680238Y-71826428D01*
X171775476Y-71921666D01*
X171823095Y-72016904D01*
X171870714Y-70588333D02*
X172537380Y-70588333D01*
X171489761Y-70826428D02*
X172204047Y-71064523D01*
X172204047Y-70445476D01*
X108402380Y-72397857D02*
X107926190Y-72731190D01*
X108402380Y-72969285D02*
X107402380Y-72969285D01*
X107402380Y-72588333D01*
X107450000Y-72493095D01*
X107497619Y-72445476D01*
X107592857Y-72397857D01*
X107735714Y-72397857D01*
X107830952Y-72445476D01*
X107878571Y-72493095D01*
X107926190Y-72588333D01*
X107926190Y-72969285D01*
X107402380Y-72064523D02*
X107402380Y-71445476D01*
X107783333Y-71778809D01*
X107783333Y-71635952D01*
X107830952Y-71540714D01*
X107878571Y-71493095D01*
X107973809Y-71445476D01*
X108211904Y-71445476D01*
X108307142Y-71493095D01*
X108354761Y-71540714D01*
X108402380Y-71635952D01*
X108402380Y-71921666D01*
X108354761Y-72016904D01*
X108307142Y-72064523D01*
X107402380Y-71112142D02*
X107402380Y-70493095D01*
X107783333Y-70826428D01*
X107783333Y-70683571D01*
X107830952Y-70588333D01*
X107878571Y-70540714D01*
X107973809Y-70493095D01*
X108211904Y-70493095D01*
X108307142Y-70540714D01*
X108354761Y-70588333D01*
X108402380Y-70683571D01*
X108402380Y-70969285D01*
X108354761Y-71064523D01*
X108307142Y-71112142D01*
X149693333Y-98742142D02*
X149645714Y-98789761D01*
X149502857Y-98837380D01*
X149407619Y-98837380D01*
X149264761Y-98789761D01*
X149169523Y-98694523D01*
X149121904Y-98599285D01*
X149074285Y-98408809D01*
X149074285Y-98265952D01*
X149121904Y-98075476D01*
X149169523Y-97980238D01*
X149264761Y-97885000D01*
X149407619Y-97837380D01*
X149502857Y-97837380D01*
X149645714Y-97885000D01*
X149693333Y-97932619D01*
X150550476Y-97837380D02*
X150360000Y-97837380D01*
X150264761Y-97885000D01*
X150217142Y-97932619D01*
X150121904Y-98075476D01*
X150074285Y-98265952D01*
X150074285Y-98646904D01*
X150121904Y-98742142D01*
X150169523Y-98789761D01*
X150264761Y-98837380D01*
X150455238Y-98837380D01*
X150550476Y-98789761D01*
X150598095Y-98742142D01*
X150645714Y-98646904D01*
X150645714Y-98408809D01*
X150598095Y-98313571D01*
X150550476Y-98265952D01*
X150455238Y-98218333D01*
X150264761Y-98218333D01*
X150169523Y-98265952D01*
X150121904Y-98313571D01*
X150074285Y-98408809D01*
X149042380Y-72397857D02*
X148566190Y-72731190D01*
X149042380Y-72969285D02*
X148042380Y-72969285D01*
X148042380Y-72588333D01*
X148090000Y-72493095D01*
X148137619Y-72445476D01*
X148232857Y-72397857D01*
X148375714Y-72397857D01*
X148470952Y-72445476D01*
X148518571Y-72493095D01*
X148566190Y-72588333D01*
X148566190Y-72969285D01*
X149042380Y-71445476D02*
X149042380Y-72016904D01*
X149042380Y-71731190D02*
X148042380Y-71731190D01*
X148185238Y-71826428D01*
X148280476Y-71921666D01*
X148328095Y-72016904D01*
X148042380Y-70540714D02*
X148042380Y-71016904D01*
X148518571Y-71064523D01*
X148470952Y-71016904D01*
X148423333Y-70921666D01*
X148423333Y-70683571D01*
X148470952Y-70588333D01*
X148518571Y-70540714D01*
X148613809Y-70493095D01*
X148851904Y-70493095D01*
X148947142Y-70540714D01*
X148994761Y-70588333D01*
X149042380Y-70683571D01*
X149042380Y-70921666D01*
X148994761Y-71016904D01*
X148947142Y-71064523D01*
X152852380Y-72397857D02*
X152376190Y-72731190D01*
X152852380Y-72969285D02*
X151852380Y-72969285D01*
X151852380Y-72588333D01*
X151900000Y-72493095D01*
X151947619Y-72445476D01*
X152042857Y-72397857D01*
X152185714Y-72397857D01*
X152280952Y-72445476D01*
X152328571Y-72493095D01*
X152376190Y-72588333D01*
X152376190Y-72969285D01*
X152852380Y-71445476D02*
X152852380Y-72016904D01*
X152852380Y-71731190D02*
X151852380Y-71731190D01*
X151995238Y-71826428D01*
X152090476Y-71921666D01*
X152138095Y-72016904D01*
X151852380Y-70588333D02*
X151852380Y-70778809D01*
X151900000Y-70874047D01*
X151947619Y-70921666D01*
X152090476Y-71016904D01*
X152280952Y-71064523D01*
X152661904Y-71064523D01*
X152757142Y-71016904D01*
X152804761Y-70969285D01*
X152852380Y-70874047D01*
X152852380Y-70683571D01*
X152804761Y-70588333D01*
X152757142Y-70540714D01*
X152661904Y-70493095D01*
X152423809Y-70493095D01*
X152328571Y-70540714D01*
X152280952Y-70588333D01*
X152233333Y-70683571D01*
X152233333Y-70874047D01*
X152280952Y-70969285D01*
X152328571Y-71016904D01*
X152423809Y-71064523D01*
X156662380Y-72397857D02*
X156186190Y-72731190D01*
X156662380Y-72969285D02*
X155662380Y-72969285D01*
X155662380Y-72588333D01*
X155710000Y-72493095D01*
X155757619Y-72445476D01*
X155852857Y-72397857D01*
X155995714Y-72397857D01*
X156090952Y-72445476D01*
X156138571Y-72493095D01*
X156186190Y-72588333D01*
X156186190Y-72969285D01*
X156662380Y-71445476D02*
X156662380Y-72016904D01*
X156662380Y-71731190D02*
X155662380Y-71731190D01*
X155805238Y-71826428D01*
X155900476Y-71921666D01*
X155948095Y-72016904D01*
X155662380Y-71112142D02*
X155662380Y-70445476D01*
X156662380Y-70874047D01*
X160472380Y-72397857D02*
X159996190Y-72731190D01*
X160472380Y-72969285D02*
X159472380Y-72969285D01*
X159472380Y-72588333D01*
X159520000Y-72493095D01*
X159567619Y-72445476D01*
X159662857Y-72397857D01*
X159805714Y-72397857D01*
X159900952Y-72445476D01*
X159948571Y-72493095D01*
X159996190Y-72588333D01*
X159996190Y-72969285D01*
X160472380Y-71445476D02*
X160472380Y-72016904D01*
X160472380Y-71731190D02*
X159472380Y-71731190D01*
X159615238Y-71826428D01*
X159710476Y-71921666D01*
X159758095Y-72016904D01*
X159900952Y-70874047D02*
X159853333Y-70969285D01*
X159805714Y-71016904D01*
X159710476Y-71064523D01*
X159662857Y-71064523D01*
X159567619Y-71016904D01*
X159520000Y-70969285D01*
X159472380Y-70874047D01*
X159472380Y-70683571D01*
X159520000Y-70588333D01*
X159567619Y-70540714D01*
X159662857Y-70493095D01*
X159710476Y-70493095D01*
X159805714Y-70540714D01*
X159853333Y-70588333D01*
X159900952Y-70683571D01*
X159900952Y-70874047D01*
X159948571Y-70969285D01*
X159996190Y-71016904D01*
X160091428Y-71064523D01*
X160281904Y-71064523D01*
X160377142Y-71016904D01*
X160424761Y-70969285D01*
X160472380Y-70874047D01*
X160472380Y-70683571D01*
X160424761Y-70588333D01*
X160377142Y-70540714D01*
X160281904Y-70493095D01*
X160091428Y-70493095D01*
X159996190Y-70540714D01*
X159948571Y-70588333D01*
X159900952Y-70683571D01*
X145232380Y-72397857D02*
X144756190Y-72731190D01*
X145232380Y-72969285D02*
X144232380Y-72969285D01*
X144232380Y-72588333D01*
X144280000Y-72493095D01*
X144327619Y-72445476D01*
X144422857Y-72397857D01*
X144565714Y-72397857D01*
X144660952Y-72445476D01*
X144708571Y-72493095D01*
X144756190Y-72588333D01*
X144756190Y-72969285D01*
X144327619Y-72016904D02*
X144280000Y-71969285D01*
X144232380Y-71874047D01*
X144232380Y-71635952D01*
X144280000Y-71540714D01*
X144327619Y-71493095D01*
X144422857Y-71445476D01*
X144518095Y-71445476D01*
X144660952Y-71493095D01*
X145232380Y-72064523D01*
X145232380Y-71445476D01*
X145232380Y-70493095D02*
X145232380Y-71064523D01*
X145232380Y-70778809D02*
X144232380Y-70778809D01*
X144375238Y-70874047D01*
X144470476Y-70969285D01*
X144518095Y-71064523D01*
X155662380Y-104901904D02*
X156471904Y-104901904D01*
X156567142Y-104854285D01*
X156614761Y-104806666D01*
X156662380Y-104711428D01*
X156662380Y-104520952D01*
X156614761Y-104425714D01*
X156567142Y-104378095D01*
X156471904Y-104330476D01*
X155662380Y-104330476D01*
X155662380Y-103378095D02*
X155662380Y-103854285D01*
X156138571Y-103901904D01*
X156090952Y-103854285D01*
X156043333Y-103759047D01*
X156043333Y-103520952D01*
X156090952Y-103425714D01*
X156138571Y-103378095D01*
X156233809Y-103330476D01*
X156471904Y-103330476D01*
X156567142Y-103378095D01*
X156614761Y-103425714D01*
X156662380Y-103520952D01*
X156662380Y-103759047D01*
X156614761Y-103854285D01*
X156567142Y-103901904D01*
X156297380Y-88391904D02*
X157106904Y-88391904D01*
X157202142Y-88344285D01*
X157249761Y-88296666D01*
X157297380Y-88201428D01*
X157297380Y-88010952D01*
X157249761Y-87915714D01*
X157202142Y-87868095D01*
X157106904Y-87820476D01*
X156297380Y-87820476D01*
X156297380Y-86915714D02*
X156297380Y-87106190D01*
X156345000Y-87201428D01*
X156392619Y-87249047D01*
X156535476Y-87344285D01*
X156725952Y-87391904D01*
X157106904Y-87391904D01*
X157202142Y-87344285D01*
X157249761Y-87296666D01*
X157297380Y-87201428D01*
X157297380Y-87010952D01*
X157249761Y-86915714D01*
X157202142Y-86868095D01*
X157106904Y-86820476D01*
X156868809Y-86820476D01*
X156773571Y-86868095D01*
X156725952Y-86915714D01*
X156678333Y-87010952D01*
X156678333Y-87201428D01*
X156725952Y-87296666D01*
X156773571Y-87344285D01*
X156868809Y-87391904D01*
X36677380Y-127968333D02*
X37391666Y-127968333D01*
X37534523Y-128015952D01*
X37629761Y-128111190D01*
X37677380Y-128254047D01*
X37677380Y-128349285D01*
X37677380Y-126968333D02*
X37677380Y-127539761D01*
X37677380Y-127254047D02*
X36677380Y-127254047D01*
X36820238Y-127349285D01*
X36915476Y-127444523D01*
X36963095Y-127539761D01*
X41692142Y-129091666D02*
X41739761Y-129139285D01*
X41787380Y-129282142D01*
X41787380Y-129377380D01*
X41739761Y-129520238D01*
X41644523Y-129615476D01*
X41549285Y-129663095D01*
X41358809Y-129710714D01*
X41215952Y-129710714D01*
X41025476Y-129663095D01*
X40930238Y-129615476D01*
X40835000Y-129520238D01*
X40787380Y-129377380D01*
X40787380Y-129282142D01*
X40835000Y-129139285D01*
X40882619Y-129091666D01*
X40787380Y-128186904D02*
X40787380Y-128663095D01*
X41263571Y-128710714D01*
X41215952Y-128663095D01*
X41168333Y-128567857D01*
X41168333Y-128329761D01*
X41215952Y-128234523D01*
X41263571Y-128186904D01*
X41358809Y-128139285D01*
X41596904Y-128139285D01*
X41692142Y-128186904D01*
X41739761Y-128234523D01*
X41787380Y-128329761D01*
X41787380Y-128567857D01*
X41739761Y-128663095D01*
X41692142Y-128710714D01*
X166727142Y-130976666D02*
X166774761Y-131024285D01*
X166822380Y-131167142D01*
X166822380Y-131262380D01*
X166774761Y-131405238D01*
X166679523Y-131500476D01*
X166584285Y-131548095D01*
X166393809Y-131595714D01*
X166250952Y-131595714D01*
X166060476Y-131548095D01*
X165965238Y-131500476D01*
X165870000Y-131405238D01*
X165822380Y-131262380D01*
X165822380Y-131167142D01*
X165870000Y-131024285D01*
X165917619Y-130976666D01*
X165917619Y-130595714D02*
X165870000Y-130548095D01*
X165822380Y-130452857D01*
X165822380Y-130214761D01*
X165870000Y-130119523D01*
X165917619Y-130071904D01*
X166012857Y-130024285D01*
X166108095Y-130024285D01*
X166250952Y-130071904D01*
X166822380Y-130643333D01*
X166822380Y-130024285D01*
X158512142Y-132266666D02*
X158559761Y-132314285D01*
X158607380Y-132457142D01*
X158607380Y-132552380D01*
X158559761Y-132695238D01*
X158464523Y-132790476D01*
X158369285Y-132838095D01*
X158178809Y-132885714D01*
X158035952Y-132885714D01*
X157845476Y-132838095D01*
X157750238Y-132790476D01*
X157655000Y-132695238D01*
X157607380Y-132552380D01*
X157607380Y-132457142D01*
X157655000Y-132314285D01*
X157702619Y-132266666D01*
X158607380Y-131314285D02*
X158607380Y-131885714D01*
X158607380Y-131600000D02*
X157607380Y-131600000D01*
X157750238Y-131695238D01*
X157845476Y-131790476D01*
X157893095Y-131885714D01*
X163770476Y-131102380D02*
X164437142Y-132102380D01*
X164437142Y-131102380D02*
X163770476Y-132102380D01*
X165341904Y-132102380D02*
X164770476Y-132102380D01*
X165056190Y-132102380D02*
X165056190Y-131102380D01*
X164960952Y-131245238D01*
X164865714Y-131340476D01*
X164770476Y-131388095D01*
X96988333Y-60777380D02*
X96655000Y-60301190D01*
X96416904Y-60777380D02*
X96416904Y-59777380D01*
X96797857Y-59777380D01*
X96893095Y-59825000D01*
X96940714Y-59872619D01*
X96988333Y-59967857D01*
X96988333Y-60110714D01*
X96940714Y-60205952D01*
X96893095Y-60253571D01*
X96797857Y-60301190D01*
X96416904Y-60301190D01*
X97321666Y-59777380D02*
X97988333Y-59777380D01*
X97559761Y-60777380D01*
X30416666Y-138492380D02*
X30083333Y-138016190D01*
X29845238Y-138492380D02*
X29845238Y-137492380D01*
X30226190Y-137492380D01*
X30321428Y-137540000D01*
X30369047Y-137587619D01*
X30416666Y-137682857D01*
X30416666Y-137825714D01*
X30369047Y-137920952D01*
X30321428Y-137968571D01*
X30226190Y-138016190D01*
X29845238Y-138016190D01*
X30845238Y-137968571D02*
X31178571Y-137968571D01*
X31321428Y-138492380D02*
X30845238Y-138492380D01*
X30845238Y-137492380D01*
X31321428Y-137492380D01*
X32083333Y-137968571D02*
X31750000Y-137968571D01*
X31750000Y-138492380D02*
X31750000Y-137492380D01*
X32226190Y-137492380D01*
X32750000Y-137492380D02*
X32750000Y-137730476D01*
X32511904Y-137635238D02*
X32750000Y-137730476D01*
X32988095Y-137635238D01*
X32607142Y-137920952D02*
X32750000Y-137730476D01*
X32892857Y-137920952D01*
X33511904Y-137492380D02*
X33511904Y-137730476D01*
X33273809Y-137635238D02*
X33511904Y-137730476D01*
X33750000Y-137635238D01*
X33369047Y-137920952D02*
X33511904Y-137730476D01*
X33654761Y-137920952D01*
X190436666Y-37527380D02*
X190103333Y-37051190D01*
X189865238Y-37527380D02*
X189865238Y-36527380D01*
X190246190Y-36527380D01*
X190341428Y-36575000D01*
X190389047Y-36622619D01*
X190436666Y-36717857D01*
X190436666Y-36860714D01*
X190389047Y-36955952D01*
X190341428Y-37003571D01*
X190246190Y-37051190D01*
X189865238Y-37051190D01*
X190865238Y-37003571D02*
X191198571Y-37003571D01*
X191341428Y-37527380D02*
X190865238Y-37527380D01*
X190865238Y-36527380D01*
X191341428Y-36527380D01*
X192103333Y-37003571D02*
X191770000Y-37003571D01*
X191770000Y-37527380D02*
X191770000Y-36527380D01*
X192246190Y-36527380D01*
X192770000Y-36527380D02*
X192770000Y-36765476D01*
X192531904Y-36670238D02*
X192770000Y-36765476D01*
X193008095Y-36670238D01*
X192627142Y-36955952D02*
X192770000Y-36765476D01*
X192912857Y-36955952D01*
X193531904Y-36527380D02*
X193531904Y-36765476D01*
X193293809Y-36670238D02*
X193531904Y-36765476D01*
X193770000Y-36670238D01*
X193389047Y-36955952D02*
X193531904Y-36765476D01*
X193674761Y-36955952D01*
X30416666Y-37527380D02*
X30083333Y-37051190D01*
X29845238Y-37527380D02*
X29845238Y-36527380D01*
X30226190Y-36527380D01*
X30321428Y-36575000D01*
X30369047Y-36622619D01*
X30416666Y-36717857D01*
X30416666Y-36860714D01*
X30369047Y-36955952D01*
X30321428Y-37003571D01*
X30226190Y-37051190D01*
X29845238Y-37051190D01*
X30845238Y-37003571D02*
X31178571Y-37003571D01*
X31321428Y-37527380D02*
X30845238Y-37527380D01*
X30845238Y-36527380D01*
X31321428Y-36527380D01*
X32083333Y-37003571D02*
X31750000Y-37003571D01*
X31750000Y-37527380D02*
X31750000Y-36527380D01*
X32226190Y-36527380D01*
X32750000Y-36527380D02*
X32750000Y-36765476D01*
X32511904Y-36670238D02*
X32750000Y-36765476D01*
X32988095Y-36670238D01*
X32607142Y-36955952D02*
X32750000Y-36765476D01*
X32892857Y-36955952D01*
X33511904Y-36527380D02*
X33511904Y-36765476D01*
X33273809Y-36670238D02*
X33511904Y-36765476D01*
X33750000Y-36670238D01*
X33369047Y-36955952D02*
X33511904Y-36765476D01*
X33654761Y-36955952D01*
X190436666Y-138492380D02*
X190103333Y-138016190D01*
X189865238Y-138492380D02*
X189865238Y-137492380D01*
X190246190Y-137492380D01*
X190341428Y-137540000D01*
X190389047Y-137587619D01*
X190436666Y-137682857D01*
X190436666Y-137825714D01*
X190389047Y-137920952D01*
X190341428Y-137968571D01*
X190246190Y-138016190D01*
X189865238Y-138016190D01*
X190865238Y-137968571D02*
X191198571Y-137968571D01*
X191341428Y-138492380D02*
X190865238Y-138492380D01*
X190865238Y-137492380D01*
X191341428Y-137492380D01*
X192103333Y-137968571D02*
X191770000Y-137968571D01*
X191770000Y-138492380D02*
X191770000Y-137492380D01*
X192246190Y-137492380D01*
X192770000Y-137492380D02*
X192770000Y-137730476D01*
X192531904Y-137635238D02*
X192770000Y-137730476D01*
X193008095Y-137635238D01*
X192627142Y-137920952D02*
X192770000Y-137730476D01*
X192912857Y-137920952D01*
X193531904Y-137492380D02*
X193531904Y-137730476D01*
X193293809Y-137635238D02*
X193531904Y-137730476D01*
X193770000Y-137635238D01*
X193389047Y-137920952D02*
X193531904Y-137730476D01*
X193674761Y-137920952D01*
D15*
X147260000Y-50800000D02*
X147260000Y-39370000D01*
X150670000Y-40085000D02*
X157670000Y-40085000D01*
X159970000Y-35450000D02*
X147370000Y-35450000D01*
X160080000Y-50800000D02*
X160080000Y-39370000D01*
X149670000Y-45085000D02*
X148670000Y-50085000D01*
X157670000Y-40085000D02*
X156670000Y-45085000D01*
X156670000Y-45085000D02*
X149670000Y-45085000D01*
X148670000Y-50085000D02*
X155670000Y-50085000D01*
X148370000Y-54720000D02*
X159970000Y-54720000D01*
X150670000Y-40085000D02*
X149670000Y-45085000D01*
X155670000Y-50085000D02*
X156670000Y-45085000D01*
X158117214Y-50085000D02*
G75*
G03*
X158117214Y-50085000I-447214J0D01*
G01*
X146635000Y-35450000D02*
X134035000Y-35450000D01*
X137335000Y-40085000D02*
X136335000Y-45085000D01*
X142335000Y-50085000D02*
X143335000Y-45085000D01*
X136335000Y-45085000D02*
X135335000Y-50085000D01*
X135035000Y-54720000D02*
X146635000Y-54720000D01*
X146745000Y-50800000D02*
X146745000Y-39370000D01*
X135335000Y-50085000D02*
X142335000Y-50085000D01*
X133925000Y-50800000D02*
X133925000Y-39370000D01*
X143335000Y-45085000D02*
X136335000Y-45085000D01*
X137335000Y-40085000D02*
X144335000Y-40085000D01*
X144335000Y-40085000D02*
X143335000Y-45085000D01*
X144782214Y-50085000D02*
G75*
G03*
X144782214Y-50085000I-447214J0D01*
G01*
X124555000Y-50085000D02*
X125555000Y-45085000D01*
X119555000Y-40085000D02*
X126555000Y-40085000D01*
X128855000Y-35450000D02*
X116255000Y-35450000D01*
X118555000Y-45085000D02*
X117555000Y-50085000D01*
X117555000Y-50085000D02*
X124555000Y-50085000D01*
X116145000Y-50800000D02*
X116145000Y-39370000D01*
X128965000Y-50800000D02*
X128965000Y-39370000D01*
X117255000Y-54720000D02*
X128855000Y-54720000D01*
X125555000Y-45085000D02*
X118555000Y-45085000D01*
X126555000Y-40085000D02*
X125555000Y-45085000D01*
X119555000Y-40085000D02*
X118555000Y-45085000D01*
X127002214Y-50085000D02*
G75*
G03*
X127002214Y-50085000I-447214J0D01*
G01*
X111220000Y-50085000D02*
X112220000Y-45085000D01*
X115630000Y-50800000D02*
X115630000Y-39370000D01*
X102810000Y-50800000D02*
X102810000Y-39370000D01*
X115520000Y-35450000D02*
X102920000Y-35450000D01*
X112220000Y-45085000D02*
X105220000Y-45085000D01*
X106220000Y-40085000D02*
X113220000Y-40085000D01*
X104220000Y-50085000D02*
X111220000Y-50085000D01*
X103920000Y-54720000D02*
X115520000Y-54720000D01*
X105220000Y-45085000D02*
X104220000Y-50085000D01*
X106220000Y-40085000D02*
X105220000Y-45085000D01*
X113220000Y-40085000D02*
X112220000Y-45085000D01*
X113667214Y-50085000D02*
G75*
G03*
X113667214Y-50085000I-447214J0D01*
G01*
X95934000Y-138111000D02*
X95655000Y-138111000D01*
X93575000Y-137471000D02*
X92580000Y-137471000D01*
X97193000Y-135990000D02*
X92037000Y-135990000D01*
X96905000Y-137071000D02*
X95655000Y-137071000D01*
X93575000Y-136470000D02*
X92104000Y-136470000D01*
X93575000Y-137111000D02*
X92347000Y-137111000D01*
X96586000Y-137551000D02*
X95655000Y-137551000D01*
X94899000Y-138471000D02*
X94331000Y-138471000D01*
X96925000Y-137031000D02*
X95655000Y-137031000D01*
X97188000Y-136070000D02*
X92042000Y-136070000D01*
X95133000Y-138431000D02*
X94097000Y-138431000D01*
X97151000Y-136350000D02*
X95655000Y-136350000D01*
X93575000Y-136991000D02*
X92286000Y-136991000D01*
X93575000Y-138071000D02*
X93232000Y-138071000D01*
X93575000Y-136350000D02*
X92079000Y-136350000D01*
X96839000Y-137191000D02*
X95655000Y-137191000D01*
X96737000Y-137351000D02*
X95655000Y-137351000D01*
X93575000Y-137871000D02*
X92962000Y-137871000D01*
X93575000Y-136510000D02*
X92114000Y-136510000D01*
X97126000Y-136470000D02*
X95655000Y-136470000D01*
X96619000Y-137511000D02*
X95655000Y-137511000D01*
X93575000Y-136390000D02*
X92087000Y-136390000D01*
X93575000Y-137191000D02*
X92391000Y-137191000D01*
X97195000Y-135910000D02*
X92035000Y-135910000D01*
X96169000Y-137951000D02*
X95655000Y-137951000D01*
X93575000Y-137791000D02*
X92872000Y-137791000D01*
X93575000Y-137351000D02*
X92493000Y-137351000D01*
X95626000Y-138271000D02*
X93604000Y-138271000D01*
X97143000Y-136390000D02*
X95655000Y-136390000D01*
X93575000Y-138031000D02*
X93172000Y-138031000D01*
X96479000Y-137671000D02*
X95655000Y-137671000D01*
X93575000Y-136871000D02*
X92233000Y-136871000D01*
X93575000Y-137951000D02*
X93061000Y-137951000D01*
X97180000Y-136150000D02*
X95655000Y-136150000D01*
X93575000Y-137151000D02*
X92368000Y-137151000D01*
X96358000Y-137791000D02*
X95655000Y-137791000D01*
X97095000Y-136591000D02*
X95655000Y-136591000D01*
X96963000Y-136951000D02*
X95655000Y-136951000D01*
X93575000Y-136711000D02*
X92173000Y-136711000D01*
X96090000Y-133065225D02*
X96090000Y-133565225D01*
X93575000Y-136110000D02*
X92046000Y-136110000D01*
X93575000Y-138151000D02*
X93364000Y-138151000D01*
X96650000Y-137471000D02*
X95655000Y-137471000D01*
X97158000Y-136310000D02*
X95655000Y-136310000D01*
X95420000Y-138351000D02*
X93810000Y-138351000D01*
X96997000Y-136871000D02*
X95655000Y-136871000D01*
X93575000Y-136671000D02*
X92160000Y-136671000D01*
X96764000Y-137311000D02*
X95655000Y-137311000D01*
X96220000Y-137911000D02*
X95655000Y-137911000D01*
X97171000Y-136230000D02*
X95655000Y-136230000D01*
X93575000Y-136831000D02*
X92217000Y-136831000D01*
X97165000Y-136270000D02*
X95655000Y-136270000D01*
X93575000Y-137751000D02*
X92830000Y-137751000D01*
X97070000Y-136671000D02*
X95655000Y-136671000D01*
X96058000Y-138031000D02*
X95655000Y-138031000D01*
X93575000Y-137311000D02*
X92466000Y-137311000D01*
X96790000Y-137271000D02*
X95655000Y-137271000D01*
X97043000Y-136751000D02*
X95655000Y-136751000D01*
X93575000Y-137831000D02*
X92916000Y-137831000D01*
X97116000Y-136510000D02*
X95655000Y-136510000D01*
X97057000Y-136711000D02*
X95655000Y-136711000D01*
X96944000Y-136991000D02*
X95655000Y-136991000D01*
X93575000Y-137271000D02*
X92440000Y-137271000D01*
X97194000Y-135950000D02*
X92036000Y-135950000D01*
X95998000Y-138071000D02*
X95655000Y-138071000D01*
X96115000Y-137991000D02*
X95655000Y-137991000D01*
X93575000Y-136751000D02*
X92187000Y-136751000D01*
X93575000Y-137391000D02*
X92520000Y-137391000D01*
X93575000Y-136230000D02*
X92059000Y-136230000D01*
X93575000Y-136550000D02*
X92124000Y-136550000D01*
X93575000Y-137511000D02*
X92611000Y-137511000D01*
X96314000Y-137831000D02*
X95655000Y-137831000D01*
X97191000Y-136030000D02*
X92039000Y-136030000D01*
X93575000Y-136791000D02*
X92201000Y-136791000D01*
X95530000Y-138311000D02*
X93700000Y-138311000D01*
X97083000Y-136631000D02*
X95655000Y-136631000D01*
X96516000Y-137631000D02*
X95655000Y-137631000D01*
X93575000Y-136150000D02*
X92050000Y-136150000D01*
X93575000Y-136190000D02*
X92054000Y-136190000D01*
X93575000Y-137431000D02*
X92550000Y-137431000D01*
X93575000Y-136430000D02*
X92095000Y-136430000D01*
X96815000Y-137231000D02*
X95655000Y-137231000D01*
X93575000Y-137991000D02*
X93115000Y-137991000D01*
X96862000Y-137151000D02*
X95655000Y-137151000D01*
X93575000Y-137231000D02*
X92415000Y-137231000D01*
X97176000Y-136190000D02*
X95655000Y-136190000D01*
X97029000Y-136791000D02*
X95655000Y-136791000D01*
X97184000Y-136110000D02*
X95655000Y-136110000D01*
X93575000Y-137911000D02*
X93010000Y-137911000D01*
X93575000Y-136310000D02*
X92072000Y-136310000D01*
X96340000Y-133315225D02*
X95840000Y-133315225D01*
X93575000Y-137631000D02*
X92714000Y-137631000D01*
X96268000Y-137871000D02*
X95655000Y-137871000D01*
X93575000Y-136951000D02*
X92267000Y-136951000D01*
X93575000Y-136631000D02*
X92147000Y-136631000D01*
X93575000Y-137031000D02*
X92305000Y-137031000D01*
X95866000Y-138151000D02*
X95655000Y-138151000D01*
X96400000Y-137751000D02*
X95655000Y-137751000D01*
X97195000Y-135870000D02*
X92035000Y-135870000D01*
X95713000Y-138231000D02*
X93517000Y-138231000D01*
X96680000Y-137431000D02*
X95655000Y-137431000D01*
X97106000Y-136550000D02*
X95655000Y-136550000D01*
X93575000Y-137711000D02*
X92789000Y-137711000D01*
X93575000Y-137591000D02*
X92678000Y-137591000D01*
X93575000Y-137671000D02*
X92751000Y-137671000D01*
X95292000Y-138391000D02*
X93938000Y-138391000D01*
X95793000Y-138191000D02*
X93437000Y-138191000D01*
X97135000Y-136430000D02*
X95655000Y-136430000D01*
X93575000Y-136270000D02*
X92065000Y-136270000D01*
X96980000Y-136911000D02*
X95655000Y-136911000D01*
X96710000Y-137391000D02*
X95655000Y-137391000D01*
X93575000Y-137071000D02*
X92325000Y-137071000D01*
X96441000Y-137711000D02*
X95655000Y-137711000D01*
X93575000Y-136591000D02*
X92135000Y-136591000D01*
X93575000Y-138111000D02*
X93296000Y-138111000D01*
X96883000Y-137111000D02*
X95655000Y-137111000D01*
X93575000Y-137551000D02*
X92644000Y-137551000D01*
X96552000Y-137591000D02*
X95655000Y-137591000D01*
X93575000Y-136911000D02*
X92250000Y-136911000D01*
X97013000Y-136831000D02*
X95655000Y-136831000D01*
X97235000Y-135870000D02*
G75*
G03*
X97235000Y-135870000I-2620000J0D01*
G01*
X86903000Y-138191000D02*
X84547000Y-138191000D01*
X87551000Y-137711000D02*
X86765000Y-137711000D01*
X87925000Y-137231000D02*
X86765000Y-137231000D01*
X84685000Y-136390000D02*
X83197000Y-136390000D01*
X84685000Y-137191000D02*
X83501000Y-137191000D01*
X84685000Y-137431000D02*
X83660000Y-137431000D01*
X88193000Y-136631000D02*
X86765000Y-136631000D01*
X84685000Y-137231000D02*
X83525000Y-137231000D01*
X84685000Y-136430000D02*
X83205000Y-136430000D01*
X84685000Y-137151000D02*
X83478000Y-137151000D01*
X86402000Y-138391000D02*
X85048000Y-138391000D01*
X84685000Y-137031000D02*
X83415000Y-137031000D01*
X84685000Y-137351000D02*
X83603000Y-137351000D01*
X84685000Y-136270000D02*
X83175000Y-136270000D01*
X84685000Y-136751000D02*
X83297000Y-136751000D01*
X87696000Y-137551000D02*
X86765000Y-137551000D01*
X86009000Y-138471000D02*
X85441000Y-138471000D01*
X88054000Y-136991000D02*
X86765000Y-136991000D01*
X88305000Y-135910000D02*
X83145000Y-135910000D01*
X84685000Y-136310000D02*
X83182000Y-136310000D01*
X87949000Y-137191000D02*
X86765000Y-137191000D01*
X88268000Y-136310000D02*
X86765000Y-136310000D01*
X88090000Y-136911000D02*
X86765000Y-136911000D01*
X84685000Y-137671000D02*
X83861000Y-137671000D01*
X84685000Y-137991000D02*
X84225000Y-137991000D01*
X86823000Y-138231000D02*
X84627000Y-138231000D01*
X87468000Y-137791000D02*
X86765000Y-137791000D01*
X88226000Y-136510000D02*
X86765000Y-136510000D01*
X84685000Y-136951000D02*
X83377000Y-136951000D01*
X87279000Y-137951000D02*
X86765000Y-137951000D01*
X84685000Y-136110000D02*
X83156000Y-136110000D01*
X87330000Y-137911000D02*
X86765000Y-137911000D01*
X86243000Y-138431000D02*
X85207000Y-138431000D01*
X84685000Y-136831000D02*
X83327000Y-136831000D01*
X84685000Y-136791000D02*
X83311000Y-136791000D01*
X87626000Y-137631000D02*
X86765000Y-137631000D01*
X87168000Y-138031000D02*
X86765000Y-138031000D01*
X84685000Y-137791000D02*
X83982000Y-137791000D01*
X84685000Y-137551000D02*
X83754000Y-137551000D01*
X88275000Y-136270000D02*
X86765000Y-136270000D01*
X84685000Y-137871000D02*
X84072000Y-137871000D01*
X84685000Y-137111000D02*
X83457000Y-137111000D01*
X84685000Y-137271000D02*
X83550000Y-137271000D01*
X88015000Y-137071000D02*
X86765000Y-137071000D01*
X87450000Y-133315225D02*
X86950000Y-133315225D01*
X84685000Y-137711000D02*
X83899000Y-137711000D01*
X84685000Y-136711000D02*
X83283000Y-136711000D01*
X84685000Y-136190000D02*
X83164000Y-136190000D01*
X87510000Y-137751000D02*
X86765000Y-137751000D01*
X84685000Y-136550000D02*
X83234000Y-136550000D01*
X86530000Y-138351000D02*
X84920000Y-138351000D01*
X88304000Y-135950000D02*
X83146000Y-135950000D01*
X88073000Y-136951000D02*
X86765000Y-136951000D01*
X84685000Y-136911000D02*
X83360000Y-136911000D01*
X88035000Y-137031000D02*
X86765000Y-137031000D01*
X87820000Y-137391000D02*
X86765000Y-137391000D01*
X84685000Y-136631000D02*
X83257000Y-136631000D01*
X88236000Y-136470000D02*
X86765000Y-136470000D01*
X84685000Y-137591000D02*
X83788000Y-137591000D01*
X87424000Y-137831000D02*
X86765000Y-137831000D01*
X84685000Y-136350000D02*
X83189000Y-136350000D01*
X88216000Y-136550000D02*
X86765000Y-136550000D01*
X87108000Y-138071000D02*
X86765000Y-138071000D01*
X88305000Y-135870000D02*
X83145000Y-135870000D01*
X86640000Y-138311000D02*
X84810000Y-138311000D01*
X87790000Y-137431000D02*
X86765000Y-137431000D01*
X84685000Y-136871000D02*
X83343000Y-136871000D01*
X84685000Y-137951000D02*
X84171000Y-137951000D01*
X84685000Y-137071000D02*
X83435000Y-137071000D01*
X86736000Y-138271000D02*
X84714000Y-138271000D01*
X84685000Y-136230000D02*
X83169000Y-136230000D01*
X86976000Y-138151000D02*
X86765000Y-138151000D01*
X84685000Y-137391000D02*
X83630000Y-137391000D01*
X84685000Y-136991000D02*
X83396000Y-136991000D01*
X87972000Y-137151000D02*
X86765000Y-137151000D01*
X87874000Y-137311000D02*
X86765000Y-137311000D01*
X88107000Y-136871000D02*
X86765000Y-136871000D01*
X84685000Y-136671000D02*
X83270000Y-136671000D01*
X84685000Y-137751000D02*
X83940000Y-137751000D01*
X88180000Y-136671000D02*
X86765000Y-136671000D01*
X88123000Y-136831000D02*
X86765000Y-136831000D01*
X87662000Y-137591000D02*
X86765000Y-137591000D01*
X87760000Y-137471000D02*
X86765000Y-137471000D01*
X84685000Y-138071000D02*
X84342000Y-138071000D01*
X84685000Y-137511000D02*
X83721000Y-137511000D01*
X88253000Y-136390000D02*
X86765000Y-136390000D01*
X88298000Y-136070000D02*
X83152000Y-136070000D01*
X84685000Y-136470000D02*
X83214000Y-136470000D01*
X88294000Y-136110000D02*
X86765000Y-136110000D01*
X88290000Y-136150000D02*
X86765000Y-136150000D01*
X84685000Y-138151000D02*
X84474000Y-138151000D01*
X84685000Y-136591000D02*
X83245000Y-136591000D01*
X88303000Y-135990000D02*
X83147000Y-135990000D01*
X84685000Y-137911000D02*
X84120000Y-137911000D01*
X88139000Y-136791000D02*
X86765000Y-136791000D01*
X84685000Y-136150000D02*
X83160000Y-136150000D01*
X87589000Y-137671000D02*
X86765000Y-137671000D01*
X84685000Y-137631000D02*
X83824000Y-137631000D01*
X88281000Y-136230000D02*
X86765000Y-136230000D01*
X88286000Y-136190000D02*
X86765000Y-136190000D01*
X84685000Y-138111000D02*
X84406000Y-138111000D01*
X88245000Y-136430000D02*
X86765000Y-136430000D01*
X87225000Y-137991000D02*
X86765000Y-137991000D01*
X87847000Y-137351000D02*
X86765000Y-137351000D01*
X88261000Y-136350000D02*
X86765000Y-136350000D01*
X87200000Y-133065225D02*
X87200000Y-133565225D01*
X87900000Y-137271000D02*
X86765000Y-137271000D01*
X84685000Y-137471000D02*
X83690000Y-137471000D01*
X88153000Y-136751000D02*
X86765000Y-136751000D01*
X84685000Y-137311000D02*
X83576000Y-137311000D01*
X84685000Y-137831000D02*
X84026000Y-137831000D01*
X87378000Y-137871000D02*
X86765000Y-137871000D01*
X87993000Y-137111000D02*
X86765000Y-137111000D01*
X87729000Y-137511000D02*
X86765000Y-137511000D01*
X84685000Y-136510000D02*
X83224000Y-136510000D01*
X88167000Y-136711000D02*
X86765000Y-136711000D01*
X87044000Y-138111000D02*
X86765000Y-138111000D01*
X84685000Y-138031000D02*
X84282000Y-138031000D01*
X88301000Y-136030000D02*
X83149000Y-136030000D01*
X88205000Y-136591000D02*
X86765000Y-136591000D01*
X88345000Y-135870000D02*
G75*
G03*
X88345000Y-135870000I-2620000J0D01*
G01*
X103355000Y-137030000D02*
X101115000Y-137030000D01*
X102235000Y-141200000D02*
X102235000Y-140550000D01*
X102235000Y-135660000D02*
X102235000Y-136310000D01*
X103355000Y-136910000D02*
X101115000Y-136910000D01*
X101115000Y-140550000D02*
X103355000Y-140550000D01*
X103355000Y-136310000D02*
X101115000Y-136310000D01*
X103355000Y-140550000D02*
X103355000Y-136310000D01*
X101115000Y-136310000D02*
X101115000Y-140550000D01*
X103355000Y-137150000D02*
X101115000Y-137150000D01*
X76985000Y-136310000D02*
X76985000Y-140550000D01*
X79225000Y-136910000D02*
X76985000Y-136910000D01*
X79225000Y-137030000D02*
X76985000Y-137030000D01*
X78105000Y-141200000D02*
X78105000Y-140550000D01*
X78105000Y-135660000D02*
X78105000Y-136310000D01*
X79225000Y-136310000D02*
X76985000Y-136310000D01*
X79225000Y-140550000D02*
X79225000Y-136310000D01*
X79225000Y-137150000D02*
X76985000Y-137150000D01*
X76985000Y-140550000D02*
X79225000Y-140550000D01*
X94960000Y-41085000D02*
X94960000Y-41241000D01*
X94960000Y-38769000D02*
X94960000Y-38925000D01*
X95479039Y-41085000D02*
G75*
G03*
X97561130Y-41084837I1040961J1080000D01*
G01*
X98192335Y-38926392D02*
G75*
G03*
X94960000Y-38769484I-1672335J-1078608D01*
G01*
X97561130Y-38925163D02*
G75*
G03*
X95479039Y-38925000I-1041130J-1079837D01*
G01*
X94960000Y-41240516D02*
G75*
G03*
X98192335Y-41083608I1560000J1235516D01*
G01*
X98080000Y-49085000D02*
X98080000Y-48929000D01*
X98080000Y-51401000D02*
X98080000Y-51245000D01*
X94847665Y-51243608D02*
G75*
G03*
X98080000Y-51400516I1672335J1078608D01*
G01*
X97560961Y-49085000D02*
G75*
G03*
X95478870Y-49085163I-1040961J-1080000D01*
G01*
X98080000Y-48929484D02*
G75*
G03*
X94847665Y-49086392I-1560000J-1235516D01*
G01*
X95478870Y-51244837D02*
G75*
G03*
X97560961Y-51245000I1041130J1079837D01*
G01*
X173990000Y-128675000D02*
X173990000Y-129445000D01*
X173990000Y-136755000D02*
X173990000Y-135985000D01*
X175360000Y-129445000D02*
X172620000Y-129445000D01*
X172620000Y-135985000D02*
X175360000Y-135985000D01*
X175360000Y-135985000D02*
X175360000Y-129445000D01*
X172620000Y-129445000D02*
X172620000Y-135985000D01*
X154205000Y-129445000D02*
X154205000Y-135985000D01*
X154205000Y-135985000D02*
X156945000Y-135985000D01*
X156945000Y-129445000D02*
X154205000Y-129445000D01*
X155575000Y-128675000D02*
X155575000Y-129445000D01*
X156945000Y-135985000D02*
X156945000Y-129445000D01*
X155575000Y-136755000D02*
X155575000Y-135985000D01*
X113565000Y-133890000D02*
X113565000Y-140430000D01*
X113565000Y-140430000D02*
X116305000Y-140430000D01*
X116305000Y-133890000D02*
X113565000Y-133890000D01*
X116305000Y-140430000D02*
X116305000Y-133890000D01*
X114935000Y-133120000D02*
X114935000Y-133890000D01*
X114935000Y-141200000D02*
X114935000Y-140430000D01*
X107850000Y-133890000D02*
X107850000Y-140430000D01*
X107850000Y-140430000D02*
X110590000Y-140430000D01*
X110590000Y-140430000D02*
X110590000Y-133890000D01*
X110590000Y-133890000D02*
X107850000Y-133890000D01*
X109220000Y-133120000D02*
X109220000Y-133890000D01*
X109220000Y-141200000D02*
X109220000Y-140430000D01*
X71755000Y-133120000D02*
X71755000Y-133890000D01*
X70385000Y-133890000D02*
X70385000Y-140430000D01*
X70385000Y-140430000D02*
X73125000Y-140430000D01*
X73125000Y-140430000D02*
X73125000Y-133890000D01*
X73125000Y-133890000D02*
X70385000Y-133890000D01*
X71755000Y-141200000D02*
X71755000Y-140430000D01*
X67410000Y-140430000D02*
X67410000Y-133890000D01*
X67410000Y-133890000D02*
X64670000Y-133890000D01*
X66040000Y-133120000D02*
X66040000Y-133890000D01*
X64670000Y-140430000D02*
X67410000Y-140430000D01*
X66040000Y-141200000D02*
X66040000Y-140430000D01*
X64670000Y-133890000D02*
X64670000Y-140430000D01*
X174525000Y-68485000D02*
X174525000Y-75025000D01*
X177265000Y-68485000D02*
X174525000Y-68485000D01*
X174525000Y-75025000D02*
X177265000Y-75025000D01*
X177265000Y-75025000D02*
X177265000Y-68485000D01*
X175895000Y-75795000D02*
X175895000Y-75025000D01*
X175895000Y-67715000D02*
X175895000Y-68485000D01*
X181075000Y-75025000D02*
X181075000Y-68485000D01*
X181075000Y-68485000D02*
X178335000Y-68485000D01*
X179705000Y-75795000D02*
X179705000Y-75025000D01*
X179705000Y-67715000D02*
X179705000Y-68485000D01*
X178335000Y-75025000D02*
X181075000Y-75025000D01*
X178335000Y-68485000D02*
X178335000Y-75025000D01*
X184885000Y-68485000D02*
X182145000Y-68485000D01*
X184885000Y-75025000D02*
X184885000Y-68485000D01*
X183515000Y-67715000D02*
X183515000Y-68485000D01*
X183515000Y-75795000D02*
X183515000Y-75025000D01*
X182145000Y-68485000D02*
X182145000Y-75025000D01*
X182145000Y-75025000D02*
X184885000Y-75025000D01*
X185955000Y-68485000D02*
X185955000Y-75025000D01*
X188695000Y-75025000D02*
X188695000Y-68485000D01*
X185955000Y-75025000D02*
X188695000Y-75025000D01*
X187325000Y-67715000D02*
X187325000Y-68485000D01*
X187325000Y-75795000D02*
X187325000Y-75025000D01*
X188695000Y-68485000D02*
X185955000Y-68485000D01*
X191135000Y-75795000D02*
X191135000Y-75025000D01*
X192505000Y-68485000D02*
X189765000Y-68485000D01*
X189765000Y-68485000D02*
X189765000Y-75025000D01*
X192505000Y-75025000D02*
X192505000Y-68485000D01*
X191135000Y-67715000D02*
X191135000Y-68485000D01*
X189765000Y-75025000D02*
X192505000Y-75025000D01*
X169645000Y-68485000D02*
X166905000Y-68485000D01*
X168275000Y-75795000D02*
X168275000Y-75025000D01*
X166905000Y-75025000D02*
X169645000Y-75025000D01*
X168275000Y-67715000D02*
X168275000Y-68485000D01*
X166905000Y-68485000D02*
X166905000Y-75025000D01*
X169645000Y-75025000D02*
X169645000Y-68485000D01*
X163830000Y-75795000D02*
X163830000Y-75025000D01*
X163830000Y-67715000D02*
X163830000Y-68485000D01*
X165200000Y-75025000D02*
X165200000Y-68485000D01*
X162460000Y-75025000D02*
X165200000Y-75025000D01*
X162460000Y-68485000D02*
X162460000Y-75025000D01*
X165200000Y-68485000D02*
X162460000Y-68485000D01*
X139600000Y-75025000D02*
X142340000Y-75025000D01*
X139600000Y-68485000D02*
X139600000Y-75025000D01*
X140970000Y-75795000D02*
X140970000Y-75025000D01*
X142340000Y-68485000D02*
X139600000Y-68485000D01*
X142340000Y-75025000D02*
X142340000Y-68485000D01*
X140970000Y-67715000D02*
X140970000Y-68485000D01*
X119915000Y-68485000D02*
X119915000Y-75025000D01*
X122655000Y-75025000D02*
X122655000Y-68485000D01*
X122655000Y-68485000D02*
X119915000Y-68485000D01*
X121285000Y-67715000D02*
X121285000Y-68485000D01*
X119915000Y-75025000D02*
X122655000Y-75025000D01*
X121285000Y-75795000D02*
X121285000Y-75025000D01*
X126465000Y-68485000D02*
X123725000Y-68485000D01*
X125095000Y-75795000D02*
X125095000Y-75025000D01*
X125095000Y-67715000D02*
X125095000Y-68485000D01*
X123725000Y-68485000D02*
X123725000Y-75025000D01*
X123725000Y-75025000D02*
X126465000Y-75025000D01*
X126465000Y-75025000D02*
X126465000Y-68485000D01*
X128905000Y-75795000D02*
X128905000Y-75025000D01*
X130275000Y-75025000D02*
X130275000Y-68485000D01*
X128905000Y-67715000D02*
X128905000Y-68485000D01*
X127535000Y-75025000D02*
X130275000Y-75025000D01*
X130275000Y-68485000D02*
X127535000Y-68485000D01*
X127535000Y-68485000D02*
X127535000Y-75025000D01*
X131345000Y-68485000D02*
X131345000Y-75025000D01*
X132715000Y-67715000D02*
X132715000Y-68485000D01*
X134085000Y-68485000D02*
X131345000Y-68485000D01*
X131345000Y-75025000D02*
X134085000Y-75025000D01*
X132715000Y-75795000D02*
X132715000Y-75025000D01*
X134085000Y-75025000D02*
X134085000Y-68485000D01*
X137895000Y-75025000D02*
X137895000Y-68485000D01*
X135155000Y-68485000D02*
X135155000Y-75025000D01*
X135155000Y-75025000D02*
X137895000Y-75025000D01*
X137895000Y-68485000D02*
X135155000Y-68485000D01*
X136525000Y-75795000D02*
X136525000Y-75025000D01*
X136525000Y-67715000D02*
X136525000Y-68485000D01*
X115035000Y-75025000D02*
X115035000Y-68485000D01*
X113665000Y-67715000D02*
X113665000Y-68485000D01*
X112295000Y-75025000D02*
X115035000Y-75025000D01*
X115035000Y-68485000D02*
X112295000Y-68485000D01*
X113665000Y-75795000D02*
X113665000Y-75025000D01*
X112295000Y-68485000D02*
X112295000Y-75025000D01*
X117475000Y-75795000D02*
X117475000Y-75025000D01*
X118845000Y-75025000D02*
X118845000Y-68485000D01*
X118845000Y-68485000D02*
X116105000Y-68485000D01*
X117475000Y-67715000D02*
X117475000Y-68485000D01*
X116105000Y-68485000D02*
X116105000Y-75025000D01*
X116105000Y-75025000D02*
X118845000Y-75025000D01*
X91340000Y-75025000D02*
X94080000Y-75025000D01*
X91340000Y-68485000D02*
X91340000Y-75025000D01*
X94080000Y-68485000D02*
X91340000Y-68485000D01*
X94080000Y-75025000D02*
X94080000Y-68485000D01*
X92710000Y-75795000D02*
X92710000Y-75025000D01*
X92710000Y-67715000D02*
X92710000Y-68485000D01*
X96520000Y-75795000D02*
X96520000Y-75025000D01*
X96520000Y-67715000D02*
X96520000Y-68485000D01*
X97890000Y-75025000D02*
X97890000Y-68485000D01*
X95150000Y-68485000D02*
X95150000Y-75025000D01*
X97890000Y-68485000D02*
X95150000Y-68485000D01*
X95150000Y-75025000D02*
X97890000Y-75025000D01*
X101700000Y-75025000D02*
X101700000Y-68485000D01*
X100330000Y-67715000D02*
X100330000Y-68485000D01*
X101700000Y-68485000D02*
X98960000Y-68485000D01*
X98960000Y-75025000D02*
X101700000Y-75025000D01*
X100330000Y-75795000D02*
X100330000Y-75025000D01*
X98960000Y-68485000D02*
X98960000Y-75025000D01*
X102770000Y-68485000D02*
X102770000Y-75025000D01*
X104140000Y-67715000D02*
X104140000Y-68485000D01*
X102770000Y-75025000D02*
X105510000Y-75025000D01*
X105510000Y-75025000D02*
X105510000Y-68485000D01*
X105510000Y-68485000D02*
X102770000Y-68485000D01*
X104140000Y-75795000D02*
X104140000Y-75025000D01*
X83720000Y-68485000D02*
X83720000Y-75025000D01*
X86460000Y-68485000D02*
X83720000Y-68485000D01*
X83720000Y-75025000D02*
X86460000Y-75025000D01*
X85090000Y-75795000D02*
X85090000Y-75025000D01*
X86460000Y-75025000D02*
X86460000Y-68485000D01*
X85090000Y-67715000D02*
X85090000Y-68485000D01*
X90270000Y-75025000D02*
X90270000Y-68485000D01*
X88900000Y-75795000D02*
X88900000Y-75025000D01*
X90270000Y-68485000D02*
X87530000Y-68485000D01*
X87530000Y-75025000D02*
X90270000Y-75025000D01*
X88900000Y-67715000D02*
X88900000Y-68485000D01*
X87530000Y-68485000D02*
X87530000Y-75025000D01*
X32920000Y-68232749D02*
X32920000Y-74772749D01*
X35660000Y-74772749D02*
X35660000Y-68232749D01*
X35660000Y-68232749D02*
X32920000Y-68232749D01*
X32920000Y-74772749D02*
X35660000Y-74772749D01*
X34290000Y-75542749D02*
X34290000Y-74772749D01*
X34290000Y-67462749D02*
X34290000Y-68232749D01*
X90115000Y-62125000D02*
X90115000Y-58525000D01*
X90103478Y-58486522D02*
G75*
G03*
X85665000Y-60325000I-1838478J-1838478D01*
G01*
X85664999Y-60325000D02*
G75*
G03*
X90103478Y-62163478I2600001J0D01*
G01*
X149165000Y-121460000D02*
X169605000Y-121460000D01*
X169605000Y-117810000D02*
X169605000Y-116160000D01*
X149165000Y-116160000D02*
X149165000Y-121460000D01*
X169605000Y-116160000D02*
X149165000Y-116160000D01*
X169605000Y-121460000D02*
X169605000Y-119810000D01*
X169605000Y-117810000D02*
G75*
G03*
X169605000Y-119810000I0J-1000000D01*
G01*
X176470000Y-121460000D02*
X194370000Y-121460000D01*
X194370000Y-116160000D02*
X176470000Y-116160000D01*
X194370000Y-117810000D02*
X194370000Y-116160000D01*
X176470000Y-116160000D02*
X176470000Y-121460000D01*
X194370000Y-121460000D02*
X194370000Y-119810000D01*
X194370000Y-117810000D02*
G75*
G03*
X194370000Y-119810000I0J-1000000D01*
G01*
X176470000Y-106790000D02*
X194370000Y-106790000D01*
X194370000Y-106790000D02*
X194370000Y-105140000D01*
X194370000Y-103140000D02*
X194370000Y-101490000D01*
X176470000Y-101490000D02*
X176470000Y-106790000D01*
X194370000Y-101490000D02*
X176470000Y-101490000D01*
X194370000Y-103140000D02*
G75*
G03*
X194370000Y-105140000I0J-1000000D01*
G01*
X173930000Y-88630000D02*
X173930000Y-90280000D01*
X194370000Y-90280000D02*
X194370000Y-84980000D01*
X194370000Y-84980000D02*
X173930000Y-84980000D01*
X173930000Y-90280000D02*
X194370000Y-90280000D01*
X173930000Y-84980000D02*
X173930000Y-86630000D01*
X173930000Y-88630000D02*
G75*
G03*
X173930000Y-86630000I0J1000000D01*
G01*
X139125000Y-101490000D02*
X121225000Y-101490000D01*
X121225000Y-106790000D02*
X139125000Y-106790000D01*
X139125000Y-103140000D02*
X139125000Y-101490000D01*
X139125000Y-106790000D02*
X139125000Y-105140000D01*
X121225000Y-101490000D02*
X121225000Y-106790000D01*
X139125000Y-103140000D02*
G75*
G03*
X139125000Y-105140000I0J-1000000D01*
G01*
X139760000Y-90280000D02*
X139760000Y-84980000D01*
X119320000Y-88630000D02*
X119320000Y-90280000D01*
X139760000Y-84980000D02*
X119320000Y-84980000D01*
X119320000Y-84980000D02*
X119320000Y-86630000D01*
X119320000Y-90280000D02*
X139760000Y-90280000D01*
X119320000Y-88630000D02*
G75*
G03*
X119320000Y-86630000I0J1000000D01*
G01*
X92650000Y-101490000D02*
X92650000Y-106790000D01*
X110550000Y-106790000D02*
X110550000Y-105140000D01*
X110550000Y-103140000D02*
X110550000Y-101490000D01*
X110550000Y-101490000D02*
X92650000Y-101490000D01*
X92650000Y-106790000D02*
X110550000Y-106790000D01*
X110550000Y-103140000D02*
G75*
G03*
X110550000Y-105140000I0J-1000000D01*
G01*
X111185000Y-90280000D02*
X111185000Y-84980000D01*
X90745000Y-88630000D02*
X90745000Y-90280000D01*
X111185000Y-84980000D02*
X90745000Y-84980000D01*
X90745000Y-90280000D02*
X111185000Y-90280000D01*
X90745000Y-84980000D02*
X90745000Y-86630000D01*
X90745000Y-88630000D02*
G75*
G03*
X90745000Y-86630000I0J1000000D01*
G01*
X56575000Y-90280000D02*
X56575000Y-84980000D01*
X36135000Y-90280000D02*
X56575000Y-90280000D01*
X56575000Y-84980000D02*
X36135000Y-84980000D01*
X36135000Y-88630000D02*
X36135000Y-90280000D01*
X36135000Y-84980000D02*
X36135000Y-86630000D01*
X36135000Y-88630000D02*
G75*
G03*
X36135000Y-86630000I0J1000000D01*
G01*
X110550000Y-116160000D02*
X92650000Y-116160000D01*
X92650000Y-116160000D02*
X92650000Y-121460000D01*
X110550000Y-117810000D02*
X110550000Y-116160000D01*
X110550000Y-121460000D02*
X110550000Y-119810000D01*
X92650000Y-121460000D02*
X110550000Y-121460000D01*
X110550000Y-117810000D02*
G75*
G03*
X110550000Y-119810000I0J-1000000D01*
G01*
X139125000Y-121460000D02*
X139125000Y-119810000D01*
X139125000Y-117810000D02*
X139125000Y-116160000D01*
X121225000Y-121460000D02*
X139125000Y-121460000D01*
X139125000Y-116160000D02*
X121225000Y-116160000D01*
X121225000Y-116160000D02*
X121225000Y-121460000D01*
X139125000Y-117810000D02*
G75*
G03*
X139125000Y-119810000I0J-1000000D01*
G01*
X144586000Y-132858000D02*
X144586000Y-131208000D01*
X126686000Y-136508000D02*
X144586000Y-136508000D01*
X126686000Y-131208000D02*
X126686000Y-136508000D01*
X144586000Y-131208000D02*
X126686000Y-131208000D01*
X144586000Y-136508000D02*
X144586000Y-134858000D01*
X144586000Y-132858000D02*
G75*
G03*
X144586000Y-134858000I0J-1000000D01*
G01*
X41335000Y-97255000D02*
X36095000Y-97255000D01*
X41335000Y-94515000D02*
X36095000Y-94515000D01*
X41335000Y-97255000D02*
X41335000Y-94515000D01*
X36095000Y-97255000D02*
X36095000Y-94515000D01*
X171985000Y-123905000D02*
X171985000Y-118665000D01*
X174725000Y-123905000D02*
X174725000Y-118665000D01*
X171985000Y-123905000D02*
X174725000Y-123905000D01*
X171985000Y-118665000D02*
X174725000Y-118665000D01*
X69930000Y-94515000D02*
X64690000Y-94515000D01*
X64690000Y-97255000D02*
X64690000Y-94515000D01*
X69930000Y-97255000D02*
X64690000Y-97255000D01*
X69930000Y-97255000D02*
X69930000Y-94515000D01*
X61060000Y-87690000D02*
X58320000Y-87690000D01*
X61060000Y-82450000D02*
X61060000Y-87690000D01*
X58320000Y-82450000D02*
X58320000Y-87690000D01*
X61060000Y-82450000D02*
X58320000Y-82450000D01*
X184230000Y-97255000D02*
X184230000Y-94515000D01*
X184230000Y-97255000D02*
X178990000Y-97255000D01*
X184230000Y-94515000D02*
X178990000Y-94515000D01*
X178990000Y-97255000D02*
X178990000Y-94515000D01*
X126445000Y-97255000D02*
X126445000Y-94515000D01*
X126445000Y-94515000D02*
X121205000Y-94515000D01*
X126445000Y-97255000D02*
X121205000Y-97255000D01*
X121205000Y-97255000D02*
X121205000Y-94515000D01*
X88365000Y-82450000D02*
X85625000Y-82450000D01*
X85625000Y-82450000D02*
X85625000Y-87690000D01*
X88365000Y-87690000D02*
X85625000Y-87690000D01*
X88365000Y-82450000D02*
X88365000Y-87690000D01*
X33120000Y-82450000D02*
X33120000Y-87690000D01*
X30380000Y-82450000D02*
X30380000Y-87690000D01*
X33120000Y-87690000D02*
X30380000Y-87690000D01*
X33120000Y-82450000D02*
X30380000Y-82450000D01*
X115470000Y-113478000D02*
X118210000Y-113478000D01*
X115470000Y-118718000D02*
X118210000Y-118718000D01*
X118210000Y-118718000D02*
X118210000Y-113478000D01*
X115470000Y-118718000D02*
X115470000Y-113478000D01*
X86514000Y-118718000D02*
X86514000Y-113478000D01*
X86514000Y-118718000D02*
X89254000Y-118718000D01*
X86514000Y-113478000D02*
X89254000Y-113478000D01*
X89254000Y-118718000D02*
X89254000Y-113478000D01*
X116305000Y-87690000D02*
X113565000Y-87690000D01*
X116305000Y-82450000D02*
X113565000Y-82450000D01*
X116305000Y-82450000D02*
X116305000Y-87690000D01*
X113565000Y-82450000D02*
X113565000Y-87690000D01*
X196115000Y-118645000D02*
X198855000Y-118645000D01*
X196115000Y-123885000D02*
X196115000Y-118645000D01*
X198855000Y-123885000D02*
X198855000Y-118645000D01*
X196115000Y-123885000D02*
X198855000Y-123885000D01*
X97850000Y-94515000D02*
X92610000Y-94515000D01*
X97850000Y-97255000D02*
X97850000Y-94515000D01*
X97850000Y-97255000D02*
X92610000Y-97255000D01*
X92610000Y-97255000D02*
X92610000Y-94515000D01*
X124560000Y-126265000D02*
X124560000Y-131505000D01*
X124560000Y-126265000D02*
X121820000Y-126265000D01*
X124560000Y-131505000D02*
X121820000Y-131505000D01*
X121820000Y-126265000D02*
X121820000Y-131505000D01*
X144880000Y-82450000D02*
X142140000Y-82450000D01*
X144880000Y-87690000D02*
X142140000Y-87690000D01*
X144880000Y-82450000D02*
X144880000Y-87690000D01*
X142140000Y-82450000D02*
X142140000Y-87690000D01*
X172185000Y-82450000D02*
X169445000Y-82450000D01*
X172185000Y-87690000D02*
X169445000Y-87690000D01*
X172185000Y-82450000D02*
X172185000Y-87690000D01*
X169445000Y-82450000D02*
X169445000Y-87690000D01*
X46700000Y-141080000D02*
X42200000Y-141080000D01*
X47950000Y-145080000D02*
X47950000Y-143580000D01*
X42200000Y-147580000D02*
X46700000Y-147580000D01*
X40950000Y-143580000D02*
X40950000Y-145080000D01*
X58205000Y-141080000D02*
X53705000Y-141080000D01*
X52455000Y-143580000D02*
X52455000Y-145080000D01*
X59455000Y-145080000D02*
X59455000Y-143580000D01*
X53705000Y-147580000D02*
X58205000Y-147580000D01*
X80070000Y-101490000D02*
X62170000Y-101490000D01*
X62170000Y-106790000D02*
X80070000Y-106790000D01*
X80070000Y-106790000D02*
X80070000Y-105140000D01*
X62170000Y-101490000D02*
X62170000Y-106790000D01*
X80070000Y-103140000D02*
X80070000Y-101490000D01*
X80070000Y-103140000D02*
G75*
G03*
X80070000Y-105140000I0J-1000000D01*
G01*
X36135000Y-106790000D02*
X54035000Y-106790000D01*
X54035000Y-103140000D02*
X54035000Y-101490000D01*
X54035000Y-106790000D02*
X54035000Y-105140000D01*
X54035000Y-101490000D02*
X36135000Y-101490000D01*
X36135000Y-101490000D02*
X36135000Y-106790000D01*
X54035000Y-103140000D02*
G75*
G03*
X54035000Y-105140000I0J-1000000D01*
G01*
X62170000Y-84980000D02*
X62170000Y-86630000D01*
X62170000Y-90280000D02*
X82610000Y-90280000D01*
X62170000Y-88630000D02*
X62170000Y-90280000D01*
X82610000Y-84980000D02*
X62170000Y-84980000D01*
X82610000Y-90280000D02*
X82610000Y-84980000D01*
X62170000Y-88630000D02*
G75*
G03*
X62170000Y-86630000I0J1000000D01*
G01*
X82015000Y-68232749D02*
X79275000Y-68232749D01*
X79275000Y-68232749D02*
X79275000Y-74772749D01*
X79275000Y-74772749D02*
X82015000Y-74772749D01*
X80645000Y-75542749D02*
X80645000Y-74772749D01*
X82015000Y-74772749D02*
X82015000Y-68232749D01*
X80645000Y-67462749D02*
X80645000Y-68232749D01*
X65405000Y-75542749D02*
X65405000Y-74772749D01*
X66775000Y-74772749D02*
X66775000Y-68232749D01*
X64035000Y-74772749D02*
X66775000Y-74772749D01*
X66775000Y-68232749D02*
X64035000Y-68232749D01*
X64035000Y-68232749D02*
X64035000Y-74772749D01*
X65405000Y-67462749D02*
X65405000Y-68232749D01*
X71655000Y-74772749D02*
X74395000Y-74772749D01*
X74395000Y-68232749D02*
X71655000Y-68232749D01*
X73025000Y-67462749D02*
X73025000Y-68232749D01*
X73025000Y-75542749D02*
X73025000Y-74772749D01*
X74395000Y-74772749D02*
X74395000Y-68232749D01*
X71655000Y-68232749D02*
X71655000Y-74772749D01*
X69215000Y-67462749D02*
X69215000Y-68232749D01*
X70585000Y-68232749D02*
X67845000Y-68232749D01*
X67845000Y-74772749D02*
X70585000Y-74772749D01*
X69215000Y-75542749D02*
X69215000Y-74772749D01*
X67845000Y-68232749D02*
X67845000Y-74772749D01*
X70585000Y-74772749D02*
X70585000Y-68232749D01*
X76835000Y-67462749D02*
X76835000Y-68232749D01*
X75465000Y-74772749D02*
X78205000Y-74772749D01*
X75465000Y-68232749D02*
X75465000Y-74772749D01*
X76835000Y-75542749D02*
X76835000Y-74772749D01*
X78205000Y-74772749D02*
X78205000Y-68232749D01*
X78205000Y-68232749D02*
X75465000Y-68232749D01*
X45720000Y-75542749D02*
X45720000Y-74772749D01*
X45720000Y-67462749D02*
X45720000Y-68232749D01*
X44350000Y-68232749D02*
X44350000Y-74772749D01*
X44350000Y-74772749D02*
X47090000Y-74772749D01*
X47090000Y-74772749D02*
X47090000Y-68232749D01*
X47090000Y-68232749D02*
X44350000Y-68232749D01*
X56415000Y-74772749D02*
X59155000Y-74772749D01*
X57785000Y-75542749D02*
X57785000Y-74772749D01*
X59155000Y-74772749D02*
X59155000Y-68232749D01*
X56415000Y-68232749D02*
X56415000Y-74772749D01*
X59155000Y-68232749D02*
X56415000Y-68232749D01*
X57785000Y-67462749D02*
X57785000Y-68232749D01*
X36730000Y-68232749D02*
X36730000Y-74772749D01*
X38100000Y-75542749D02*
X38100000Y-74772749D01*
X39470000Y-68232749D02*
X36730000Y-68232749D01*
X38100000Y-67462749D02*
X38100000Y-68232749D01*
X39470000Y-74772749D02*
X39470000Y-68232749D01*
X36730000Y-74772749D02*
X39470000Y-74772749D01*
X48160000Y-68232749D02*
X48160000Y-74772749D01*
X50900000Y-74772749D02*
X50900000Y-68232749D01*
X49530000Y-75542749D02*
X49530000Y-74772749D01*
X49530000Y-67462749D02*
X49530000Y-68232749D01*
X48160000Y-74772749D02*
X50900000Y-74772749D01*
X50900000Y-68232749D02*
X48160000Y-68232749D01*
X54710000Y-68232749D02*
X51970000Y-68232749D01*
X51970000Y-74772749D02*
X54710000Y-74772749D01*
X53340000Y-67462749D02*
X53340000Y-68232749D01*
X53340000Y-75542749D02*
X53340000Y-74772749D01*
X54710000Y-74772749D02*
X54710000Y-68232749D01*
X51970000Y-68232749D02*
X51970000Y-74772749D01*
X43280000Y-74772749D02*
X43280000Y-68232749D01*
X40540000Y-68232749D02*
X40540000Y-74772749D01*
X41910000Y-67462749D02*
X41910000Y-68232749D01*
X40540000Y-74772749D02*
X43280000Y-74772749D01*
X41910000Y-75542749D02*
X41910000Y-74772749D01*
X43280000Y-68232749D02*
X40540000Y-68232749D01*
X61595000Y-67462749D02*
X61595000Y-68232749D01*
X62965000Y-68232749D02*
X60225000Y-68232749D01*
X61595000Y-75542749D02*
X61595000Y-74772749D01*
X60225000Y-68232749D02*
X60225000Y-74772749D01*
X60225000Y-74772749D02*
X62965000Y-74772749D01*
X62965000Y-74772749D02*
X62965000Y-68232749D01*
X30480000Y-67462749D02*
X30480000Y-68232749D01*
X29110000Y-74772749D02*
X31850000Y-74772749D01*
X30480000Y-75542749D02*
X30480000Y-74772749D01*
X31850000Y-74772749D02*
X31850000Y-68232749D01*
X31850000Y-68232749D02*
X29110000Y-68232749D01*
X29110000Y-68232749D02*
X29110000Y-74772749D01*
X77410000Y-50800000D02*
X77410000Y-39370000D01*
X86820000Y-45085000D02*
X79820000Y-45085000D01*
X80820000Y-40085000D02*
X79820000Y-45085000D01*
X87820000Y-40085000D02*
X86820000Y-45085000D01*
X78820000Y-50085000D02*
X85820000Y-50085000D01*
X90230000Y-50800000D02*
X90230000Y-39370000D01*
X85820000Y-50085000D02*
X86820000Y-45085000D01*
X79820000Y-45085000D02*
X78820000Y-50085000D01*
X90120000Y-35450000D02*
X77520000Y-35450000D01*
X80820000Y-40085000D02*
X87820000Y-40085000D01*
X78520000Y-54720000D02*
X90120000Y-54720000D01*
X88267214Y-50085000D02*
G75*
G03*
X88267214Y-50085000I-447214J0D01*
G01*
X66485000Y-45085000D02*
X65485000Y-50085000D01*
X76785000Y-35450000D02*
X64185000Y-35450000D01*
X65485000Y-50085000D02*
X72485000Y-50085000D01*
X67485000Y-40085000D02*
X74485000Y-40085000D01*
X72485000Y-50085000D02*
X73485000Y-45085000D01*
X64075000Y-50800000D02*
X64075000Y-39370000D01*
X65185000Y-54720000D02*
X76785000Y-54720000D01*
X73485000Y-45085000D02*
X66485000Y-45085000D01*
X74485000Y-40085000D02*
X73485000Y-45085000D01*
X67485000Y-40085000D02*
X66485000Y-45085000D01*
X76895000Y-50800000D02*
X76895000Y-39370000D01*
X74932214Y-50085000D02*
G75*
G03*
X74932214Y-50085000I-447214J0D01*
G01*
X170715000Y-75025000D02*
X173455000Y-75025000D01*
X173455000Y-75025000D02*
X173455000Y-68485000D01*
X172085000Y-67715000D02*
X172085000Y-68485000D01*
X170715000Y-68485000D02*
X170715000Y-75025000D01*
X173455000Y-68485000D02*
X170715000Y-68485000D01*
X172085000Y-75795000D02*
X172085000Y-75025000D01*
X109320000Y-68485000D02*
X106580000Y-68485000D01*
X107950000Y-75795000D02*
X107950000Y-75025000D01*
X106580000Y-75025000D02*
X109320000Y-75025000D01*
X109320000Y-75025000D02*
X109320000Y-68485000D01*
X107950000Y-67715000D02*
X107950000Y-68485000D01*
X106580000Y-68485000D02*
X106580000Y-75025000D01*
X147240000Y-97255000D02*
X147240000Y-94515000D01*
X152480000Y-94515000D02*
X147240000Y-94515000D01*
X152480000Y-97255000D02*
X147240000Y-97255000D01*
X152480000Y-97255000D02*
X152480000Y-94515000D01*
X147220000Y-68485000D02*
X147220000Y-75025000D01*
X149960000Y-75025000D02*
X149960000Y-68485000D01*
X149960000Y-68485000D02*
X147220000Y-68485000D01*
X147220000Y-75025000D02*
X149960000Y-75025000D01*
X148590000Y-75795000D02*
X148590000Y-75025000D01*
X148590000Y-67715000D02*
X148590000Y-68485000D01*
X151030000Y-68485000D02*
X151030000Y-75025000D01*
X153770000Y-75025000D02*
X153770000Y-68485000D01*
X152400000Y-75795000D02*
X152400000Y-75025000D01*
X151030000Y-75025000D02*
X153770000Y-75025000D01*
X153770000Y-68485000D02*
X151030000Y-68485000D01*
X152400000Y-67715000D02*
X152400000Y-68485000D01*
X154840000Y-68485000D02*
X154840000Y-75025000D01*
X157580000Y-68485000D02*
X154840000Y-68485000D01*
X156210000Y-67715000D02*
X156210000Y-68485000D01*
X157580000Y-75025000D02*
X157580000Y-68485000D01*
X154840000Y-75025000D02*
X157580000Y-75025000D01*
X156210000Y-75795000D02*
X156210000Y-75025000D01*
X160020000Y-67715000D02*
X160020000Y-68485000D01*
X160020000Y-75795000D02*
X160020000Y-75025000D01*
X161390000Y-68485000D02*
X158650000Y-68485000D01*
X161390000Y-75025000D02*
X161390000Y-68485000D01*
X158650000Y-68485000D02*
X158650000Y-75025000D01*
X158650000Y-75025000D02*
X161390000Y-75025000D01*
X146150000Y-68485000D02*
X143410000Y-68485000D01*
X144780000Y-75795000D02*
X144780000Y-75025000D01*
X146150000Y-75025000D02*
X146150000Y-68485000D01*
X144780000Y-67715000D02*
X144780000Y-68485000D01*
X143410000Y-75025000D02*
X146150000Y-75025000D01*
X143410000Y-68485000D02*
X143410000Y-75025000D01*
X165160000Y-106790000D02*
X165160000Y-105140000D01*
X165160000Y-103140000D02*
X165160000Y-101490000D01*
X147260000Y-106790000D02*
X165160000Y-106790000D01*
X147260000Y-101490000D02*
X147260000Y-106790000D01*
X165160000Y-101490000D02*
X147260000Y-101490000D01*
X165160000Y-103140000D02*
G75*
G03*
X165160000Y-105140000I0J-1000000D01*
G01*
X167065000Y-84980000D02*
X146625000Y-84980000D01*
X167065000Y-90280000D02*
X167065000Y-84980000D01*
X146625000Y-90280000D02*
X167065000Y-90280000D01*
X146625000Y-88630000D02*
X146625000Y-90280000D01*
X146625000Y-84980000D02*
X146625000Y-86630000D01*
X146625000Y-88630000D02*
G75*
G03*
X146625000Y-86630000I0J1000000D01*
G01*
X22815000Y-122525000D02*
X25875000Y-122525000D01*
X36035000Y-129935000D02*
X36035000Y-132745000D01*
X36035000Y-132745000D02*
X29975000Y-132745000D01*
X29975000Y-122525000D02*
X36035000Y-122525000D01*
X36035000Y-122525000D02*
X36035000Y-125335000D01*
X25875000Y-132745000D02*
X22815000Y-132745000D01*
X22815000Y-132745000D02*
X22815000Y-122525000D01*
X36225000Y-126635000D02*
X36225000Y-128635000D01*
X42657000Y-128044000D02*
X44045000Y-128044000D01*
X46125000Y-126684000D02*
X46404000Y-126684000D01*
X46125000Y-127004000D02*
X46828000Y-127004000D01*
X42885000Y-127564000D02*
X44045000Y-127564000D01*
X46125000Y-128645000D02*
X47650000Y-128645000D01*
X46125000Y-127284000D02*
X47089000Y-127284000D01*
X46125000Y-128565000D02*
X47641000Y-128565000D01*
X46125000Y-127804000D02*
X47414000Y-127804000D01*
X42630000Y-128124000D02*
X44045000Y-128124000D01*
X46125000Y-127564000D02*
X47285000Y-127564000D01*
X42529000Y-128565000D02*
X44045000Y-128565000D01*
X42817000Y-127684000D02*
X44045000Y-127684000D01*
X42520000Y-128645000D02*
X44045000Y-128645000D01*
X42720000Y-127884000D02*
X44045000Y-127884000D01*
X43610000Y-131729775D02*
X43610000Y-131229775D01*
X46125000Y-127484000D02*
X47234000Y-127484000D01*
X46125000Y-127924000D02*
X47467000Y-127924000D01*
X42703000Y-127924000D02*
X44045000Y-127924000D01*
X42990000Y-127404000D02*
X44045000Y-127404000D01*
X42671000Y-128004000D02*
X44045000Y-128004000D01*
X46125000Y-126844000D02*
X46639000Y-126844000D01*
X46125000Y-128405000D02*
X47613000Y-128405000D01*
X46125000Y-127444000D02*
X47207000Y-127444000D01*
X42557000Y-128405000D02*
X44045000Y-128405000D01*
X43987000Y-126564000D02*
X46183000Y-126564000D01*
X43148000Y-127204000D02*
X44045000Y-127204000D01*
X43360000Y-131479775D02*
X43860000Y-131479775D01*
X46125000Y-127524000D02*
X47260000Y-127524000D01*
X46125000Y-127244000D02*
X47056000Y-127244000D01*
X46125000Y-126724000D02*
X46468000Y-126724000D01*
X43386000Y-126964000D02*
X44045000Y-126964000D01*
X46125000Y-127084000D02*
X46911000Y-127084000D01*
X42509000Y-128765000D02*
X47661000Y-128765000D01*
X46125000Y-127684000D02*
X47353000Y-127684000D01*
X46125000Y-128164000D02*
X47553000Y-128164000D01*
X46125000Y-127044000D02*
X46870000Y-127044000D01*
X44280000Y-126444000D02*
X45890000Y-126444000D01*
X44170000Y-126484000D02*
X46000000Y-126484000D01*
X46125000Y-127844000D02*
X47433000Y-127844000D01*
X46125000Y-128685000D02*
X47654000Y-128685000D01*
X43907000Y-126604000D02*
X46263000Y-126604000D01*
X43342000Y-127004000D02*
X44045000Y-127004000D01*
X42687000Y-127964000D02*
X44045000Y-127964000D01*
X43184000Y-127164000D02*
X44045000Y-127164000D01*
X42535000Y-128525000D02*
X44045000Y-128525000D01*
X46125000Y-128004000D02*
X47499000Y-128004000D01*
X46125000Y-126924000D02*
X46738000Y-126924000D01*
X42775000Y-127764000D02*
X44045000Y-127764000D01*
X43300000Y-127044000D02*
X44045000Y-127044000D01*
X42549000Y-128445000D02*
X44045000Y-128445000D01*
X46125000Y-127164000D02*
X46986000Y-127164000D01*
X42605000Y-128204000D02*
X44045000Y-128204000D01*
X43642000Y-126764000D02*
X44045000Y-126764000D01*
X42506000Y-128845000D02*
X47664000Y-128845000D01*
X43081000Y-127284000D02*
X44045000Y-127284000D01*
X46125000Y-128325000D02*
X47596000Y-128325000D01*
X46125000Y-128445000D02*
X47621000Y-128445000D01*
X44074000Y-126524000D02*
X46096000Y-126524000D01*
X46125000Y-126644000D02*
X46336000Y-126644000D01*
X46125000Y-128245000D02*
X47576000Y-128245000D01*
X42574000Y-128325000D02*
X44045000Y-128325000D01*
X46125000Y-126964000D02*
X46784000Y-126964000D01*
X44567000Y-126364000D02*
X45603000Y-126364000D01*
X43834000Y-126644000D02*
X44045000Y-126644000D01*
X46125000Y-127644000D02*
X47332000Y-127644000D01*
X43585000Y-126804000D02*
X44045000Y-126804000D01*
X42795000Y-127724000D02*
X44045000Y-127724000D01*
X46125000Y-126884000D02*
X46690000Y-126884000D01*
X42512000Y-128725000D02*
X47658000Y-128725000D01*
X42565000Y-128365000D02*
X44045000Y-128365000D01*
X46125000Y-128605000D02*
X47646000Y-128605000D01*
X46125000Y-127404000D02*
X47180000Y-127404000D01*
X43259000Y-127084000D02*
X44045000Y-127084000D01*
X46125000Y-128285000D02*
X47586000Y-128285000D01*
X46125000Y-128485000D02*
X47628000Y-128485000D01*
X42594000Y-128245000D02*
X44045000Y-128245000D01*
X46125000Y-128525000D02*
X47635000Y-128525000D01*
X42505000Y-128885000D02*
X47665000Y-128885000D01*
X46125000Y-127764000D02*
X47395000Y-127764000D01*
X43702000Y-126724000D02*
X44045000Y-126724000D01*
X43432000Y-126924000D02*
X44045000Y-126924000D01*
X42963000Y-127444000D02*
X44045000Y-127444000D01*
X42516000Y-128685000D02*
X44045000Y-128685000D01*
X46125000Y-127204000D02*
X47022000Y-127204000D01*
X42838000Y-127644000D02*
X44045000Y-127644000D01*
X46125000Y-127604000D02*
X47309000Y-127604000D01*
X43114000Y-127244000D02*
X44045000Y-127244000D01*
X42542000Y-128485000D02*
X44045000Y-128485000D01*
X43020000Y-127364000D02*
X44045000Y-127364000D01*
X43480000Y-126884000D02*
X44045000Y-126884000D01*
X46125000Y-126764000D02*
X46528000Y-126764000D01*
X43531000Y-126844000D02*
X44045000Y-126844000D01*
X42737000Y-127844000D02*
X44045000Y-127844000D01*
X46125000Y-127724000D02*
X47375000Y-127724000D01*
X42524000Y-128605000D02*
X44045000Y-128605000D01*
X46125000Y-128084000D02*
X47527000Y-128084000D01*
X43221000Y-127124000D02*
X44045000Y-127124000D01*
X46125000Y-126804000D02*
X46585000Y-126804000D01*
X46125000Y-127324000D02*
X47120000Y-127324000D01*
X43766000Y-126684000D02*
X44045000Y-126684000D01*
X44801000Y-126324000D02*
X45369000Y-126324000D01*
X42617000Y-128164000D02*
X44045000Y-128164000D01*
X46125000Y-127364000D02*
X47150000Y-127364000D01*
X42756000Y-127804000D02*
X44045000Y-127804000D01*
X42936000Y-127484000D02*
X44045000Y-127484000D01*
X46125000Y-128124000D02*
X47540000Y-128124000D01*
X42505000Y-128925000D02*
X47665000Y-128925000D01*
X43050000Y-127324000D02*
X44045000Y-127324000D01*
X42910000Y-127524000D02*
X44045000Y-127524000D01*
X46125000Y-127964000D02*
X47483000Y-127964000D01*
X46125000Y-127884000D02*
X47450000Y-127884000D01*
X42643000Y-128084000D02*
X44045000Y-128084000D01*
X46125000Y-128044000D02*
X47513000Y-128044000D01*
X42507000Y-128805000D02*
X47663000Y-128805000D01*
X42584000Y-128285000D02*
X44045000Y-128285000D01*
X44408000Y-126404000D02*
X45762000Y-126404000D01*
X46125000Y-127124000D02*
X46949000Y-127124000D01*
X46125000Y-128365000D02*
X47605000Y-128365000D01*
X46125000Y-128204000D02*
X47565000Y-128204000D01*
X42861000Y-127604000D02*
X44045000Y-127604000D01*
X47705000Y-128925000D02*
G75*
G03*
X47705000Y-128925000I-2620000J0D01*
G01*
X167540000Y-134720000D02*
X170280000Y-134720000D01*
X170280000Y-134720000D02*
X170280000Y-129480000D01*
X167540000Y-129480000D02*
X170280000Y-129480000D01*
X167540000Y-134720000D02*
X167540000Y-129480000D01*
X159285000Y-129480000D02*
X162025000Y-129480000D01*
X162025000Y-134720000D02*
X162025000Y-129480000D01*
X159285000Y-134720000D02*
X162025000Y-134720000D01*
X159285000Y-134720000D02*
X159285000Y-129480000D01*
X163830000Y-134050000D02*
G75*
G03*
X165329390Y-134050653I750000J700000D01*
G01*
X165329390Y-132649347D02*
G75*
G03*
X163830000Y-132650000I-749390J-700653D01*
G01*
X93885000Y-58955000D02*
X93885000Y-61695000D01*
X100425000Y-58955000D02*
X93885000Y-58955000D01*
X100425000Y-61695000D02*
X100425000Y-58955000D01*
X101195000Y-60325000D02*
X100425000Y-60325000D01*
X93885000Y-61695000D02*
X100425000Y-61695000D01*
X93115000Y-60325000D02*
X93885000Y-60325000D01*
M02*
